<svg width="312" height="291" viewBox="0 0 312 291" fill="none" xmlns="http://www.w3.org/2000/svg">
<rect width="312" height="291" fill="white"/>
<path d="M281.5 144.5C281.5 217.4 222.18 276.5 149 276.5C75.8205 276.5 16.5 217.4 16.5 144.5C16.5 71.6002 75.8205 12.5 149 12.5C222.18 12.5 281.5 71.6002 281.5 144.5Z" fill="#D9D9D9" stroke="black"/>
<path d="M281.5 144.5C281.5 217.4 222.18 276.5 149 276.5C75.8205 276.5 16.5 217.4 16.5 144.5C16.5 71.6002 75.8205 12.5 149 12.5C222.18 12.5 281.5 71.6002 281.5 144.5Z" fill="#D9D9D9" stroke="black"/>
<line x1="16" y1="144.5" x2="282" y2="144.5" stroke="black"/>
<path d="M89.7727 88.2727C89.7045 87.697 89.428 87.25 88.9432 86.9318C88.4583 86.6136 87.8636 86.4545 87.1591 86.4545C86.6439 86.4545 86.1932 86.5379 85.8068 86.7045C85.4242 86.8712 85.125 87.1004 84.9091 87.392C84.697 87.6837 84.5909 88.0152 84.5909 88.3864C84.5909 88.697 84.6648 88.964 84.8125 89.1875C84.964 89.4072 85.1572 89.5909 85.392 89.7386C85.6269 89.8826 85.8731 90.0019 86.1307 90.0966C86.3883 90.1875 86.625 90.2614 86.8409 90.3182L88.0227 90.6364C88.3258 90.7159 88.6629 90.8258 89.0341 90.9659C89.4091 91.1061 89.767 91.2973 90.108 91.5398C90.4527 91.7784 90.7367 92.0852 90.9602 92.4602C91.1837 92.8352 91.2955 93.2955 91.2955 93.8409C91.2955 94.4697 91.1307 95.0379 90.8011 95.5455C90.4754 96.053 89.9981 96.4564 89.3693 96.7557C88.7443 97.0549 87.9848 97.2045 87.0909 97.2045C86.2576 97.2045 85.536 97.0701 84.9261 96.8011C84.3201 96.5322 83.8428 96.1572 83.4943 95.6761C83.1496 95.1951 82.9545 94.6364 82.9091 94H84.3636C84.4015 94.4394 84.5492 94.803 84.8068 95.0909C85.0682 95.375 85.3977 95.5871 85.7955 95.7273C86.197 95.8636 86.6288 95.9318 87.0909 95.9318C87.6288 95.9318 88.1117 95.8447 88.5398 95.6705C88.9678 95.4924 89.3068 95.2462 89.5568 94.9318C89.8068 94.6136 89.9318 94.2424 89.9318 93.8182C89.9318 93.4318 89.8239 93.1174 89.608 92.875C89.392 92.6326 89.108 92.4356 88.7557 92.2841C88.4034 92.1326 88.0227 92 87.6136 91.8864L86.1818 91.4773C85.2727 91.2159 84.553 90.8428 84.0227 90.358C83.4924 89.8731 83.2273 89.2386 83.2273 88.4545C83.2273 87.803 83.4034 87.2348 83.7557 86.75C84.1117 86.2614 84.589 85.8826 85.1875 85.6136C85.7898 85.3409 86.4621 85.2045 87.2045 85.2045C87.9545 85.2045 88.6212 85.339 89.2045 85.608C89.7879 85.8731 90.25 86.2367 90.5909 86.6989C90.9356 87.161 91.1174 87.6856 91.1364 88.2727H89.7727ZM93.4304 100.273V88.2727H94.7259V89.6591H94.8849C94.9834 89.5076 95.1198 89.3144 95.294 89.0795C95.4721 88.8409 95.7259 88.6288 96.0554 88.4432C96.3887 88.2538 96.8395 88.1591 97.4077 88.1591C98.1425 88.1591 98.7902 88.3428 99.3509 88.7102C99.9115 89.0777 100.349 89.5985 100.663 90.2727C100.978 90.947 101.135 91.7424 101.135 92.6591C101.135 93.5833 100.978 94.3845 100.663 95.0625C100.349 95.7367 99.9134 96.2595 99.3565 96.6307C98.7997 96.9981 98.1577 97.1818 97.4304 97.1818C96.8698 97.1818 96.4209 97.089 96.0838 96.9034C95.7467 96.714 95.4872 96.5 95.3054 96.2614C95.1236 96.0189 94.9834 95.8182 94.8849 95.6591H94.7713V100.273H93.4304ZM94.7486 92.6364C94.7486 93.2955 94.8452 93.8769 95.0384 94.3807C95.2315 94.8807 95.5137 95.2727 95.8849 95.5568C96.2562 95.8371 96.7107 95.9773 97.2486 95.9773C97.8092 95.9773 98.277 95.8295 98.652 95.5341C99.0308 95.2348 99.3149 94.8333 99.5043 94.3295C99.6974 93.822 99.794 93.2576 99.794 92.6364C99.794 92.0227 99.6993 91.4697 99.5099 90.9773C99.3243 90.4811 99.0421 90.089 98.6634 89.8011C98.2884 89.5095 97.8168 89.3636 97.2486 89.3636C96.7031 89.3636 96.2448 89.5019 95.8736 89.7784C95.5024 90.0511 95.2221 90.4337 95.0327 90.9261C94.8433 91.4148 94.7486 91.9848 94.7486 92.6364ZM105.749 97.2045C105.196 97.2045 104.694 97.1004 104.243 96.892C103.792 96.6799 103.434 96.375 103.169 95.9773C102.904 95.5758 102.771 95.0909 102.771 94.5227C102.771 94.0227 102.87 93.6174 103.067 93.3068C103.264 92.9924 103.527 92.7462 103.857 92.5682C104.186 92.3902 104.55 92.2576 104.947 92.1705C105.349 92.0795 105.752 92.0076 106.158 91.9545C106.688 91.8864 107.118 91.8352 107.447 91.8011C107.781 91.7633 108.023 91.7008 108.175 91.6136C108.33 91.5265 108.408 91.375 108.408 91.1591V91.1136C108.408 90.553 108.254 90.1174 107.947 89.8068C107.644 89.4962 107.184 89.3409 106.567 89.3409C105.927 89.3409 105.425 89.4811 105.061 89.7614C104.697 90.0417 104.442 90.3409 104.294 90.6591L103.021 90.2045C103.249 89.6742 103.552 89.2614 103.93 88.9659C104.313 88.6667 104.73 88.4583 105.18 88.3409C105.635 88.2197 106.082 88.1591 106.521 88.1591C106.802 88.1591 107.124 88.1932 107.487 88.2614C107.855 88.3258 108.209 88.4602 108.55 88.6648C108.894 88.8693 109.18 89.178 109.408 89.5909C109.635 90.0038 109.749 90.5568 109.749 91.25V97H108.408V95.8182H108.339C108.249 96.0076 108.097 96.2102 107.885 96.4261C107.673 96.642 107.391 96.8258 107.038 96.9773C106.686 97.1288 106.256 97.2045 105.749 97.2045ZM105.953 96C106.483 96 106.93 95.8958 107.294 95.6875C107.661 95.4792 107.938 95.2102 108.124 94.8807C108.313 94.5511 108.408 94.2045 108.408 93.8409V92.6136C108.351 92.6818 108.226 92.7443 108.033 92.8011C107.843 92.8542 107.624 92.9015 107.374 92.9432C107.127 92.9811 106.887 93.0152 106.652 93.0455C106.421 93.072 106.233 93.0947 106.089 93.1136C105.741 93.1591 105.415 93.233 105.112 93.3352C104.813 93.4337 104.571 93.5833 104.385 93.7841C104.203 93.9811 104.112 94.25 104.112 94.5909C104.112 95.0568 104.285 95.4091 104.629 95.6477C104.978 95.8826 105.419 96 105.953 96ZM113.537 91.75V97H112.196V88.2727H113.491V89.6364H113.605C113.81 89.1932 114.12 88.8371 114.537 88.5682C114.954 88.2955 115.491 88.1591 116.151 88.1591C116.741 88.1591 117.259 88.2803 117.702 88.5227C118.145 88.7614 118.49 89.125 118.736 89.6136C118.982 90.0985 119.105 90.7121 119.105 91.4545V97H117.764V91.5455C117.764 90.8598 117.586 90.3258 117.23 89.9432C116.874 89.5568 116.385 89.3636 115.764 89.3636C115.336 89.3636 114.954 89.4564 114.616 89.642C114.283 89.8277 114.02 90.0985 113.827 90.4545C113.634 90.8106 113.537 91.2424 113.537 91.75ZM122.896 91.75V97H121.555V88.2727H122.851V89.6364H122.964C123.169 89.1932 123.48 88.8371 123.896 88.5682C124.313 88.2955 124.851 88.1591 125.51 88.1591C126.101 88.1591 126.618 88.2803 127.061 88.5227C127.504 88.7614 127.849 89.125 128.095 89.6136C128.341 90.0985 128.464 90.7121 128.464 91.4545V97H127.124V91.5455C127.124 90.8598 126.946 90.3258 126.589 89.9432C126.233 89.5568 125.745 89.3636 125.124 89.3636C124.696 89.3636 124.313 89.4564 123.976 89.642C123.643 89.8277 123.379 90.0985 123.186 90.4545C122.993 90.8106 122.896 91.2424 122.896 91.75ZM130.915 97V88.2727H132.256V97H130.915ZM131.597 86.8182C131.335 86.8182 131.11 86.7292 130.92 86.5511C130.735 86.3731 130.642 86.1591 130.642 85.9091C130.642 85.6591 130.735 85.4451 130.92 85.267C131.11 85.089 131.335 85 131.597 85C131.858 85 132.081 85.089 132.267 85.267C132.456 85.4451 132.551 85.6591 132.551 85.9091C132.551 86.1591 132.456 86.3731 132.267 86.5511C132.081 86.7292 131.858 86.8182 131.597 86.8182ZM136.053 91.75V97H134.712V88.2727H136.007V89.6364H136.121C136.325 89.1932 136.636 88.8371 137.053 88.5682C137.469 88.2955 138.007 88.1591 138.666 88.1591C139.257 88.1591 139.774 88.2803 140.217 88.5227C140.661 88.7614 141.005 89.125 141.251 89.6136C141.498 90.0985 141.621 90.7121 141.621 91.4545V97H140.28V91.5455C140.28 90.8598 140.102 90.3258 139.746 89.9432C139.39 89.5568 138.901 89.3636 138.28 89.3636C137.852 89.3636 137.469 89.4564 137.132 89.642C136.799 89.8277 136.536 90.0985 136.342 90.4545C136.149 90.8106 136.053 91.2424 136.053 91.75ZM147.594 100.455C146.946 100.455 146.389 100.371 145.923 100.205C145.457 100.042 145.069 99.8258 144.759 99.5568C144.452 99.2917 144.207 99.0076 144.026 98.7045L145.094 97.9545C145.215 98.1136 145.368 98.2955 145.554 98.5C145.74 98.7083 145.993 98.8883 146.315 99.0398C146.641 99.1951 147.067 99.2727 147.594 99.2727C148.298 99.2727 148.88 99.1023 149.338 98.7614C149.796 98.4205 150.026 97.8864 150.026 97.1591V95.3864H149.912C149.813 95.5455 149.673 95.7424 149.491 95.9773C149.313 96.2083 149.056 96.4148 148.719 96.5966C148.385 96.7746 147.935 96.8636 147.366 96.8636C146.662 96.8636 146.029 96.697 145.469 96.3636C144.912 96.0303 144.471 95.5455 144.145 94.9091C143.823 94.2727 143.662 93.5 143.662 92.5909C143.662 91.697 143.819 90.9186 144.134 90.2557C144.448 89.589 144.885 89.0739 145.446 88.7102C146.007 88.3428 146.654 88.1591 147.389 88.1591C147.957 88.1591 148.408 88.2538 148.741 88.4432C149.079 88.6288 149.336 88.8409 149.514 89.0795C149.696 89.3144 149.836 89.5076 149.935 89.6591H150.071V88.2727H151.366V97.25C151.366 98 151.196 98.6098 150.855 99.0795C150.518 99.553 150.063 99.8996 149.491 100.119C148.923 100.343 148.291 100.455 147.594 100.455ZM147.548 95.6591C148.086 95.6591 148.541 95.536 148.912 95.2898C149.283 95.0436 149.565 94.6894 149.759 94.2273C149.952 93.7652 150.048 93.2121 150.048 92.5682C150.048 91.9394 149.954 91.3845 149.764 90.9034C149.575 90.4223 149.295 90.0455 148.923 89.7727C148.552 89.5 148.094 89.3636 147.548 89.3636C146.98 89.3636 146.507 89.5076 146.128 89.7955C145.753 90.0833 145.471 90.4697 145.281 90.9545C145.096 91.4394 145.003 91.9773 145.003 92.5682C145.003 93.1742 145.098 93.7102 145.287 94.1761C145.48 94.6383 145.764 95.0019 146.139 95.267C146.518 95.5284 146.988 95.6591 147.548 95.6591ZM158.298 97V95.9773L162.139 91.7727C162.59 91.2803 162.961 90.8523 163.253 90.4886C163.545 90.1212 163.76 89.7765 163.901 89.4545C164.045 89.1288 164.116 88.7879 164.116 88.4318C164.116 88.0227 164.018 87.6686 163.821 87.3693C163.628 87.0701 163.363 86.839 163.026 86.6761C162.688 86.5133 162.31 86.4318 161.889 86.4318C161.442 86.4318 161.052 86.5246 160.719 86.7102C160.389 86.892 160.134 87.1477 159.952 87.4773C159.774 87.8068 159.685 88.1932 159.685 88.6364H158.344C158.344 87.9545 158.501 87.3561 158.815 86.8409C159.13 86.3258 159.558 85.9242 160.099 85.6364C160.645 85.3485 161.257 85.2045 161.935 85.2045C162.616 85.2045 163.221 85.3485 163.747 85.6364C164.274 85.9242 164.687 86.3125 164.986 86.8011C165.285 87.2898 165.435 87.8333 165.435 88.4318C165.435 88.8598 165.357 89.2784 165.202 89.6875C165.05 90.0928 164.785 90.5455 164.406 91.0455C164.031 91.5417 163.51 92.1477 162.844 92.8636L160.23 95.6591V95.75H165.639V97H158.298ZM172.509 97V88.2727H173.804V89.6364H173.918C174.099 89.1705 174.393 88.8087 174.798 88.5511C175.204 88.2898 175.69 88.1591 176.259 88.1591C176.834 88.1591 177.313 88.2898 177.696 88.5511C178.082 88.8087 178.384 89.1705 178.599 89.6364H178.69C178.914 89.1856 179.249 88.8277 179.696 88.5625C180.143 88.2936 180.679 88.1591 181.304 88.1591C182.084 88.1591 182.723 88.4034 183.219 88.892C183.715 89.3769 183.963 90.1326 183.963 91.1591V97H182.622V91.1591C182.622 90.5152 182.446 90.0549 182.094 89.7784C181.741 89.5019 181.327 89.3636 180.849 89.3636C180.236 89.3636 179.76 89.5492 179.423 89.9205C179.086 90.2879 178.918 90.7538 178.918 91.3182V97H177.554V91.0227C177.554 90.5265 177.393 90.1269 177.071 89.8239C176.749 89.517 176.334 89.3636 175.827 89.3636C175.478 89.3636 175.152 89.4564 174.849 89.642C174.55 89.8277 174.308 90.0852 174.122 90.4148C173.94 90.7405 173.849 91.1174 173.849 91.5455V97H172.509ZM189.96 97.1818C189.172 97.1818 188.481 96.9943 187.886 96.6193C187.295 96.2443 186.833 95.7197 186.5 95.0455C186.17 94.3712 186.006 93.5833 186.006 92.6818C186.006 91.7727 186.17 90.9792 186.5 90.3011C186.833 89.6231 187.295 89.0966 187.886 88.7216C188.481 88.3466 189.172 88.1591 189.96 88.1591C190.748 88.1591 191.438 88.3466 192.028 88.7216C192.623 89.0966 193.085 89.6231 193.415 90.3011C193.748 90.9792 193.915 91.7727 193.915 92.6818C193.915 93.5833 193.748 94.3712 193.415 95.0455C193.085 95.7197 192.623 96.2443 192.028 96.6193C191.438 96.9943 190.748 97.1818 189.96 97.1818ZM189.96 95.9773C190.559 95.9773 191.051 95.8239 191.438 95.517C191.824 95.2102 192.11 94.8068 192.295 94.3068C192.481 93.8068 192.574 93.2652 192.574 92.6818C192.574 92.0985 192.481 91.5549 192.295 91.0511C192.11 90.5473 191.824 90.1402 191.438 89.8295C191.051 89.5189 190.559 89.3636 189.96 89.3636C189.362 89.3636 188.869 89.5189 188.483 89.8295C188.097 90.1402 187.811 90.5473 187.625 91.0511C187.439 91.5549 187.347 92.0985 187.347 92.6818C187.347 93.2652 187.439 93.8068 187.625 94.3068C187.811 94.8068 188.097 95.2102 188.483 95.517C188.869 95.8239 189.362 95.9773 189.96 95.9773ZM197.303 91.75V97H195.962V88.2727H197.257V89.6364H197.371C197.575 89.1932 197.886 88.8371 198.303 88.5682C198.719 88.2955 199.257 88.1591 199.916 88.1591C200.507 88.1591 201.024 88.2803 201.467 88.5227C201.911 88.7614 202.255 89.125 202.501 89.6136C202.748 90.0985 202.871 90.7121 202.871 91.4545V97H201.53V91.5455C201.53 90.8598 201.352 90.3258 200.996 89.9432C200.64 89.5568 200.151 89.3636 199.53 89.3636C199.102 89.3636 198.719 89.4564 198.382 89.642C198.049 89.8277 197.786 90.0985 197.592 90.4545C197.399 90.8106 197.303 91.2424 197.303 91.75ZM209.116 88.2727V89.4091H204.594V88.2727H209.116ZM205.912 86.1818H207.253V94.5C207.253 94.8788 207.308 95.1629 207.418 95.3523C207.531 95.5379 207.675 95.6629 207.849 95.7273C208.027 95.7879 208.215 95.8182 208.412 95.8182C208.56 95.8182 208.681 95.8106 208.776 95.7955C208.87 95.7765 208.946 95.7614 209.003 95.75L209.276 96.9545C209.185 96.9886 209.058 97.0227 208.895 97.0568C208.732 97.0947 208.526 97.1136 208.276 97.1136C207.897 97.1136 207.526 97.0322 207.162 96.8693C206.802 96.7064 206.503 96.4583 206.264 96.125C206.029 95.7917 205.912 95.3712 205.912 94.8636V86.1818ZM212.662 91.75V97H211.321V85.3636H212.662V89.6364H212.776C212.98 89.1856 213.287 88.8277 213.696 88.5625C214.109 88.2936 214.658 88.1591 215.344 88.1591C215.938 88.1591 216.459 88.2784 216.906 88.517C217.353 88.7519 217.7 89.1136 217.946 89.6023C218.196 90.0871 218.321 90.7045 218.321 91.4545V97H216.98V91.5455C216.98 90.8523 216.8 90.3163 216.44 89.9375C216.084 89.5549 215.59 89.3636 214.957 89.3636C214.518 89.3636 214.124 89.4564 213.776 89.642C213.431 89.8277 213.158 90.0985 212.957 90.4545C212.76 90.8106 212.662 91.2424 212.662 91.75ZM226.956 90.2273L225.751 90.5682C225.676 90.3674 225.564 90.1723 225.416 89.983C225.272 89.7898 225.075 89.6307 224.825 89.5057C224.575 89.3807 224.255 89.3182 223.865 89.3182C223.331 89.3182 222.886 89.4413 222.53 89.6875C222.178 89.9299 222.001 90.2386 222.001 90.6136C222.001 90.947 222.123 91.2102 222.365 91.4034C222.607 91.5966 222.986 91.7576 223.501 91.8864L224.797 92.2045C225.577 92.3939 226.159 92.6837 226.541 93.0739C226.924 93.4602 227.115 93.9583 227.115 94.5682C227.115 95.0682 226.971 95.5152 226.683 95.9091C226.399 96.303 226.001 96.6136 225.49 96.8409C224.979 97.0682 224.384 97.1818 223.706 97.1818C222.816 97.1818 222.079 96.9886 221.496 96.6023C220.912 96.2159 220.543 95.6515 220.388 94.9091L221.661 94.5909C221.782 95.0606 222.011 95.4129 222.348 95.6477C222.689 95.8826 223.134 96 223.683 96C224.308 96 224.804 95.8674 225.172 95.6023C225.543 95.3333 225.729 95.0114 225.729 94.6364C225.729 94.3333 225.623 94.0795 225.411 93.875C225.198 93.6667 224.873 93.5114 224.433 93.4091L222.979 93.0682C222.179 92.8788 221.592 92.5852 221.217 92.1875C220.846 91.786 220.661 91.2841 220.661 90.6818C220.661 90.1894 220.799 89.7538 221.075 89.375C221.356 88.9962 221.736 88.6989 222.217 88.483C222.702 88.267 223.251 88.1591 223.865 88.1591C224.729 88.1591 225.407 88.3485 225.899 88.7273C226.395 89.1061 226.748 89.6061 226.956 90.2273Z" fill="black"/>
<path d="M86.7727 195.273C86.7045 194.697 86.428 194.25 85.9432 193.932C85.4583 193.614 84.8636 193.455 84.1591 193.455C83.6439 193.455 83.1932 193.538 82.8068 193.705C82.4242 193.871 82.125 194.1 81.9091 194.392C81.697 194.684 81.5909 195.015 81.5909 195.386C81.5909 195.697 81.6648 195.964 81.8125 196.188C81.964 196.407 82.1572 196.591 82.392 196.739C82.6269 196.883 82.8731 197.002 83.1307 197.097C83.3883 197.187 83.625 197.261 83.8409 197.318L85.0227 197.636C85.3258 197.716 85.6629 197.826 86.0341 197.966C86.4091 198.106 86.767 198.297 87.108 198.54C87.4527 198.778 87.7367 199.085 87.9602 199.46C88.1837 199.835 88.2955 200.295 88.2955 200.841C88.2955 201.47 88.1307 202.038 87.8011 202.545C87.4754 203.053 86.9981 203.456 86.3693 203.756C85.7443 204.055 84.9848 204.205 84.0909 204.205C83.2576 204.205 82.536 204.07 81.9261 203.801C81.3201 203.532 80.8428 203.157 80.4943 202.676C80.1496 202.195 79.9545 201.636 79.9091 201H81.3636C81.4015 201.439 81.5492 201.803 81.8068 202.091C82.0682 202.375 82.3977 202.587 82.7955 202.727C83.197 202.864 83.6288 202.932 84.0909 202.932C84.6288 202.932 85.1117 202.845 85.5398 202.67C85.9678 202.492 86.3068 202.246 86.5568 201.932C86.8068 201.614 86.9318 201.242 86.9318 200.818C86.9318 200.432 86.8239 200.117 86.608 199.875C86.392 199.633 86.108 199.436 85.7557 199.284C85.4034 199.133 85.0227 199 84.6136 198.886L83.1818 198.477C82.2727 198.216 81.553 197.843 81.0227 197.358C80.4924 196.873 80.2273 196.239 80.2273 195.455C80.2273 194.803 80.4034 194.235 80.7557 193.75C81.1117 193.261 81.589 192.883 82.1875 192.614C82.7898 192.341 83.4621 192.205 84.2045 192.205C84.9545 192.205 85.6212 192.339 86.2045 192.608C86.7879 192.873 87.25 193.237 87.5909 193.699C87.9356 194.161 88.1174 194.686 88.1364 195.273H86.7727ZM90.4304 207.273V195.273H91.7259V196.659H91.8849C91.9834 196.508 92.1198 196.314 92.294 196.08C92.4721 195.841 92.7259 195.629 93.0554 195.443C93.3887 195.254 93.8395 195.159 94.4077 195.159C95.1425 195.159 95.7902 195.343 96.3509 195.71C96.9115 196.078 97.349 196.598 97.6634 197.273C97.9777 197.947 98.1349 198.742 98.1349 199.659C98.1349 200.583 97.9777 201.384 97.6634 202.062C97.349 202.737 96.9134 203.259 96.3565 203.631C95.7997 203.998 95.1577 204.182 94.4304 204.182C93.8698 204.182 93.4209 204.089 93.0838 203.903C92.7467 203.714 92.4872 203.5 92.3054 203.261C92.1236 203.019 91.9834 202.818 91.8849 202.659H91.7713V207.273H90.4304ZM91.7486 199.636C91.7486 200.295 91.8452 200.877 92.0384 201.381C92.2315 201.881 92.5137 202.273 92.8849 202.557C93.2562 202.837 93.7107 202.977 94.2486 202.977C94.8092 202.977 95.277 202.83 95.652 202.534C96.0308 202.235 96.3149 201.833 96.5043 201.33C96.6974 200.822 96.794 200.258 96.794 199.636C96.794 199.023 96.6993 198.47 96.5099 197.977C96.3243 197.481 96.0421 197.089 95.6634 196.801C95.2884 196.509 94.8168 196.364 94.2486 196.364C93.7031 196.364 93.2448 196.502 92.8736 196.778C92.5024 197.051 92.2221 197.434 92.0327 197.926C91.8433 198.415 91.7486 198.985 91.7486 199.636ZM102.749 204.205C102.196 204.205 101.694 204.1 101.243 203.892C100.792 203.68 100.434 203.375 100.169 202.977C99.9039 202.576 99.7713 202.091 99.7713 201.523C99.7713 201.023 99.8698 200.617 100.067 200.307C100.264 199.992 100.527 199.746 100.857 199.568C101.186 199.39 101.55 199.258 101.947 199.17C102.349 199.08 102.752 199.008 103.158 198.955C103.688 198.886 104.118 198.835 104.447 198.801C104.781 198.763 105.023 198.701 105.175 198.614C105.33 198.527 105.408 198.375 105.408 198.159V198.114C105.408 197.553 105.254 197.117 104.947 196.807C104.644 196.496 104.184 196.341 103.567 196.341C102.927 196.341 102.425 196.481 102.061 196.761C101.697 197.042 101.442 197.341 101.294 197.659L100.021 197.205C100.249 196.674 100.552 196.261 100.93 195.966C101.313 195.667 101.73 195.458 102.18 195.341C102.635 195.22 103.082 195.159 103.521 195.159C103.802 195.159 104.124 195.193 104.487 195.261C104.855 195.326 105.209 195.46 105.55 195.665C105.894 195.869 106.18 196.178 106.408 196.591C106.635 197.004 106.749 197.557 106.749 198.25V204H105.408V202.818H105.339C105.249 203.008 105.097 203.21 104.885 203.426C104.673 203.642 104.391 203.826 104.038 203.977C103.686 204.129 103.256 204.205 102.749 204.205ZM102.953 203C103.483 203 103.93 202.896 104.294 202.688C104.661 202.479 104.938 202.21 105.124 201.881C105.313 201.551 105.408 201.205 105.408 200.841V199.614C105.351 199.682 105.226 199.744 105.033 199.801C104.843 199.854 104.624 199.902 104.374 199.943C104.127 199.981 103.887 200.015 103.652 200.045C103.421 200.072 103.233 200.095 103.089 200.114C102.741 200.159 102.415 200.233 102.112 200.335C101.813 200.434 101.571 200.583 101.385 200.784C101.203 200.981 101.112 201.25 101.112 201.591C101.112 202.057 101.285 202.409 101.629 202.648C101.978 202.883 102.419 203 102.953 203ZM110.537 198.75V204H109.196V195.273H110.491V196.636H110.605C110.81 196.193 111.12 195.837 111.537 195.568C111.954 195.295 112.491 195.159 113.151 195.159C113.741 195.159 114.259 195.28 114.702 195.523C115.145 195.761 115.49 196.125 115.736 196.614C115.982 197.098 116.105 197.712 116.105 198.455V204H114.764V198.545C114.764 197.86 114.586 197.326 114.23 196.943C113.874 196.557 113.385 196.364 112.764 196.364C112.336 196.364 111.954 196.456 111.616 196.642C111.283 196.828 111.02 197.098 110.827 197.455C110.634 197.811 110.537 198.242 110.537 198.75ZM119.896 198.75V204H118.555V195.273H119.851V196.636H119.964C120.169 196.193 120.48 195.837 120.896 195.568C121.313 195.295 121.851 195.159 122.51 195.159C123.101 195.159 123.618 195.28 124.061 195.523C124.504 195.761 124.849 196.125 125.095 196.614C125.341 197.098 125.464 197.712 125.464 198.455V204H124.124V198.545C124.124 197.86 123.946 197.326 123.589 196.943C123.233 196.557 122.745 196.364 122.124 196.364C121.696 196.364 121.313 196.456 120.976 196.642C120.643 196.828 120.379 197.098 120.186 197.455C119.993 197.811 119.896 198.242 119.896 198.75ZM127.915 204V195.273H129.256V204H127.915ZM128.597 193.818C128.335 193.818 128.11 193.729 127.92 193.551C127.735 193.373 127.642 193.159 127.642 192.909C127.642 192.659 127.735 192.445 127.92 192.267C128.11 192.089 128.335 192 128.597 192C128.858 192 129.081 192.089 129.267 192.267C129.456 192.445 129.551 192.659 129.551 192.909C129.551 193.159 129.456 193.373 129.267 193.551C129.081 193.729 128.858 193.818 128.597 193.818ZM133.053 198.75V204H131.712V195.273H133.007V196.636H133.121C133.325 196.193 133.636 195.837 134.053 195.568C134.469 195.295 135.007 195.159 135.666 195.159C136.257 195.159 136.774 195.28 137.217 195.523C137.661 195.761 138.005 196.125 138.251 196.614C138.498 197.098 138.621 197.712 138.621 198.455V204H137.28V198.545C137.28 197.86 137.102 197.326 136.746 196.943C136.39 196.557 135.901 196.364 135.28 196.364C134.852 196.364 134.469 196.456 134.132 196.642C133.799 196.828 133.536 197.098 133.342 197.455C133.149 197.811 133.053 198.242 133.053 198.75ZM144.594 207.455C143.946 207.455 143.389 207.371 142.923 207.205C142.457 207.042 142.069 206.826 141.759 206.557C141.452 206.292 141.207 206.008 141.026 205.705L142.094 204.955C142.215 205.114 142.368 205.295 142.554 205.5C142.74 205.708 142.993 205.888 143.315 206.04C143.641 206.195 144.067 206.273 144.594 206.273C145.298 206.273 145.88 206.102 146.338 205.761C146.796 205.42 147.026 204.886 147.026 204.159V202.386H146.912C146.813 202.545 146.673 202.742 146.491 202.977C146.313 203.208 146.056 203.415 145.719 203.597C145.385 203.775 144.935 203.864 144.366 203.864C143.662 203.864 143.029 203.697 142.469 203.364C141.912 203.03 141.471 202.545 141.145 201.909C140.823 201.273 140.662 200.5 140.662 199.591C140.662 198.697 140.819 197.919 141.134 197.256C141.448 196.589 141.885 196.074 142.446 195.71C143.007 195.343 143.654 195.159 144.389 195.159C144.957 195.159 145.408 195.254 145.741 195.443C146.079 195.629 146.336 195.841 146.514 196.08C146.696 196.314 146.836 196.508 146.935 196.659H147.071V195.273H148.366V204.25C148.366 205 148.196 205.61 147.855 206.08C147.518 206.553 147.063 206.9 146.491 207.119C145.923 207.343 145.291 207.455 144.594 207.455ZM144.548 202.659C145.086 202.659 145.541 202.536 145.912 202.29C146.283 202.044 146.565 201.689 146.759 201.227C146.952 200.765 147.048 200.212 147.048 199.568C147.048 198.939 146.954 198.384 146.764 197.903C146.575 197.422 146.295 197.045 145.923 196.773C145.552 196.5 145.094 196.364 144.548 196.364C143.98 196.364 143.507 196.508 143.128 196.795C142.753 197.083 142.471 197.47 142.281 197.955C142.096 198.439 142.003 198.977 142.003 199.568C142.003 200.174 142.098 200.71 142.287 201.176C142.48 201.638 142.764 202.002 143.139 202.267C143.518 202.528 143.988 202.659 144.548 202.659ZM159.389 192.364V204H157.98V193.841H157.912L155.071 195.727V194.295L157.98 192.364H159.389ZM166.827 192.364V204H165.418V193.841H165.349L162.509 195.727V194.295L165.418 192.364H166.827ZM174.696 204V195.273H175.991V196.636H176.105C176.287 196.17 176.58 195.809 176.986 195.551C177.391 195.29 177.878 195.159 178.446 195.159C179.022 195.159 179.501 195.29 179.884 195.551C180.27 195.809 180.571 196.17 180.787 196.636H180.878C181.101 196.186 181.437 195.828 181.884 195.562C182.33 195.294 182.866 195.159 183.491 195.159C184.272 195.159 184.91 195.403 185.406 195.892C185.902 196.377 186.151 197.133 186.151 198.159V204H184.81V198.159C184.81 197.515 184.634 197.055 184.281 196.778C183.929 196.502 183.514 196.364 183.037 196.364C182.423 196.364 181.948 196.549 181.611 196.92C181.274 197.288 181.105 197.754 181.105 198.318V204H179.741V198.023C179.741 197.527 179.58 197.127 179.259 196.824C178.937 196.517 178.522 196.364 178.014 196.364C177.666 196.364 177.34 196.456 177.037 196.642C176.738 196.828 176.495 197.085 176.31 197.415C176.128 197.741 176.037 198.117 176.037 198.545V204H174.696ZM192.148 204.182C191.36 204.182 190.669 203.994 190.074 203.619C189.483 203.244 189.021 202.72 188.688 202.045C188.358 201.371 188.193 200.583 188.193 199.682C188.193 198.773 188.358 197.979 188.688 197.301C189.021 196.623 189.483 196.097 190.074 195.722C190.669 195.347 191.36 195.159 192.148 195.159C192.936 195.159 193.625 195.347 194.216 195.722C194.811 196.097 195.273 196.623 195.602 197.301C195.936 197.979 196.102 198.773 196.102 199.682C196.102 200.583 195.936 201.371 195.602 202.045C195.273 202.72 194.811 203.244 194.216 203.619C193.625 203.994 192.936 204.182 192.148 204.182ZM192.148 202.977C192.746 202.977 193.239 202.824 193.625 202.517C194.011 202.21 194.297 201.807 194.483 201.307C194.669 200.807 194.761 200.265 194.761 199.682C194.761 199.098 194.669 198.555 194.483 198.051C194.297 197.547 194.011 197.14 193.625 196.83C193.239 196.519 192.746 196.364 192.148 196.364C191.549 196.364 191.057 196.519 190.67 196.83C190.284 197.14 189.998 197.547 189.812 198.051C189.627 198.555 189.534 199.098 189.534 199.682C189.534 200.265 189.627 200.807 189.812 201.307C189.998 201.807 190.284 202.21 190.67 202.517C191.057 202.824 191.549 202.977 192.148 202.977ZM199.49 198.75V204H198.149V195.273H199.445V196.636H199.558C199.763 196.193 200.073 195.837 200.49 195.568C200.907 195.295 201.445 195.159 202.104 195.159C202.695 195.159 203.212 195.28 203.655 195.523C204.098 195.761 204.443 196.125 204.689 196.614C204.935 197.098 205.058 197.712 205.058 198.455V204H203.717V198.545C203.717 197.86 203.539 197.326 203.183 196.943C202.827 196.557 202.339 196.364 201.717 196.364C201.289 196.364 200.907 196.456 200.57 196.642C200.236 196.828 199.973 197.098 199.78 197.455C199.587 197.811 199.49 198.242 199.49 198.75ZM211.304 195.273V196.409H206.781V195.273H211.304ZM208.099 193.182H209.44V201.5C209.44 201.879 209.495 202.163 209.605 202.352C209.719 202.538 209.863 202.663 210.037 202.727C210.215 202.788 210.402 202.818 210.599 202.818C210.747 202.818 210.868 202.811 210.963 202.795C211.058 202.777 211.134 202.761 211.19 202.75L211.463 203.955C211.372 203.989 211.245 204.023 211.082 204.057C210.92 204.095 210.713 204.114 210.463 204.114C210.084 204.114 209.713 204.032 209.349 203.869C208.99 203.706 208.69 203.458 208.452 203.125C208.217 202.792 208.099 202.371 208.099 201.864V193.182ZM214.849 198.75V204H213.509V192.364H214.849V196.636H214.963C215.168 196.186 215.474 195.828 215.884 195.562C216.296 195.294 216.846 195.159 217.531 195.159C218.126 195.159 218.647 195.278 219.094 195.517C219.541 195.752 219.887 196.114 220.134 196.602C220.384 197.087 220.509 197.705 220.509 198.455V204H219.168V198.545C219.168 197.852 218.988 197.316 218.628 196.938C218.272 196.555 217.777 196.364 217.145 196.364C216.705 196.364 216.312 196.456 215.963 196.642C215.618 196.828 215.346 197.098 215.145 197.455C214.948 197.811 214.849 198.242 214.849 198.75ZM229.143 197.227L227.939 197.568C227.863 197.367 227.751 197.172 227.604 196.983C227.46 196.79 227.263 196.631 227.013 196.506C226.763 196.381 226.443 196.318 226.053 196.318C225.518 196.318 225.073 196.441 224.717 196.688C224.365 196.93 224.189 197.239 224.189 197.614C224.189 197.947 224.31 198.21 224.553 198.403C224.795 198.597 225.174 198.758 225.689 198.886L226.984 199.205C227.765 199.394 228.346 199.684 228.729 200.074C229.111 200.46 229.303 200.958 229.303 201.568C229.303 202.068 229.159 202.515 228.871 202.909C228.587 203.303 228.189 203.614 227.678 203.841C227.166 204.068 226.571 204.182 225.893 204.182C225.003 204.182 224.267 203.989 223.683 203.602C223.1 203.216 222.731 202.652 222.575 201.909L223.848 201.591C223.969 202.061 224.198 202.413 224.536 202.648C224.876 202.883 225.321 203 225.871 203C226.496 203 226.992 202.867 227.359 202.602C227.731 202.333 227.916 202.011 227.916 201.636C227.916 201.333 227.81 201.08 227.598 200.875C227.386 200.667 227.06 200.511 226.621 200.409L225.166 200.068C224.367 199.879 223.78 199.585 223.405 199.188C223.034 198.786 222.848 198.284 222.848 197.682C222.848 197.189 222.986 196.754 223.263 196.375C223.543 195.996 223.924 195.699 224.405 195.483C224.89 195.267 225.439 195.159 226.053 195.159C226.916 195.159 227.594 195.348 228.087 195.727C228.583 196.106 228.935 196.606 229.143 197.227Z" fill="black"/>
</svg>
