<svg width="448" height="301" viewBox="0 0 448 301" fill="none" xmlns="http://www.w3.org/2000/svg">
<rect width="448" height="301" fill="white"/>
<path d="M340.5 151.5C340.5 224.4 281.18 283.5 208 283.5C134.82 283.5 75.5 224.4 75.5 151.5C75.5 78.6002 134.82 19.5 208 19.5C281.18 19.5 340.5 78.6002 340.5 151.5Z" fill="#D9D9D9" stroke="black"/>
<path d="M340.5 151.5C340.5 224.4 281.18 283.5 208 283.5C134.82 283.5 75.5 224.4 75.5 151.5C75.5 78.6002 134.82 19.5 208 19.5C281.18 19.5 340.5 78.6002 340.5 151.5Z" fill="#D9D9D9" stroke="black"/>
<path d="M244.409 222.364H246.091L250.045 232.023H250.182L254.136 222.364H255.818V234H254.5V225.159H254.386L250.75 234H249.477L245.841 225.159H245.727V234H244.409V222.364ZM262.007 234.182C261.219 234.182 260.528 233.994 259.933 233.619C259.342 233.244 258.88 232.72 258.547 232.045C258.217 231.371 258.053 230.583 258.053 229.682C258.053 228.773 258.217 227.979 258.547 227.301C258.88 226.623 259.342 226.097 259.933 225.722C260.528 225.347 261.219 225.159 262.007 225.159C262.795 225.159 263.484 225.347 264.075 225.722C264.67 226.097 265.132 226.623 265.462 227.301C265.795 227.979 265.962 228.773 265.962 229.682C265.962 230.583 265.795 231.371 265.462 232.045C265.132 232.72 264.67 233.244 264.075 233.619C263.484 233.994 262.795 234.182 262.007 234.182ZM262.007 232.977C262.606 232.977 263.098 232.824 263.484 232.517C263.871 232.21 264.157 231.807 264.342 231.307C264.528 230.807 264.621 230.265 264.621 229.682C264.621 229.098 264.528 228.555 264.342 228.051C264.157 227.547 263.871 227.14 263.484 226.83C263.098 226.519 262.606 226.364 262.007 226.364C261.409 226.364 260.916 226.519 260.53 226.83C260.143 227.14 259.857 227.547 259.672 228.051C259.486 228.555 259.393 229.098 259.393 229.682C259.393 230.265 259.486 230.807 259.672 231.307C259.857 231.807 260.143 232.21 260.53 232.517C260.916 232.824 261.409 232.977 262.007 232.977ZM269.349 228.75V234H268.009V225.273H269.304V226.636H269.418C269.622 226.193 269.933 225.837 270.349 225.568C270.766 225.295 271.304 225.159 271.963 225.159C272.554 225.159 273.071 225.28 273.514 225.523C273.957 225.761 274.302 226.125 274.548 226.614C274.795 227.098 274.918 227.712 274.918 228.455V234H273.577V228.545C273.577 227.86 273.399 227.326 273.043 226.943C272.687 226.557 272.198 226.364 271.577 226.364C271.149 226.364 270.766 226.456 270.429 226.642C270.096 226.828 269.832 227.098 269.639 227.455C269.446 227.811 269.349 228.242 269.349 228.75ZM281.163 225.273V226.409H276.641V225.273H281.163ZM277.959 223.182H279.3V231.5C279.3 231.879 279.355 232.163 279.464 232.352C279.578 232.538 279.722 232.663 279.896 232.727C280.074 232.788 280.262 232.818 280.459 232.818C280.607 232.818 280.728 232.811 280.822 232.795C280.917 232.777 280.993 232.761 281.05 232.75L281.322 233.955C281.232 233.989 281.105 234.023 280.942 234.057C280.779 234.095 280.572 234.114 280.322 234.114C279.944 234.114 279.572 234.032 279.209 233.869C278.849 233.706 278.55 233.458 278.311 233.125C278.076 232.792 277.959 232.371 277.959 231.864V223.182ZM284.709 228.75V234H283.368V222.364H284.709V226.636H284.822C285.027 226.186 285.334 225.828 285.743 225.562C286.156 225.294 286.705 225.159 287.391 225.159C287.985 225.159 288.506 225.278 288.953 225.517C289.4 225.752 289.747 226.114 289.993 226.602C290.243 227.087 290.368 227.705 290.368 228.455V234H289.027V228.545C289.027 227.852 288.847 227.316 288.487 226.938C288.131 226.555 287.637 226.364 287.004 226.364C286.565 226.364 286.171 226.456 285.822 226.642C285.478 226.828 285.205 227.098 285.004 227.455C284.807 227.811 284.709 228.242 284.709 228.75ZM294.162 222.364V234H292.821V222.364H294.162ZM297.482 237.273C297.254 237.273 297.052 237.254 296.874 237.216C296.696 237.182 296.572 237.148 296.504 237.114L296.845 235.932C297.171 236.015 297.459 236.045 297.709 236.023C297.959 236 298.18 235.888 298.374 235.688C298.571 235.491 298.75 235.17 298.913 234.727L299.163 234.045L295.936 225.273H297.391L299.8 232.227H299.891L302.3 225.273H303.754L300.05 235.273C299.883 235.723 299.677 236.097 299.43 236.392C299.184 236.691 298.898 236.913 298.572 237.057C298.25 237.201 297.887 237.273 297.482 237.273Z" fill="black"/>
<line x1="75" y1="151.5" x2="341" y2="151.5" stroke="black"/>
<path d="M52.7727 82.2727C52.7045 81.697 52.428 81.25 51.9432 80.9318C51.4583 80.6136 50.8636 80.4545 50.1591 80.4545C49.6439 80.4545 49.1932 80.5379 48.8068 80.7045C48.4242 80.8712 48.125 81.1004 47.9091 81.392C47.697 81.6837 47.5909 82.0152 47.5909 82.3864C47.5909 82.697 47.6648 82.964 47.8125 83.1875C47.964 83.4072 48.1572 83.5909 48.392 83.7386C48.6269 83.8826 48.8731 84.0019 49.1307 84.0966C49.3883 84.1875 49.625 84.2614 49.8409 84.3182L51.0227 84.6364C51.3258 84.7159 51.6629 84.8258 52.0341 84.9659C52.4091 85.1061 52.767 85.2973 53.108 85.5398C53.4527 85.7784 53.7367 86.0852 53.9602 86.4602C54.1837 86.8352 54.2955 87.2955 54.2955 87.8409C54.2955 88.4697 54.1307 89.0379 53.8011 89.5455C53.4754 90.053 52.9981 90.4564 52.3693 90.7557C51.7443 91.0549 50.9848 91.2045 50.0909 91.2045C49.2576 91.2045 48.536 91.0701 47.9261 90.8011C47.3201 90.5322 46.8428 90.1572 46.4943 89.6761C46.1496 89.1951 45.9545 88.6364 45.9091 88H47.3636C47.4015 88.4394 47.5492 88.803 47.8068 89.0909C48.0682 89.375 48.3977 89.5871 48.7955 89.7273C49.197 89.8636 49.6288 89.9318 50.0909 89.9318C50.6288 89.9318 51.1117 89.8447 51.5398 89.6705C51.9678 89.4924 52.3068 89.2462 52.5568 88.9318C52.8068 88.6136 52.9318 88.2424 52.9318 87.8182C52.9318 87.4318 52.8239 87.1174 52.608 86.875C52.392 86.6326 52.108 86.4356 51.7557 86.2841C51.4034 86.1326 51.0227 86 50.6136 85.8864L49.1818 85.4773C48.2727 85.2159 47.553 84.8428 47.0227 84.358C46.4924 83.8731 46.2273 83.2386 46.2273 82.4545C46.2273 81.803 46.4034 81.2348 46.7557 80.75C47.1117 80.2614 47.589 79.8826 48.1875 79.6136C48.7898 79.3409 49.4621 79.2045 50.2045 79.2045C50.9545 79.2045 51.6212 79.339 52.2045 79.608C52.7879 79.8731 53.25 80.2367 53.5909 80.6989C53.9356 81.161 54.1174 81.6856 54.1364 82.2727H52.7727ZM56.4304 94.2727V82.2727H57.7259V83.6591H57.8849C57.9834 83.5076 58.1198 83.3144 58.294 83.0795C58.4721 82.8409 58.7259 82.6288 59.0554 82.4432C59.3887 82.2538 59.8395 82.1591 60.4077 82.1591C61.1425 82.1591 61.7902 82.3428 62.3509 82.7102C62.9115 83.0777 63.349 83.5985 63.6634 84.2727C63.9777 84.947 64.1349 85.7424 64.1349 86.6591C64.1349 87.5833 63.9777 88.3845 63.6634 89.0625C63.349 89.7367 62.9134 90.2595 62.3565 90.6307C61.7997 90.9981 61.1577 91.1818 60.4304 91.1818C59.8698 91.1818 59.4209 91.089 59.0838 90.9034C58.7467 90.714 58.4872 90.5 58.3054 90.2614C58.1236 90.0189 57.9834 89.8182 57.8849 89.6591H57.7713V94.2727H56.4304ZM57.7486 86.6364C57.7486 87.2955 57.8452 87.8769 58.0384 88.3807C58.2315 88.8807 58.5137 89.2727 58.8849 89.5568C59.2562 89.8371 59.7107 89.9773 60.2486 89.9773C60.8092 89.9773 61.277 89.8295 61.652 89.5341C62.0308 89.2348 62.3149 88.8333 62.5043 88.3295C62.6974 87.822 62.794 87.2576 62.794 86.6364C62.794 86.0227 62.6993 85.4697 62.5099 84.9773C62.3243 84.4811 62.0421 84.089 61.6634 83.8011C61.2884 83.5095 60.8168 83.3636 60.2486 83.3636C59.7031 83.3636 59.2448 83.5019 58.8736 83.7784C58.5024 84.0511 58.2221 84.4337 58.0327 84.9261C57.8433 85.4148 57.7486 85.9848 57.7486 86.6364ZM68.7486 91.2045C68.1955 91.2045 67.6937 91.1004 67.2429 90.892C66.7921 90.6799 66.4342 90.375 66.169 89.9773C65.9039 89.5758 65.7713 89.0909 65.7713 88.5227C65.7713 88.0227 65.8698 87.6174 66.0668 87.3068C66.2637 86.9924 66.527 86.7462 66.8565 86.5682C67.1861 86.3902 67.5497 86.2576 67.9474 86.1705C68.349 86.0795 68.7524 86.0076 69.1577 85.9545C69.688 85.8864 70.1179 85.8352 70.4474 85.8011C70.7808 85.7633 71.0232 85.7008 71.1747 85.6136C71.33 85.5265 71.4077 85.375 71.4077 85.1591V85.1136C71.4077 84.553 71.2543 84.1174 70.9474 83.8068C70.6444 83.4962 70.1842 83.3409 69.5668 83.3409C68.9266 83.3409 68.4247 83.4811 68.0611 83.7614C67.6974 84.0417 67.4418 84.3409 67.294 84.6591L66.0213 84.2045C66.2486 83.6742 66.5516 83.2614 66.9304 82.9659C67.313 82.6667 67.7296 82.4583 68.1804 82.3409C68.6349 82.2197 69.0819 82.1591 69.5213 82.1591C69.8016 82.1591 70.1236 82.1932 70.4872 82.2614C70.8546 82.3258 71.2088 82.4602 71.5497 82.6648C71.8944 82.8693 72.1804 83.178 72.4077 83.5909C72.6349 84.0038 72.7486 84.5568 72.7486 85.25V91H71.4077V89.8182H71.3395C71.2486 90.0076 71.0971 90.2102 70.8849 90.4261C70.6728 90.642 70.3906 90.8258 70.0384 90.9773C69.6861 91.1288 69.2562 91.2045 68.7486 91.2045ZM68.9531 90C69.4834 90 69.9304 89.8958 70.294 89.6875C70.6615 89.4792 70.938 89.2102 71.1236 88.8807C71.313 88.5511 71.4077 88.2045 71.4077 87.8409V86.6136C71.3509 86.6818 71.2259 86.7443 71.0327 86.8011C70.8433 86.8542 70.6236 86.9015 70.3736 86.9432C70.1274 86.9811 69.8868 87.0152 69.652 87.0455C69.4209 87.072 69.2334 87.0947 69.0895 87.1136C68.741 87.1591 68.4152 87.233 68.1122 87.3352C67.813 87.4337 67.5705 87.5833 67.3849 87.7841C67.2031 87.9811 67.1122 88.25 67.1122 88.5909C67.1122 89.0568 67.2846 89.4091 67.6293 89.6477C67.9777 89.8826 68.419 90 68.9531 90ZM76.5369 85.75V91H75.196V82.2727H76.4915V83.6364H76.6051C76.8097 83.1932 77.1203 82.8371 77.5369 82.5682C77.9536 82.2955 78.4915 82.1591 79.1506 82.1591C79.7415 82.1591 80.2585 82.2803 80.7017 82.5227C81.1449 82.7614 81.4896 83.125 81.7358 83.6136C81.982 84.0985 82.1051 84.7121 82.1051 85.4545V91H80.7642V85.5455C80.7642 84.8598 80.5862 84.3258 80.2301 83.9432C79.8741 83.5568 79.3854 83.3636 78.7642 83.3636C78.3362 83.3636 77.9536 83.4564 77.6165 83.642C77.2831 83.8277 77.0199 84.0985 76.8267 84.4545C76.6335 84.8106 76.5369 85.2424 76.5369 85.75ZM85.8963 85.75V91H84.5554V82.2727H85.8509V83.6364H85.9645C86.169 83.1932 86.4796 82.8371 86.8963 82.5682C87.313 82.2955 87.8509 82.1591 88.5099 82.1591C89.1009 82.1591 89.6179 82.2803 90.0611 82.5227C90.5043 82.7614 90.849 83.125 91.0952 83.6136C91.3414 84.0985 91.4645 84.7121 91.4645 85.4545V91H90.1236V85.5455C90.1236 84.8598 89.9455 84.3258 89.5895 83.9432C89.2334 83.5568 88.7448 83.3636 88.1236 83.3636C87.6955 83.3636 87.313 83.4564 86.9759 83.642C86.6425 83.8277 86.3793 84.0985 86.1861 84.4545C85.9929 84.8106 85.8963 85.2424 85.8963 85.75ZM93.9148 91V82.2727H95.2557V91H93.9148ZM94.5966 80.8182C94.3352 80.8182 94.1098 80.7292 93.9205 80.5511C93.7348 80.3731 93.642 80.1591 93.642 79.9091C93.642 79.6591 93.7348 79.4451 93.9205 79.267C94.1098 79.089 94.3352 79 94.5966 79C94.858 79 95.0814 79.089 95.267 79.267C95.4564 79.4451 95.5511 79.6591 95.5511 79.9091C95.5511 80.1591 95.4564 80.3731 95.267 80.5511C95.0814 80.7292 94.858 80.8182 94.5966 80.8182ZM99.0526 85.75V91H97.7116V82.2727H99.0071V83.6364H99.1207C99.3253 83.1932 99.6359 82.8371 100.053 82.5682C100.469 82.2955 101.007 82.1591 101.666 82.1591C102.257 82.1591 102.774 82.2803 103.217 82.5227C103.661 82.7614 104.005 83.125 104.251 83.6136C104.498 84.0985 104.621 84.7121 104.621 85.4545V91H103.28V85.5455C103.28 84.8598 103.102 84.3258 102.746 83.9432C102.39 83.5568 101.901 83.3636 101.28 83.3636C100.852 83.3636 100.469 83.4564 100.132 83.642C99.7988 83.8277 99.5355 84.0985 99.3423 84.4545C99.1491 84.8106 99.0526 85.2424 99.0526 85.75ZM110.594 94.4545C109.946 94.4545 109.389 94.3712 108.923 94.2045C108.457 94.0417 108.069 93.8258 107.759 93.5568C107.452 93.2917 107.207 93.0076 107.026 92.7045L108.094 91.9545C108.215 92.1136 108.368 92.2955 108.554 92.5C108.74 92.7083 108.993 92.8883 109.315 93.0398C109.641 93.1951 110.067 93.2727 110.594 93.2727C111.298 93.2727 111.88 93.1023 112.338 92.7614C112.796 92.4205 113.026 91.8864 113.026 91.1591V89.3864H112.912C112.813 89.5455 112.673 89.7424 112.491 89.9773C112.313 90.2083 112.056 90.4148 111.719 90.5966C111.385 90.7746 110.935 90.8636 110.366 90.8636C109.662 90.8636 109.029 90.697 108.469 90.3636C107.912 90.0303 107.471 89.5455 107.145 88.9091C106.823 88.2727 106.662 87.5 106.662 86.5909C106.662 85.697 106.819 84.9186 107.134 84.2557C107.448 83.589 107.885 83.0739 108.446 82.7102C109.007 82.3428 109.654 82.1591 110.389 82.1591C110.957 82.1591 111.408 82.2538 111.741 82.4432C112.079 82.6288 112.336 82.8409 112.514 83.0795C112.696 83.3144 112.836 83.5076 112.935 83.6591H113.071V82.2727H114.366V91.25C114.366 92 114.196 92.6098 113.855 93.0795C113.518 93.553 113.063 93.8996 112.491 94.1193C111.923 94.3428 111.291 94.4545 110.594 94.4545ZM110.548 89.6591C111.086 89.6591 111.541 89.536 111.912 89.2898C112.283 89.0436 112.565 88.6894 112.759 88.2273C112.952 87.7652 113.048 87.2121 113.048 86.5682C113.048 85.9394 112.954 85.3845 112.764 84.9034C112.575 84.4223 112.295 84.0455 111.923 83.7727C111.552 83.5 111.094 83.3636 110.548 83.3636C109.98 83.3636 109.507 83.5076 109.128 83.7955C108.753 84.0833 108.471 84.4697 108.281 84.9545C108.096 85.4394 108.003 85.9773 108.003 86.5682C108.003 87.1742 108.098 87.7102 108.287 88.1761C108.48 88.6383 108.764 89.0019 109.139 89.267C109.518 89.5284 109.988 89.6591 110.548 89.6591ZM121.298 91V89.9773L125.139 85.7727C125.59 85.2803 125.961 84.8523 126.253 84.4886C126.545 84.1212 126.76 83.7765 126.901 83.4545C127.045 83.1288 127.116 82.7879 127.116 82.4318C127.116 82.0227 127.018 81.6686 126.821 81.3693C126.628 81.0701 126.363 80.839 126.026 80.6761C125.688 80.5133 125.31 80.4318 124.889 80.4318C124.442 80.4318 124.052 80.5246 123.719 80.7102C123.389 80.892 123.134 81.1477 122.952 81.4773C122.774 81.8068 122.685 82.1932 122.685 82.6364H121.344C121.344 81.9545 121.501 81.3561 121.815 80.8409C122.13 80.3258 122.558 79.9242 123.099 79.6364C123.645 79.3485 124.257 79.2045 124.935 79.2045C125.616 79.2045 126.221 79.3485 126.747 79.6364C127.274 79.9242 127.687 80.3125 127.986 80.8011C128.285 81.2898 128.435 81.8333 128.435 82.4318C128.435 82.8598 128.357 83.2784 128.202 83.6875C128.05 84.0928 127.785 84.5455 127.406 85.0455C127.031 85.5417 126.51 86.1477 125.844 86.8636L123.23 89.6591V89.75H128.639V91H121.298ZM135.509 91V82.2727H136.804V83.6364H136.918C137.099 83.1705 137.393 82.8087 137.798 82.5511C138.204 82.2898 138.69 82.1591 139.259 82.1591C139.834 82.1591 140.313 82.2898 140.696 82.5511C141.082 82.8087 141.384 83.1705 141.599 83.6364H141.69C141.914 83.1856 142.249 82.8277 142.696 82.5625C143.143 82.2936 143.679 82.1591 144.304 82.1591C145.084 82.1591 145.723 82.4034 146.219 82.892C146.715 83.3769 146.963 84.1326 146.963 85.1591V91H145.622V85.1591C145.622 84.5152 145.446 84.0549 145.094 83.7784C144.741 83.5019 144.327 83.3636 143.849 83.3636C143.236 83.3636 142.76 83.5492 142.423 83.9205C142.086 84.2879 141.918 84.7538 141.918 85.3182V91H140.554V85.0227C140.554 84.5265 140.393 84.1269 140.071 83.8239C139.749 83.517 139.334 83.3636 138.827 83.3636C138.478 83.3636 138.152 83.4564 137.849 83.642C137.55 83.8277 137.308 84.0852 137.122 84.4148C136.94 84.7405 136.849 85.1174 136.849 85.5455V91H135.509ZM152.96 91.1818C152.172 91.1818 151.481 90.9943 150.886 90.6193C150.295 90.2443 149.833 89.7197 149.5 89.0455C149.17 88.3712 149.006 87.5833 149.006 86.6818C149.006 85.7727 149.17 84.9792 149.5 84.3011C149.833 83.6231 150.295 83.0966 150.886 82.7216C151.481 82.3466 152.172 82.1591 152.96 82.1591C153.748 82.1591 154.438 82.3466 155.028 82.7216C155.623 83.0966 156.085 83.6231 156.415 84.3011C156.748 84.9792 156.915 85.7727 156.915 86.6818C156.915 87.5833 156.748 88.3712 156.415 89.0455C156.085 89.7197 155.623 90.2443 155.028 90.6193C154.438 90.9943 153.748 91.1818 152.96 91.1818ZM152.96 89.9773C153.559 89.9773 154.051 89.8239 154.438 89.517C154.824 89.2102 155.11 88.8068 155.295 88.3068C155.481 87.8068 155.574 87.2652 155.574 86.6818C155.574 86.0985 155.481 85.5549 155.295 85.0511C155.11 84.5473 154.824 84.1402 154.438 83.8295C154.051 83.5189 153.559 83.3636 152.96 83.3636C152.362 83.3636 151.869 83.5189 151.483 83.8295C151.097 84.1402 150.811 84.5473 150.625 85.0511C150.439 85.5549 150.347 86.0985 150.347 86.6818C150.347 87.2652 150.439 87.8068 150.625 88.3068C150.811 88.8068 151.097 89.2102 151.483 89.517C151.869 89.8239 152.362 89.9773 152.96 89.9773ZM160.303 85.75V91H158.962V82.2727H160.257V83.6364H160.371C160.575 83.1932 160.886 82.8371 161.303 82.5682C161.719 82.2955 162.257 82.1591 162.916 82.1591C163.507 82.1591 164.024 82.2803 164.467 82.5227C164.911 82.7614 165.255 83.125 165.501 83.6136C165.748 84.0985 165.871 84.7121 165.871 85.4545V91H164.53V85.5455C164.53 84.8598 164.352 84.3258 163.996 83.9432C163.64 83.5568 163.151 83.3636 162.53 83.3636C162.102 83.3636 161.719 83.4564 161.382 83.642C161.049 83.8277 160.786 84.0985 160.592 84.4545C160.399 84.8106 160.303 85.2424 160.303 85.75ZM172.116 82.2727V83.4091H167.594V82.2727H172.116ZM168.912 80.1818H170.253V88.5C170.253 88.8788 170.308 89.1629 170.418 89.3523C170.531 89.5379 170.675 89.6629 170.849 89.7273C171.027 89.7879 171.215 89.8182 171.412 89.8182C171.56 89.8182 171.681 89.8106 171.776 89.7955C171.87 89.7765 171.946 89.7614 172.003 89.75L172.276 90.9545C172.185 90.9886 172.058 91.0227 171.895 91.0568C171.732 91.0947 171.526 91.1136 171.276 91.1136C170.897 91.1136 170.526 91.0322 170.162 90.8693C169.802 90.7064 169.503 90.4583 169.264 90.125C169.029 89.7917 168.912 89.3712 168.912 88.8636V80.1818ZM175.662 85.75V91H174.321V79.3636H175.662V83.6364H175.776C175.98 83.1856 176.287 82.8277 176.696 82.5625C177.109 82.2936 177.658 82.1591 178.344 82.1591C178.938 82.1591 179.459 82.2784 179.906 82.517C180.353 82.7519 180.7 83.1136 180.946 83.6023C181.196 84.0871 181.321 84.7045 181.321 85.4545V91H179.98V85.5455C179.98 84.8523 179.8 84.3163 179.44 83.9375C179.084 83.5549 178.59 83.3636 177.957 83.3636C177.518 83.3636 177.124 83.4564 176.776 83.642C176.431 83.8277 176.158 84.0985 175.957 84.4545C175.76 84.8106 175.662 85.2424 175.662 85.75ZM189.956 84.2273L188.751 84.5682C188.676 84.3674 188.564 84.1723 188.416 83.983C188.272 83.7898 188.075 83.6307 187.825 83.5057C187.575 83.3807 187.255 83.3182 186.865 83.3182C186.331 83.3182 185.886 83.4413 185.53 83.6875C185.178 83.9299 185.001 84.2386 185.001 84.6136C185.001 84.947 185.123 85.2102 185.365 85.4034C185.607 85.5966 185.986 85.7576 186.501 85.8864L187.797 86.2045C188.577 86.3939 189.159 86.6837 189.541 87.0739C189.924 87.4602 190.115 87.9583 190.115 88.5682C190.115 89.0682 189.971 89.5152 189.683 89.9091C189.399 90.303 189.001 90.6136 188.49 90.8409C187.979 91.0682 187.384 91.1818 186.706 91.1818C185.816 91.1818 185.079 90.9886 184.496 90.6023C183.912 90.2159 183.543 89.6515 183.388 88.9091L184.661 88.5909C184.782 89.0606 185.011 89.4129 185.348 89.6477C185.689 89.8826 186.134 90 186.683 90C187.308 90 187.804 89.8674 188.172 89.6023C188.543 89.3333 188.729 89.0114 188.729 88.6364C188.729 88.3333 188.623 88.0795 188.411 87.875C188.198 87.6667 187.873 87.5114 187.433 87.4091L185.979 87.0682C185.179 86.8788 184.592 86.5852 184.217 86.1875C183.846 85.786 183.661 85.2841 183.661 84.6818C183.661 84.1894 183.799 83.7538 184.075 83.375C184.356 82.9962 184.736 82.6989 185.217 82.483C185.702 82.267 186.251 82.1591 186.865 82.1591C187.729 82.1591 188.407 82.3485 188.899 82.7273C189.395 83.1061 189.748 83.6061 189.956 84.2273Z" fill="black"/>
<path d="M121.523 237L118.341 225.364H119.773L122.205 234.841H122.318L124.795 225.364H126.386L128.864 234.841H128.977L131.409 225.364H132.841L129.659 237H128.205L125.636 227.727H125.545L122.977 237H121.523ZM137.261 237.182C136.42 237.182 135.695 236.996 135.085 236.625C134.479 236.25 134.011 235.727 133.682 235.057C133.356 234.383 133.193 233.598 133.193 232.705C133.193 231.811 133.356 231.023 133.682 230.341C134.011 229.655 134.47 229.121 135.057 228.739C135.648 228.352 136.337 228.159 137.125 228.159C137.58 228.159 138.028 228.235 138.472 228.386C138.915 228.538 139.318 228.784 139.682 229.125C140.045 229.462 140.335 229.909 140.551 230.466C140.767 231.023 140.875 231.708 140.875 232.523V233.091H134.148V231.932H139.511C139.511 231.439 139.413 231 139.216 230.614C139.023 230.227 138.746 229.922 138.386 229.699C138.03 229.475 137.61 229.364 137.125 229.364C136.591 229.364 136.129 229.496 135.739 229.761C135.352 230.023 135.055 230.364 134.847 230.784C134.638 231.205 134.534 231.655 134.534 232.136V232.909C134.534 233.568 134.648 234.127 134.875 234.585C135.106 235.04 135.426 235.386 135.835 235.625C136.244 235.86 136.72 235.977 137.261 235.977C137.614 235.977 137.932 235.928 138.216 235.83C138.504 235.727 138.752 235.576 138.96 235.375C139.169 235.17 139.33 234.917 139.443 234.614L140.739 234.977C140.602 235.417 140.373 235.803 140.051 236.136C139.729 236.466 139.331 236.723 138.858 236.909C138.384 237.091 137.852 237.182 137.261 237.182ZM146.574 237.182C145.733 237.182 145.008 236.996 144.398 236.625C143.792 236.25 143.324 235.727 142.994 235.057C142.669 234.383 142.506 233.598 142.506 232.705C142.506 231.811 142.669 231.023 142.994 230.341C143.324 229.655 143.782 229.121 144.369 228.739C144.96 228.352 145.65 228.159 146.438 228.159C146.892 228.159 147.341 228.235 147.784 228.386C148.227 228.538 148.631 228.784 148.994 229.125C149.358 229.462 149.648 229.909 149.864 230.466C150.08 231.023 150.188 231.708 150.188 232.523V233.091H143.46V231.932H148.824C148.824 231.439 148.725 231 148.528 230.614C148.335 230.227 148.059 229.922 147.699 229.699C147.343 229.475 146.922 229.364 146.438 229.364C145.903 229.364 145.441 229.496 145.051 229.761C144.665 230.023 144.367 230.364 144.159 230.784C143.951 231.205 143.847 231.655 143.847 232.136V232.909C143.847 233.568 143.96 234.127 144.188 234.585C144.419 235.04 144.739 235.386 145.148 235.625C145.557 235.86 146.032 235.977 146.574 235.977C146.926 235.977 147.244 235.928 147.528 235.83C147.816 235.727 148.064 235.576 148.273 235.375C148.481 235.17 148.642 234.917 148.756 234.614L150.051 234.977C149.915 235.417 149.686 235.803 149.364 236.136C149.042 236.466 148.644 236.723 148.17 236.909C147.697 237.091 147.165 237.182 146.574 237.182ZM153.477 233.818L153.455 232.159H153.727L157.545 228.273H159.205L155.136 232.386H155.023L153.477 233.818ZM152.227 237V225.364H153.568V237H152.227ZM157.773 237L154.364 232.682L155.318 231.75L159.477 237H157.773ZM162.271 225.364V237H160.93V225.364H162.271ZM165.591 240.273C165.364 240.273 165.161 240.254 164.983 240.216C164.805 240.182 164.682 240.148 164.614 240.114L164.955 238.932C165.28 239.015 165.568 239.045 165.818 239.023C166.068 239 166.29 238.888 166.483 238.688C166.68 238.491 166.86 238.17 167.023 237.727L167.273 237.045L164.045 228.273H165.5L167.909 235.227H168L170.409 228.273H171.864L168.159 238.273C167.992 238.723 167.786 239.097 167.54 239.392C167.294 239.691 167.008 239.913 166.682 240.057C166.36 240.201 165.996 240.273 165.591 240.273Z" fill="black"/>
<line x1="208.5" y1="19" x2="208.5" y2="284" stroke="black"/>
<path d="M236.773 82.2727C236.705 81.697 236.428 81.25 235.943 80.9318C235.458 80.6136 234.864 80.4545 234.159 80.4545C233.644 80.4545 233.193 80.5379 232.807 80.7045C232.424 80.8712 232.125 81.1004 231.909 81.392C231.697 81.6837 231.591 82.0152 231.591 82.3864C231.591 82.697 231.665 82.964 231.812 83.1875C231.964 83.4072 232.157 83.5909 232.392 83.7386C232.627 83.8826 232.873 84.0019 233.131 84.0966C233.388 84.1875 233.625 84.2614 233.841 84.3182L235.023 84.6364C235.326 84.7159 235.663 84.8258 236.034 84.9659C236.409 85.1061 236.767 85.2973 237.108 85.5398C237.453 85.7784 237.737 86.0852 237.96 86.4602C238.184 86.8352 238.295 87.2955 238.295 87.8409C238.295 88.4697 238.131 89.0379 237.801 89.5455C237.475 90.053 236.998 90.4564 236.369 90.7557C235.744 91.0549 234.985 91.2045 234.091 91.2045C233.258 91.2045 232.536 91.0701 231.926 90.8011C231.32 90.5322 230.843 90.1572 230.494 89.6761C230.15 89.1951 229.955 88.6364 229.909 88H231.364C231.402 88.4394 231.549 88.803 231.807 89.0909C232.068 89.375 232.398 89.5871 232.795 89.7273C233.197 89.8636 233.629 89.9318 234.091 89.9318C234.629 89.9318 235.112 89.8447 235.54 89.6705C235.968 89.4924 236.307 89.2462 236.557 88.9318C236.807 88.6136 236.932 88.2424 236.932 87.8182C236.932 87.4318 236.824 87.1174 236.608 86.875C236.392 86.6326 236.108 86.4356 235.756 86.2841C235.403 86.1326 235.023 86 234.614 85.8864L233.182 85.4773C232.273 85.2159 231.553 84.8428 231.023 84.358C230.492 83.8731 230.227 83.2386 230.227 82.4545C230.227 81.803 230.403 81.2348 230.756 80.75C231.112 80.2614 231.589 79.8826 232.188 79.6136C232.79 79.3409 233.462 79.2045 234.205 79.2045C234.955 79.2045 235.621 79.339 236.205 79.608C236.788 79.8731 237.25 80.2367 237.591 80.6989C237.936 81.161 238.117 81.6856 238.136 82.2727H236.773ZM240.43 94.2727V82.2727H241.726V83.6591H241.885C241.983 83.5076 242.12 83.3144 242.294 83.0795C242.472 82.8409 242.726 82.6288 243.055 82.4432C243.389 82.2538 243.839 82.1591 244.408 82.1591C245.143 82.1591 245.79 82.3428 246.351 82.7102C246.911 83.0777 247.349 83.5985 247.663 84.2727C247.978 84.947 248.135 85.7424 248.135 86.6591C248.135 87.5833 247.978 88.3845 247.663 89.0625C247.349 89.7367 246.913 90.2595 246.357 90.6307C245.8 90.9981 245.158 91.1818 244.43 91.1818C243.87 91.1818 243.421 91.089 243.084 90.9034C242.747 90.714 242.487 90.5 242.305 90.2614C242.124 90.0189 241.983 89.8182 241.885 89.6591H241.771V94.2727H240.43ZM241.749 86.6364C241.749 87.2955 241.845 87.8769 242.038 88.3807C242.232 88.8807 242.514 89.2727 242.885 89.5568C243.256 89.8371 243.711 89.9773 244.249 89.9773C244.809 89.9773 245.277 89.8295 245.652 89.5341C246.031 89.2348 246.315 88.8333 246.504 88.3295C246.697 87.822 246.794 87.2576 246.794 86.6364C246.794 86.0227 246.699 85.4697 246.51 84.9773C246.324 84.4811 246.042 84.089 245.663 83.8011C245.288 83.5095 244.817 83.3636 244.249 83.3636C243.703 83.3636 243.245 83.5019 242.874 83.7784C242.502 84.0511 242.222 84.4337 242.033 84.9261C241.843 85.4148 241.749 85.9848 241.749 86.6364ZM252.749 91.2045C252.196 91.2045 251.694 91.1004 251.243 90.892C250.792 90.6799 250.434 90.375 250.169 89.9773C249.904 89.5758 249.771 89.0909 249.771 88.5227C249.771 88.0227 249.87 87.6174 250.067 87.3068C250.264 86.9924 250.527 86.7462 250.857 86.5682C251.186 86.3902 251.55 86.2576 251.947 86.1705C252.349 86.0795 252.752 86.0076 253.158 85.9545C253.688 85.8864 254.118 85.8352 254.447 85.8011C254.781 85.7633 255.023 85.7008 255.175 85.6136C255.33 85.5265 255.408 85.375 255.408 85.1591V85.1136C255.408 84.553 255.254 84.1174 254.947 83.8068C254.644 83.4962 254.184 83.3409 253.567 83.3409C252.927 83.3409 252.425 83.4811 252.061 83.7614C251.697 84.0417 251.442 84.3409 251.294 84.6591L250.021 84.2045C250.249 83.6742 250.552 83.2614 250.93 82.9659C251.313 82.6667 251.73 82.4583 252.18 82.3409C252.635 82.2197 253.082 82.1591 253.521 82.1591C253.802 82.1591 254.124 82.1932 254.487 82.2614C254.855 82.3258 255.209 82.4602 255.55 82.6648C255.894 82.8693 256.18 83.178 256.408 83.5909C256.635 84.0038 256.749 84.5568 256.749 85.25V91H255.408V89.8182H255.339C255.249 90.0076 255.097 90.2102 254.885 90.4261C254.673 90.642 254.391 90.8258 254.038 90.9773C253.686 91.1288 253.256 91.2045 252.749 91.2045ZM252.953 90C253.483 90 253.93 89.8958 254.294 89.6875C254.661 89.4792 254.938 89.2102 255.124 88.8807C255.313 88.5511 255.408 88.2045 255.408 87.8409V86.6136C255.351 86.6818 255.226 86.7443 255.033 86.8011C254.843 86.8542 254.624 86.9015 254.374 86.9432C254.127 86.9811 253.887 87.0152 253.652 87.0455C253.421 87.072 253.233 87.0947 253.089 87.1136C252.741 87.1591 252.415 87.233 252.112 87.3352C251.813 87.4337 251.571 87.5833 251.385 87.7841C251.203 87.9811 251.112 88.25 251.112 88.5909C251.112 89.0568 251.285 89.4091 251.629 89.6477C251.978 89.8826 252.419 90 252.953 90ZM260.537 85.75V91H259.196V82.2727H260.491V83.6364H260.605C260.81 83.1932 261.12 82.8371 261.537 82.5682C261.954 82.2955 262.491 82.1591 263.151 82.1591C263.741 82.1591 264.259 82.2803 264.702 82.5227C265.145 82.7614 265.49 83.125 265.736 83.6136C265.982 84.0985 266.105 84.7121 266.105 85.4545V91H264.764V85.5455C264.764 84.8598 264.586 84.3258 264.23 83.9432C263.874 83.5568 263.385 83.3636 262.764 83.3636C262.336 83.3636 261.954 83.4564 261.616 83.642C261.283 83.8277 261.02 84.0985 260.827 84.4545C260.634 84.8106 260.537 85.2424 260.537 85.75ZM269.896 85.75V91H268.555V82.2727H269.851V83.6364H269.964C270.169 83.1932 270.48 82.8371 270.896 82.5682C271.313 82.2955 271.851 82.1591 272.51 82.1591C273.101 82.1591 273.618 82.2803 274.061 82.5227C274.504 82.7614 274.849 83.125 275.095 83.6136C275.341 84.0985 275.464 84.7121 275.464 85.4545V91H274.124V85.5455C274.124 84.8598 273.946 84.3258 273.589 83.9432C273.233 83.5568 272.745 83.3636 272.124 83.3636C271.696 83.3636 271.313 83.4564 270.976 83.642C270.643 83.8277 270.379 84.0985 270.186 84.4545C269.993 84.8106 269.896 85.2424 269.896 85.75ZM277.915 91V82.2727H279.256V91H277.915ZM278.597 80.8182C278.335 80.8182 278.11 80.7292 277.92 80.5511C277.735 80.3731 277.642 80.1591 277.642 79.9091C277.642 79.6591 277.735 79.4451 277.92 79.267C278.11 79.089 278.335 79 278.597 79C278.858 79 279.081 79.089 279.267 79.267C279.456 79.4451 279.551 79.6591 279.551 79.9091C279.551 80.1591 279.456 80.3731 279.267 80.5511C279.081 80.7292 278.858 80.8182 278.597 80.8182ZM283.053 85.75V91H281.712V82.2727H283.007V83.6364H283.121C283.325 83.1932 283.636 82.8371 284.053 82.5682C284.469 82.2955 285.007 82.1591 285.666 82.1591C286.257 82.1591 286.774 82.2803 287.217 82.5227C287.661 82.7614 288.005 83.125 288.251 83.6136C288.498 84.0985 288.621 84.7121 288.621 85.4545V91H287.28V85.5455C287.28 84.8598 287.102 84.3258 286.746 83.9432C286.39 83.5568 285.901 83.3636 285.28 83.3636C284.852 83.3636 284.469 83.4564 284.132 83.642C283.799 83.8277 283.536 84.0985 283.342 84.4545C283.149 84.8106 283.053 85.2424 283.053 85.75ZM294.594 94.4545C293.946 94.4545 293.389 94.3712 292.923 94.2045C292.457 94.0417 292.069 93.8258 291.759 93.5568C291.452 93.2917 291.207 93.0076 291.026 92.7045L292.094 91.9545C292.215 92.1136 292.368 92.2955 292.554 92.5C292.74 92.7083 292.993 92.8883 293.315 93.0398C293.641 93.1951 294.067 93.2727 294.594 93.2727C295.298 93.2727 295.88 93.1023 296.338 92.7614C296.796 92.4205 297.026 91.8864 297.026 91.1591V89.3864H296.912C296.813 89.5455 296.673 89.7424 296.491 89.9773C296.313 90.2083 296.056 90.4148 295.719 90.5966C295.385 90.7746 294.935 90.8636 294.366 90.8636C293.662 90.8636 293.029 90.697 292.469 90.3636C291.912 90.0303 291.471 89.5455 291.145 88.9091C290.823 88.2727 290.662 87.5 290.662 86.5909C290.662 85.697 290.819 84.9186 291.134 84.2557C291.448 83.589 291.885 83.0739 292.446 82.7102C293.007 82.3428 293.654 82.1591 294.389 82.1591C294.957 82.1591 295.408 82.2538 295.741 82.4432C296.079 82.6288 296.336 82.8409 296.514 83.0795C296.696 83.3144 296.836 83.5076 296.935 83.6591H297.071V82.2727H298.366V91.25C298.366 92 298.196 92.6098 297.855 93.0795C297.518 93.553 297.063 93.8996 296.491 94.1193C295.923 94.3428 295.291 94.4545 294.594 94.4545ZM294.548 89.6591C295.086 89.6591 295.541 89.536 295.912 89.2898C296.283 89.0436 296.565 88.6894 296.759 88.2273C296.952 87.7652 297.048 87.2121 297.048 86.5682C297.048 85.9394 296.954 85.3845 296.764 84.9034C296.575 84.4223 296.295 84.0455 295.923 83.7727C295.552 83.5 295.094 83.3636 294.548 83.3636C293.98 83.3636 293.507 83.5076 293.128 83.7955C292.753 84.0833 292.471 84.4697 292.281 84.9545C292.096 85.4394 292.003 85.9773 292.003 86.5682C292.003 87.1742 292.098 87.7102 292.287 88.1761C292.48 88.6383 292.764 89.0019 293.139 89.267C293.518 89.5284 293.988 89.6591 294.548 89.6591ZM305.298 91V89.9773L309.139 85.7727C309.59 85.2803 309.961 84.8523 310.253 84.4886C310.545 84.1212 310.76 83.7765 310.901 83.4545C311.045 83.1288 311.116 82.7879 311.116 82.4318C311.116 82.0227 311.018 81.6686 310.821 81.3693C310.628 81.0701 310.363 80.839 310.026 80.6761C309.688 80.5133 309.31 80.4318 308.889 80.4318C308.442 80.4318 308.052 80.5246 307.719 80.7102C307.389 80.892 307.134 81.1477 306.952 81.4773C306.774 81.8068 306.685 82.1932 306.685 82.6364H305.344C305.344 81.9545 305.501 81.3561 305.815 80.8409C306.13 80.3258 306.558 79.9242 307.099 79.6364C307.645 79.3485 308.257 79.2045 308.935 79.2045C309.616 79.2045 310.221 79.3485 310.747 79.6364C311.274 79.9242 311.687 80.3125 311.986 80.8011C312.285 81.2898 312.435 81.8333 312.435 82.4318C312.435 82.8598 312.357 83.2784 312.202 83.6875C312.05 84.0928 311.785 84.5455 311.406 85.0455C311.031 85.5417 310.51 86.1477 309.844 86.8636L307.23 89.6591V89.75H312.639V91H305.298ZM319.509 91V82.2727H320.804V83.6364H320.918C321.099 83.1705 321.393 82.8087 321.798 82.5511C322.204 82.2898 322.69 82.1591 323.259 82.1591C323.834 82.1591 324.313 82.2898 324.696 82.5511C325.082 82.8087 325.384 83.1705 325.599 83.6364H325.69C325.914 83.1856 326.249 82.8277 326.696 82.5625C327.143 82.2936 327.679 82.1591 328.304 82.1591C329.084 82.1591 329.723 82.4034 330.219 82.892C330.715 83.3769 330.963 84.1326 330.963 85.1591V91H329.622V85.1591C329.622 84.5152 329.446 84.0549 329.094 83.7784C328.741 83.5019 328.327 83.3636 327.849 83.3636C327.236 83.3636 326.76 83.5492 326.423 83.9205C326.086 84.2879 325.918 84.7538 325.918 85.3182V91H324.554V85.0227C324.554 84.5265 324.393 84.1269 324.071 83.8239C323.749 83.517 323.334 83.3636 322.827 83.3636C322.478 83.3636 322.152 83.4564 321.849 83.642C321.55 83.8277 321.308 84.0852 321.122 84.4148C320.94 84.7405 320.849 85.1174 320.849 85.5455V91H319.509ZM336.96 91.1818C336.172 91.1818 335.481 90.9943 334.886 90.6193C334.295 90.2443 333.833 89.7197 333.5 89.0455C333.17 88.3712 333.006 87.5833 333.006 86.6818C333.006 85.7727 333.17 84.9792 333.5 84.3011C333.833 83.6231 334.295 83.0966 334.886 82.7216C335.481 82.3466 336.172 82.1591 336.96 82.1591C337.748 82.1591 338.438 82.3466 339.028 82.7216C339.623 83.0966 340.085 83.6231 340.415 84.3011C340.748 84.9792 340.915 85.7727 340.915 86.6818C340.915 87.5833 340.748 88.3712 340.415 89.0455C340.085 89.7197 339.623 90.2443 339.028 90.6193C338.438 90.9943 337.748 91.1818 336.96 91.1818ZM336.96 89.9773C337.559 89.9773 338.051 89.8239 338.438 89.517C338.824 89.2102 339.11 88.8068 339.295 88.3068C339.481 87.8068 339.574 87.2652 339.574 86.6818C339.574 86.0985 339.481 85.5549 339.295 85.0511C339.11 84.5473 338.824 84.1402 338.438 83.8295C338.051 83.5189 337.559 83.3636 336.96 83.3636C336.362 83.3636 335.869 83.5189 335.483 83.8295C335.097 84.1402 334.811 84.5473 334.625 85.0511C334.439 85.5549 334.347 86.0985 334.347 86.6818C334.347 87.2652 334.439 87.8068 334.625 88.3068C334.811 88.8068 335.097 89.2102 335.483 89.517C335.869 89.8239 336.362 89.9773 336.96 89.9773ZM344.303 85.75V91H342.962V82.2727H344.257V83.6364H344.371C344.575 83.1932 344.886 82.8371 345.303 82.5682C345.719 82.2955 346.257 82.1591 346.916 82.1591C347.507 82.1591 348.024 82.2803 348.467 82.5227C348.911 82.7614 349.255 83.125 349.501 83.6136C349.748 84.0985 349.871 84.7121 349.871 85.4545V91H348.53V85.5455C348.53 84.8598 348.352 84.3258 347.996 83.9432C347.64 83.5568 347.151 83.3636 346.53 83.3636C346.102 83.3636 345.719 83.4564 345.382 83.642C345.049 83.8277 344.786 84.0985 344.592 84.4545C344.399 84.8106 344.303 85.2424 344.303 85.75ZM356.116 82.2727V83.4091H351.594V82.2727H356.116ZM352.912 80.1818H354.253V88.5C354.253 88.8788 354.308 89.1629 354.418 89.3523C354.531 89.5379 354.675 89.6629 354.849 89.7273C355.027 89.7879 355.215 89.8182 355.412 89.8182C355.56 89.8182 355.681 89.8106 355.776 89.7955C355.87 89.7765 355.946 89.7614 356.003 89.75L356.276 90.9545C356.185 90.9886 356.058 91.0227 355.895 91.0568C355.732 91.0947 355.526 91.1136 355.276 91.1136C354.897 91.1136 354.526 91.0322 354.162 90.8693C353.802 90.7064 353.503 90.4583 353.264 90.125C353.029 89.7917 352.912 89.3712 352.912 88.8636V80.1818ZM359.662 85.75V91H358.321V79.3636H359.662V83.6364H359.776C359.98 83.1856 360.287 82.8277 360.696 82.5625C361.109 82.2936 361.658 82.1591 362.344 82.1591C362.938 82.1591 363.459 82.2784 363.906 82.517C364.353 82.7519 364.7 83.1136 364.946 83.6023C365.196 84.0871 365.321 84.7045 365.321 85.4545V91H363.98V85.5455C363.98 84.8523 363.8 84.3163 363.44 83.9375C363.084 83.5549 362.59 83.3636 361.957 83.3636C361.518 83.3636 361.124 83.4564 360.776 83.642C360.431 83.8277 360.158 84.0985 359.957 84.4545C359.76 84.8106 359.662 85.2424 359.662 85.75ZM373.956 84.2273L372.751 84.5682C372.676 84.3674 372.564 84.1723 372.416 83.983C372.272 83.7898 372.075 83.6307 371.825 83.5057C371.575 83.3807 371.255 83.3182 370.865 83.3182C370.331 83.3182 369.886 83.4413 369.53 83.6875C369.178 83.9299 369.001 84.2386 369.001 84.6136C369.001 84.947 369.123 85.2102 369.365 85.4034C369.607 85.5966 369.986 85.7576 370.501 85.8864L371.797 86.2045C372.577 86.3939 373.159 86.6837 373.541 87.0739C373.924 87.4602 374.115 87.9583 374.115 88.5682C374.115 89.0682 373.971 89.5152 373.683 89.9091C373.399 90.303 373.001 90.6136 372.49 90.8409C371.979 91.0682 371.384 91.1818 370.706 91.1818C369.816 91.1818 369.079 90.9886 368.496 90.6023C367.912 90.2159 367.543 89.6515 367.388 88.9091L368.661 88.5909C368.782 89.0606 369.011 89.4129 369.348 89.6477C369.689 89.8826 370.134 90 370.683 90C371.308 90 371.804 89.8674 372.172 89.6023C372.543 89.3333 372.729 89.0114 372.729 88.6364C372.729 88.3333 372.623 88.0795 372.411 87.875C372.198 87.6667 371.873 87.5114 371.433 87.4091L369.979 87.0682C369.179 86.8788 368.592 86.5852 368.217 86.1875C367.846 85.786 367.661 85.2841 367.661 84.6818C367.661 84.1894 367.799 83.7538 368.075 83.375C368.356 82.9962 368.736 82.6989 369.217 82.483C369.702 82.267 370.251 82.1591 370.865 82.1591C371.729 82.1591 372.407 82.3485 372.899 82.7273C373.395 83.1061 373.748 83.6061 373.956 84.2273Z" fill="black"/>
<path d="M118.523 123L115.341 111.364H116.773L119.205 120.841H119.318L121.795 111.364H123.386L125.864 120.841H125.977L128.409 111.364H129.841L126.659 123H125.205L122.636 113.727H122.545L119.977 123H118.523ZM134.261 123.182C133.42 123.182 132.695 122.996 132.085 122.625C131.479 122.25 131.011 121.727 130.682 121.057C130.356 120.383 130.193 119.598 130.193 118.705C130.193 117.811 130.356 117.023 130.682 116.341C131.011 115.655 131.47 115.121 132.057 114.739C132.648 114.352 133.337 114.159 134.125 114.159C134.58 114.159 135.028 114.235 135.472 114.386C135.915 114.538 136.318 114.784 136.682 115.125C137.045 115.462 137.335 115.909 137.551 116.466C137.767 117.023 137.875 117.708 137.875 118.523V119.091H131.148V117.932H136.511C136.511 117.439 136.413 117 136.216 116.614C136.023 116.227 135.746 115.922 135.386 115.699C135.03 115.475 134.61 115.364 134.125 115.364C133.591 115.364 133.129 115.496 132.739 115.761C132.352 116.023 132.055 116.364 131.847 116.784C131.638 117.205 131.534 117.655 131.534 118.136V118.909C131.534 119.568 131.648 120.127 131.875 120.585C132.106 121.04 132.426 121.386 132.835 121.625C133.244 121.86 133.72 121.977 134.261 121.977C134.614 121.977 134.932 121.928 135.216 121.83C135.504 121.727 135.752 121.576 135.96 121.375C136.169 121.17 136.33 120.917 136.443 120.614L137.739 120.977C137.602 121.417 137.373 121.803 137.051 122.136C136.729 122.466 136.331 122.723 135.858 122.909C135.384 123.091 134.852 123.182 134.261 123.182ZM143.574 123.182C142.733 123.182 142.008 122.996 141.398 122.625C140.792 122.25 140.324 121.727 139.994 121.057C139.669 120.383 139.506 119.598 139.506 118.705C139.506 117.811 139.669 117.023 139.994 116.341C140.324 115.655 140.782 115.121 141.369 114.739C141.96 114.352 142.65 114.159 143.438 114.159C143.892 114.159 144.341 114.235 144.784 114.386C145.227 114.538 145.631 114.784 145.994 115.125C146.358 115.462 146.648 115.909 146.864 116.466C147.08 117.023 147.188 117.708 147.188 118.523V119.091H140.46V117.932H145.824C145.824 117.439 145.725 117 145.528 116.614C145.335 116.227 145.059 115.922 144.699 115.699C144.343 115.475 143.922 115.364 143.438 115.364C142.903 115.364 142.441 115.496 142.051 115.761C141.665 116.023 141.367 116.364 141.159 116.784C140.951 117.205 140.847 117.655 140.847 118.136V118.909C140.847 119.568 140.96 120.127 141.188 120.585C141.419 121.04 141.739 121.386 142.148 121.625C142.557 121.86 143.032 121.977 143.574 121.977C143.926 121.977 144.244 121.928 144.528 121.83C144.816 121.727 145.064 121.576 145.273 121.375C145.481 121.17 145.642 120.917 145.756 120.614L147.051 120.977C146.915 121.417 146.686 121.803 146.364 122.136C146.042 122.466 145.644 122.723 145.17 122.909C144.697 123.091 144.165 123.182 143.574 123.182ZM150.477 119.818L150.455 118.159H150.727L154.545 114.273H156.205L152.136 118.386H152.023L150.477 119.818ZM149.227 123V111.364H150.568V123H149.227ZM154.773 123L151.364 118.682L152.318 117.75L156.477 123H154.773ZM159.271 111.364V123H157.93V111.364H159.271ZM162.591 126.273C162.364 126.273 162.161 126.254 161.983 126.216C161.805 126.182 161.682 126.148 161.614 126.114L161.955 124.932C162.28 125.015 162.568 125.045 162.818 125.023C163.068 125 163.29 124.888 163.483 124.688C163.68 124.491 163.86 124.17 164.023 123.727L164.273 123.045L161.045 114.273H162.5L164.909 121.227H165L167.409 114.273H168.864L165.159 124.273C164.992 124.723 164.786 125.097 164.54 125.392C164.294 125.691 164.008 125.913 163.682 126.057C163.36 126.201 162.996 126.273 162.591 126.273Z" fill="black"/>
<path d="M247.409 111.364H249.091L253.045 121.023H253.182L257.136 111.364H258.818V123H257.5V114.159H257.386L253.75 123H252.477L248.841 114.159H248.727V123H247.409V111.364ZM265.007 123.182C264.219 123.182 263.528 122.994 262.933 122.619C262.342 122.244 261.88 121.72 261.547 121.045C261.217 120.371 261.053 119.583 261.053 118.682C261.053 117.773 261.217 116.979 261.547 116.301C261.88 115.623 262.342 115.097 262.933 114.722C263.528 114.347 264.219 114.159 265.007 114.159C265.795 114.159 266.484 114.347 267.075 114.722C267.67 115.097 268.132 115.623 268.462 116.301C268.795 116.979 268.962 117.773 268.962 118.682C268.962 119.583 268.795 120.371 268.462 121.045C268.132 121.72 267.67 122.244 267.075 122.619C266.484 122.994 265.795 123.182 265.007 123.182ZM265.007 121.977C265.606 121.977 266.098 121.824 266.484 121.517C266.871 121.21 267.157 120.807 267.342 120.307C267.528 119.807 267.621 119.265 267.621 118.682C267.621 118.098 267.528 117.555 267.342 117.051C267.157 116.547 266.871 116.14 266.484 115.83C266.098 115.519 265.606 115.364 265.007 115.364C264.409 115.364 263.916 115.519 263.53 115.83C263.143 116.14 262.857 116.547 262.672 117.051C262.486 117.555 262.393 118.098 262.393 118.682C262.393 119.265 262.486 119.807 262.672 120.307C262.857 120.807 263.143 121.21 263.53 121.517C263.916 121.824 264.409 121.977 265.007 121.977ZM272.349 117.75V123H271.009V114.273H272.304V115.636H272.418C272.622 115.193 272.933 114.837 273.349 114.568C273.766 114.295 274.304 114.159 274.963 114.159C275.554 114.159 276.071 114.28 276.514 114.523C276.957 114.761 277.302 115.125 277.548 115.614C277.795 116.098 277.918 116.712 277.918 117.455V123H276.577V117.545C276.577 116.86 276.399 116.326 276.043 115.943C275.687 115.557 275.198 115.364 274.577 115.364C274.149 115.364 273.766 115.456 273.429 115.642C273.096 115.828 272.832 116.098 272.639 116.455C272.446 116.811 272.349 117.242 272.349 117.75ZM284.163 114.273V115.409H279.641V114.273H284.163ZM280.959 112.182H282.3V120.5C282.3 120.879 282.355 121.163 282.464 121.352C282.578 121.538 282.722 121.663 282.896 121.727C283.074 121.788 283.262 121.818 283.459 121.818C283.607 121.818 283.728 121.811 283.822 121.795C283.917 121.777 283.993 121.761 284.05 121.75L284.322 122.955C284.232 122.989 284.105 123.023 283.942 123.057C283.779 123.095 283.572 123.114 283.322 123.114C282.944 123.114 282.572 123.032 282.209 122.869C281.849 122.706 281.55 122.458 281.311 122.125C281.076 121.792 280.959 121.371 280.959 120.864V112.182ZM287.709 117.75V123H286.368V111.364H287.709V115.636H287.822C288.027 115.186 288.334 114.828 288.743 114.562C289.156 114.294 289.705 114.159 290.391 114.159C290.985 114.159 291.506 114.278 291.953 114.517C292.4 114.752 292.747 115.114 292.993 115.602C293.243 116.087 293.368 116.705 293.368 117.455V123H292.027V117.545C292.027 116.852 291.847 116.316 291.487 115.938C291.131 115.555 290.637 115.364 290.004 115.364C289.565 115.364 289.171 115.456 288.822 115.642C288.478 115.828 288.205 116.098 288.004 116.455C287.807 116.811 287.709 117.242 287.709 117.75ZM297.162 111.364V123H295.821V111.364H297.162ZM300.482 126.273C300.254 126.273 300.052 126.254 299.874 126.216C299.696 126.182 299.572 126.148 299.504 126.114L299.845 124.932C300.171 125.015 300.459 125.045 300.709 125.023C300.959 125 301.18 124.888 301.374 124.688C301.571 124.491 301.75 124.17 301.913 123.727L302.163 123.045L298.936 114.273H300.391L302.8 121.227H302.891L305.3 114.273H306.754L303.05 124.273C302.883 124.723 302.677 125.097 302.43 125.392C302.184 125.691 301.898 125.913 301.572 126.057C301.25 126.201 300.887 126.273 300.482 126.273Z" fill="black"/>
<path d="M46.7727 192.273C46.7045 191.697 46.428 191.25 45.9432 190.932C45.4583 190.614 44.8636 190.455 44.1591 190.455C43.6439 190.455 43.1932 190.538 42.8068 190.705C42.4242 190.871 42.125 191.1 41.9091 191.392C41.697 191.684 41.5909 192.015 41.5909 192.386C41.5909 192.697 41.6648 192.964 41.8125 193.188C41.964 193.407 42.1572 193.591 42.392 193.739C42.6269 193.883 42.8731 194.002 43.1307 194.097C43.3883 194.187 43.625 194.261 43.8409 194.318L45.0227 194.636C45.3258 194.716 45.6629 194.826 46.0341 194.966C46.4091 195.106 46.767 195.297 47.108 195.54C47.4527 195.778 47.7367 196.085 47.9602 196.46C48.1837 196.835 48.2955 197.295 48.2955 197.841C48.2955 198.47 48.1307 199.038 47.8011 199.545C47.4754 200.053 46.9981 200.456 46.3693 200.756C45.7443 201.055 44.9848 201.205 44.0909 201.205C43.2576 201.205 42.536 201.07 41.9261 200.801C41.3201 200.532 40.8428 200.157 40.4943 199.676C40.1496 199.195 39.9545 198.636 39.9091 198H41.3636C41.4015 198.439 41.5492 198.803 41.8068 199.091C42.0682 199.375 42.3977 199.587 42.7955 199.727C43.197 199.864 43.6288 199.932 44.0909 199.932C44.6288 199.932 45.1117 199.845 45.5398 199.67C45.9678 199.492 46.3068 199.246 46.5568 198.932C46.8068 198.614 46.9318 198.242 46.9318 197.818C46.9318 197.432 46.8239 197.117 46.608 196.875C46.392 196.633 46.108 196.436 45.7557 196.284C45.4034 196.133 45.0227 196 44.6136 195.886L43.1818 195.477C42.2727 195.216 41.553 194.843 41.0227 194.358C40.4924 193.873 40.2273 193.239 40.2273 192.455C40.2273 191.803 40.4034 191.235 40.7557 190.75C41.1117 190.261 41.589 189.883 42.1875 189.614C42.7898 189.341 43.4621 189.205 44.2045 189.205C44.9545 189.205 45.6212 189.339 46.2045 189.608C46.7879 189.873 47.25 190.237 47.5909 190.699C47.9356 191.161 48.1174 191.686 48.1364 192.273H46.7727ZM50.4304 204.273V192.273H51.7259V193.659H51.8849C51.9834 193.508 52.1198 193.314 52.294 193.08C52.4721 192.841 52.7259 192.629 53.0554 192.443C53.3887 192.254 53.8395 192.159 54.4077 192.159C55.1425 192.159 55.7902 192.343 56.3509 192.71C56.9115 193.078 57.349 193.598 57.6634 194.273C57.9777 194.947 58.1349 195.742 58.1349 196.659C58.1349 197.583 57.9777 198.384 57.6634 199.062C57.349 199.737 56.9134 200.259 56.3565 200.631C55.7997 200.998 55.1577 201.182 54.4304 201.182C53.8698 201.182 53.4209 201.089 53.0838 200.903C52.7467 200.714 52.4872 200.5 52.3054 200.261C52.1236 200.019 51.9834 199.818 51.8849 199.659H51.7713V204.273H50.4304ZM51.7486 196.636C51.7486 197.295 51.8452 197.877 52.0384 198.381C52.2315 198.881 52.5137 199.273 52.8849 199.557C53.2562 199.837 53.7107 199.977 54.2486 199.977C54.8092 199.977 55.277 199.83 55.652 199.534C56.0308 199.235 56.3149 198.833 56.5043 198.33C56.6974 197.822 56.794 197.258 56.794 196.636C56.794 196.023 56.6993 195.47 56.5099 194.977C56.3243 194.481 56.0421 194.089 55.6634 193.801C55.2884 193.509 54.8168 193.364 54.2486 193.364C53.7031 193.364 53.2448 193.502 52.8736 193.778C52.5024 194.051 52.2221 194.434 52.0327 194.926C51.8433 195.415 51.7486 195.985 51.7486 196.636ZM62.7486 201.205C62.1955 201.205 61.6937 201.1 61.2429 200.892C60.7921 200.68 60.4342 200.375 60.169 199.977C59.9039 199.576 59.7713 199.091 59.7713 198.523C59.7713 198.023 59.8698 197.617 60.0668 197.307C60.2637 196.992 60.527 196.746 60.8565 196.568C61.1861 196.39 61.5497 196.258 61.9474 196.17C62.349 196.08 62.7524 196.008 63.1577 195.955C63.688 195.886 64.1179 195.835 64.4474 195.801C64.7808 195.763 65.0232 195.701 65.1747 195.614C65.33 195.527 65.4077 195.375 65.4077 195.159V195.114C65.4077 194.553 65.2543 194.117 64.9474 193.807C64.6444 193.496 64.1842 193.341 63.5668 193.341C62.9266 193.341 62.4247 193.481 62.0611 193.761C61.6974 194.042 61.4418 194.341 61.294 194.659L60.0213 194.205C60.2486 193.674 60.5516 193.261 60.9304 192.966C61.313 192.667 61.7296 192.458 62.1804 192.341C62.6349 192.22 63.0819 192.159 63.5213 192.159C63.8016 192.159 64.1236 192.193 64.4872 192.261C64.8546 192.326 65.2088 192.46 65.5497 192.665C65.8944 192.869 66.1804 193.178 66.4077 193.591C66.6349 194.004 66.7486 194.557 66.7486 195.25V201H65.4077V199.818H65.3395C65.2486 200.008 65.0971 200.21 64.8849 200.426C64.6728 200.642 64.3906 200.826 64.0384 200.977C63.6861 201.129 63.2562 201.205 62.7486 201.205ZM62.9531 200C63.4834 200 63.9304 199.896 64.294 199.688C64.6615 199.479 64.938 199.21 65.1236 198.881C65.313 198.551 65.4077 198.205 65.4077 197.841V196.614C65.3509 196.682 65.2259 196.744 65.0327 196.801C64.8433 196.854 64.6236 196.902 64.3736 196.943C64.1274 196.981 63.8868 197.015 63.652 197.045C63.4209 197.072 63.2334 197.095 63.0895 197.114C62.741 197.159 62.4152 197.233 62.1122 197.335C61.813 197.434 61.5705 197.583 61.3849 197.784C61.2031 197.981 61.1122 198.25 61.1122 198.591C61.1122 199.057 61.2846 199.409 61.6293 199.648C61.9777 199.883 62.419 200 62.9531 200ZM70.5369 195.75V201H69.196V192.273H70.4915V193.636H70.6051C70.8097 193.193 71.1203 192.837 71.5369 192.568C71.9536 192.295 72.4915 192.159 73.1506 192.159C73.7415 192.159 74.2585 192.28 74.7017 192.523C75.1449 192.761 75.4896 193.125 75.7358 193.614C75.982 194.098 76.1051 194.712 76.1051 195.455V201H74.7642V195.545C74.7642 194.86 74.5862 194.326 74.2301 193.943C73.8741 193.557 73.3854 193.364 72.7642 193.364C72.3362 193.364 71.9536 193.456 71.6165 193.642C71.2831 193.828 71.0199 194.098 70.8267 194.455C70.6335 194.811 70.5369 195.242 70.5369 195.75ZM79.8963 195.75V201H78.5554V192.273H79.8509V193.636H79.9645C80.169 193.193 80.4796 192.837 80.8963 192.568C81.313 192.295 81.8509 192.159 82.5099 192.159C83.1009 192.159 83.6179 192.28 84.0611 192.523C84.5043 192.761 84.849 193.125 85.0952 193.614C85.3414 194.098 85.4645 194.712 85.4645 195.455V201H84.1236V195.545C84.1236 194.86 83.9455 194.326 83.5895 193.943C83.2334 193.557 82.7448 193.364 82.1236 193.364C81.6955 193.364 81.313 193.456 80.9759 193.642C80.6425 193.828 80.3793 194.098 80.1861 194.455C79.9929 194.811 79.8963 195.242 79.8963 195.75ZM87.9148 201V192.273H89.2557V201H87.9148ZM88.5966 190.818C88.3352 190.818 88.1098 190.729 87.9205 190.551C87.7348 190.373 87.642 190.159 87.642 189.909C87.642 189.659 87.7348 189.445 87.9205 189.267C88.1098 189.089 88.3352 189 88.5966 189C88.858 189 89.0814 189.089 89.267 189.267C89.4564 189.445 89.5511 189.659 89.5511 189.909C89.5511 190.159 89.4564 190.373 89.267 190.551C89.0814 190.729 88.858 190.818 88.5966 190.818ZM93.0526 195.75V201H91.7116V192.273H93.0071V193.636H93.1207C93.3253 193.193 93.6359 192.837 94.0526 192.568C94.4692 192.295 95.0071 192.159 95.6662 192.159C96.2571 192.159 96.7741 192.28 97.2173 192.523C97.6605 192.761 98.0052 193.125 98.2514 193.614C98.4976 194.098 98.6207 194.712 98.6207 195.455V201H97.2798V195.545C97.2798 194.86 97.1018 194.326 96.7457 193.943C96.3897 193.557 95.901 193.364 95.2798 193.364C94.8518 193.364 94.4692 193.456 94.1321 193.642C93.7988 193.828 93.5355 194.098 93.3423 194.455C93.1491 194.811 93.0526 195.242 93.0526 195.75ZM104.594 204.455C103.946 204.455 103.389 204.371 102.923 204.205C102.457 204.042 102.069 203.826 101.759 203.557C101.452 203.292 101.207 203.008 101.026 202.705L102.094 201.955C102.215 202.114 102.368 202.295 102.554 202.5C102.74 202.708 102.993 202.888 103.315 203.04C103.641 203.195 104.067 203.273 104.594 203.273C105.298 203.273 105.88 203.102 106.338 202.761C106.796 202.42 107.026 201.886 107.026 201.159V199.386H106.912C106.813 199.545 106.673 199.742 106.491 199.977C106.313 200.208 106.056 200.415 105.719 200.597C105.385 200.775 104.935 200.864 104.366 200.864C103.662 200.864 103.029 200.697 102.469 200.364C101.912 200.03 101.471 199.545 101.145 198.909C100.823 198.273 100.662 197.5 100.662 196.591C100.662 195.697 100.819 194.919 101.134 194.256C101.448 193.589 101.885 193.074 102.446 192.71C103.007 192.343 103.654 192.159 104.389 192.159C104.957 192.159 105.408 192.254 105.741 192.443C106.079 192.629 106.336 192.841 106.514 193.08C106.696 193.314 106.836 193.508 106.935 193.659H107.071V192.273H108.366V201.25C108.366 202 108.196 202.61 107.855 203.08C107.518 203.553 107.063 203.9 106.491 204.119C105.923 204.343 105.291 204.455 104.594 204.455ZM104.548 199.659C105.086 199.659 105.541 199.536 105.912 199.29C106.283 199.044 106.565 198.689 106.759 198.227C106.952 197.765 107.048 197.212 107.048 196.568C107.048 195.939 106.954 195.384 106.764 194.903C106.575 194.422 106.295 194.045 105.923 193.773C105.552 193.5 105.094 193.364 104.548 193.364C103.98 193.364 103.507 193.508 103.128 193.795C102.753 194.083 102.471 194.47 102.281 194.955C102.096 195.439 102.003 195.977 102.003 196.568C102.003 197.174 102.098 197.71 102.287 198.176C102.48 198.638 102.764 199.002 103.139 199.267C103.518 199.528 103.988 199.659 104.548 199.659ZM119.389 189.364V201H117.98V190.841H117.912L115.071 192.727V191.295L117.98 189.364H119.389ZM126.827 189.364V201H125.418V190.841H125.349L122.509 192.727V191.295L125.418 189.364H126.827ZM134.696 201V192.273H135.991V193.636H136.105C136.287 193.17 136.58 192.809 136.986 192.551C137.391 192.29 137.878 192.159 138.446 192.159C139.022 192.159 139.501 192.29 139.884 192.551C140.27 192.809 140.571 193.17 140.787 193.636H140.878C141.101 193.186 141.437 192.828 141.884 192.562C142.33 192.294 142.866 192.159 143.491 192.159C144.272 192.159 144.91 192.403 145.406 192.892C145.902 193.377 146.151 194.133 146.151 195.159V201H144.81V195.159C144.81 194.515 144.634 194.055 144.281 193.778C143.929 193.502 143.514 193.364 143.037 193.364C142.423 193.364 141.948 193.549 141.611 193.92C141.274 194.288 141.105 194.754 141.105 195.318V201H139.741V195.023C139.741 194.527 139.58 194.127 139.259 193.824C138.937 193.517 138.522 193.364 138.014 193.364C137.666 193.364 137.34 193.456 137.037 193.642C136.738 193.828 136.495 194.085 136.31 194.415C136.128 194.741 136.037 195.117 136.037 195.545V201H134.696ZM152.148 201.182C151.36 201.182 150.669 200.994 150.074 200.619C149.483 200.244 149.021 199.72 148.688 199.045C148.358 198.371 148.193 197.583 148.193 196.682C148.193 195.773 148.358 194.979 148.688 194.301C149.021 193.623 149.483 193.097 150.074 192.722C150.669 192.347 151.36 192.159 152.148 192.159C152.936 192.159 153.625 192.347 154.216 192.722C154.811 193.097 155.273 193.623 155.602 194.301C155.936 194.979 156.102 195.773 156.102 196.682C156.102 197.583 155.936 198.371 155.602 199.045C155.273 199.72 154.811 200.244 154.216 200.619C153.625 200.994 152.936 201.182 152.148 201.182ZM152.148 199.977C152.746 199.977 153.239 199.824 153.625 199.517C154.011 199.21 154.297 198.807 154.483 198.307C154.669 197.807 154.761 197.265 154.761 196.682C154.761 196.098 154.669 195.555 154.483 195.051C154.297 194.547 154.011 194.14 153.625 193.83C153.239 193.519 152.746 193.364 152.148 193.364C151.549 193.364 151.057 193.519 150.67 193.83C150.284 194.14 149.998 194.547 149.812 195.051C149.627 195.555 149.534 196.098 149.534 196.682C149.534 197.265 149.627 197.807 149.812 198.307C149.998 198.807 150.284 199.21 150.67 199.517C151.057 199.824 151.549 199.977 152.148 199.977ZM159.49 195.75V201H158.149V192.273H159.445V193.636H159.558C159.763 193.193 160.073 192.837 160.49 192.568C160.907 192.295 161.445 192.159 162.104 192.159C162.695 192.159 163.212 192.28 163.655 192.523C164.098 192.761 164.443 193.125 164.689 193.614C164.935 194.098 165.058 194.712 165.058 195.455V201H163.717V195.545C163.717 194.86 163.539 194.326 163.183 193.943C162.827 193.557 162.339 193.364 161.717 193.364C161.289 193.364 160.907 193.456 160.57 193.642C160.236 193.828 159.973 194.098 159.78 194.455C159.587 194.811 159.49 195.242 159.49 195.75ZM171.304 192.273V193.409H166.781V192.273H171.304ZM168.099 190.182H169.44V198.5C169.44 198.879 169.495 199.163 169.605 199.352C169.719 199.538 169.863 199.663 170.037 199.727C170.215 199.788 170.402 199.818 170.599 199.818C170.747 199.818 170.868 199.811 170.963 199.795C171.058 199.777 171.134 199.761 171.19 199.75L171.463 200.955C171.372 200.989 171.245 201.023 171.082 201.057C170.92 201.095 170.713 201.114 170.463 201.114C170.084 201.114 169.713 201.032 169.349 200.869C168.99 200.706 168.69 200.458 168.452 200.125C168.217 199.792 168.099 199.371 168.099 198.864V190.182ZM174.849 195.75V201H173.509V189.364H174.849V193.636H174.963C175.168 193.186 175.474 192.828 175.884 192.562C176.296 192.294 176.846 192.159 177.531 192.159C178.126 192.159 178.647 192.278 179.094 192.517C179.541 192.752 179.887 193.114 180.134 193.602C180.384 194.087 180.509 194.705 180.509 195.455V201H179.168V195.545C179.168 194.852 178.988 194.316 178.628 193.938C178.272 193.555 177.777 193.364 177.145 193.364C176.705 193.364 176.312 193.456 175.963 193.642C175.618 193.828 175.346 194.098 175.145 194.455C174.948 194.811 174.849 195.242 174.849 195.75ZM189.143 194.227L187.939 194.568C187.863 194.367 187.751 194.172 187.604 193.983C187.46 193.79 187.263 193.631 187.013 193.506C186.763 193.381 186.443 193.318 186.053 193.318C185.518 193.318 185.073 193.441 184.717 193.688C184.365 193.93 184.189 194.239 184.189 194.614C184.189 194.947 184.31 195.21 184.553 195.403C184.795 195.597 185.174 195.758 185.689 195.886L186.984 196.205C187.765 196.394 188.346 196.684 188.729 197.074C189.111 197.46 189.303 197.958 189.303 198.568C189.303 199.068 189.159 199.515 188.871 199.909C188.587 200.303 188.189 200.614 187.678 200.841C187.166 201.068 186.571 201.182 185.893 201.182C185.003 201.182 184.267 200.989 183.683 200.602C183.1 200.216 182.731 199.652 182.575 198.909L183.848 198.591C183.969 199.061 184.198 199.413 184.536 199.648C184.876 199.883 185.321 200 185.871 200C186.496 200 186.992 199.867 187.359 199.602C187.731 199.333 187.916 199.011 187.916 198.636C187.916 198.333 187.81 198.08 187.598 197.875C187.386 197.667 187.06 197.511 186.621 197.409L185.166 197.068C184.367 196.879 183.78 196.585 183.405 196.188C183.034 195.786 182.848 195.284 182.848 194.682C182.848 194.189 182.986 193.754 183.263 193.375C183.543 192.996 183.924 192.699 184.405 192.483C184.89 192.267 185.439 192.159 186.053 192.159C186.916 192.159 187.594 192.348 188.087 192.727C188.583 193.106 188.935 193.606 189.143 194.227Z" fill="black"/>
<path d="M236.773 188.273C236.705 187.697 236.428 187.25 235.943 186.932C235.458 186.614 234.864 186.455 234.159 186.455C233.644 186.455 233.193 186.538 232.807 186.705C232.424 186.871 232.125 187.1 231.909 187.392C231.697 187.684 231.591 188.015 231.591 188.386C231.591 188.697 231.665 188.964 231.812 189.188C231.964 189.407 232.157 189.591 232.392 189.739C232.627 189.883 232.873 190.002 233.131 190.097C233.388 190.187 233.625 190.261 233.841 190.318L235.023 190.636C235.326 190.716 235.663 190.826 236.034 190.966C236.409 191.106 236.767 191.297 237.108 191.54C237.453 191.778 237.737 192.085 237.96 192.46C238.184 192.835 238.295 193.295 238.295 193.841C238.295 194.47 238.131 195.038 237.801 195.545C237.475 196.053 236.998 196.456 236.369 196.756C235.744 197.055 234.985 197.205 234.091 197.205C233.258 197.205 232.536 197.07 231.926 196.801C231.32 196.532 230.843 196.157 230.494 195.676C230.15 195.195 229.955 194.636 229.909 194H231.364C231.402 194.439 231.549 194.803 231.807 195.091C232.068 195.375 232.398 195.587 232.795 195.727C233.197 195.864 233.629 195.932 234.091 195.932C234.629 195.932 235.112 195.845 235.54 195.67C235.968 195.492 236.307 195.246 236.557 194.932C236.807 194.614 236.932 194.242 236.932 193.818C236.932 193.432 236.824 193.117 236.608 192.875C236.392 192.633 236.108 192.436 235.756 192.284C235.403 192.133 235.023 192 234.614 191.886L233.182 191.477C232.273 191.216 231.553 190.843 231.023 190.358C230.492 189.873 230.227 189.239 230.227 188.455C230.227 187.803 230.403 187.235 230.756 186.75C231.112 186.261 231.589 185.883 232.188 185.614C232.79 185.341 233.462 185.205 234.205 185.205C234.955 185.205 235.621 185.339 236.205 185.608C236.788 185.873 237.25 186.237 237.591 186.699C237.936 187.161 238.117 187.686 238.136 188.273H236.773ZM240.43 200.273V188.273H241.726V189.659H241.885C241.983 189.508 242.12 189.314 242.294 189.08C242.472 188.841 242.726 188.629 243.055 188.443C243.389 188.254 243.839 188.159 244.408 188.159C245.143 188.159 245.79 188.343 246.351 188.71C246.911 189.078 247.349 189.598 247.663 190.273C247.978 190.947 248.135 191.742 248.135 192.659C248.135 193.583 247.978 194.384 247.663 195.062C247.349 195.737 246.913 196.259 246.357 196.631C245.8 196.998 245.158 197.182 244.43 197.182C243.87 197.182 243.421 197.089 243.084 196.903C242.747 196.714 242.487 196.5 242.305 196.261C242.124 196.019 241.983 195.818 241.885 195.659H241.771V200.273H240.43ZM241.749 192.636C241.749 193.295 241.845 193.877 242.038 194.381C242.232 194.881 242.514 195.273 242.885 195.557C243.256 195.837 243.711 195.977 244.249 195.977C244.809 195.977 245.277 195.83 245.652 195.534C246.031 195.235 246.315 194.833 246.504 194.33C246.697 193.822 246.794 193.258 246.794 192.636C246.794 192.023 246.699 191.47 246.51 190.977C246.324 190.481 246.042 190.089 245.663 189.801C245.288 189.509 244.817 189.364 244.249 189.364C243.703 189.364 243.245 189.502 242.874 189.778C242.502 190.051 242.222 190.434 242.033 190.926C241.843 191.415 241.749 191.985 241.749 192.636ZM252.749 197.205C252.196 197.205 251.694 197.1 251.243 196.892C250.792 196.68 250.434 196.375 250.169 195.977C249.904 195.576 249.771 195.091 249.771 194.523C249.771 194.023 249.87 193.617 250.067 193.307C250.264 192.992 250.527 192.746 250.857 192.568C251.186 192.39 251.55 192.258 251.947 192.17C252.349 192.08 252.752 192.008 253.158 191.955C253.688 191.886 254.118 191.835 254.447 191.801C254.781 191.763 255.023 191.701 255.175 191.614C255.33 191.527 255.408 191.375 255.408 191.159V191.114C255.408 190.553 255.254 190.117 254.947 189.807C254.644 189.496 254.184 189.341 253.567 189.341C252.927 189.341 252.425 189.481 252.061 189.761C251.697 190.042 251.442 190.341 251.294 190.659L250.021 190.205C250.249 189.674 250.552 189.261 250.93 188.966C251.313 188.667 251.73 188.458 252.18 188.341C252.635 188.22 253.082 188.159 253.521 188.159C253.802 188.159 254.124 188.193 254.487 188.261C254.855 188.326 255.209 188.46 255.55 188.665C255.894 188.869 256.18 189.178 256.408 189.591C256.635 190.004 256.749 190.557 256.749 191.25V197H255.408V195.818H255.339C255.249 196.008 255.097 196.21 254.885 196.426C254.673 196.642 254.391 196.826 254.038 196.977C253.686 197.129 253.256 197.205 252.749 197.205ZM252.953 196C253.483 196 253.93 195.896 254.294 195.688C254.661 195.479 254.938 195.21 255.124 194.881C255.313 194.551 255.408 194.205 255.408 193.841V192.614C255.351 192.682 255.226 192.744 255.033 192.801C254.843 192.854 254.624 192.902 254.374 192.943C254.127 192.981 253.887 193.015 253.652 193.045C253.421 193.072 253.233 193.095 253.089 193.114C252.741 193.159 252.415 193.233 252.112 193.335C251.813 193.434 251.571 193.583 251.385 193.784C251.203 193.981 251.112 194.25 251.112 194.591C251.112 195.057 251.285 195.409 251.629 195.648C251.978 195.883 252.419 196 252.953 196ZM260.537 191.75V197H259.196V188.273H260.491V189.636H260.605C260.81 189.193 261.12 188.837 261.537 188.568C261.954 188.295 262.491 188.159 263.151 188.159C263.741 188.159 264.259 188.28 264.702 188.523C265.145 188.761 265.49 189.125 265.736 189.614C265.982 190.098 266.105 190.712 266.105 191.455V197H264.764V191.545C264.764 190.86 264.586 190.326 264.23 189.943C263.874 189.557 263.385 189.364 262.764 189.364C262.336 189.364 261.954 189.456 261.616 189.642C261.283 189.828 261.02 190.098 260.827 190.455C260.634 190.811 260.537 191.242 260.537 191.75ZM269.896 191.75V197H268.555V188.273H269.851V189.636H269.964C270.169 189.193 270.48 188.837 270.896 188.568C271.313 188.295 271.851 188.159 272.51 188.159C273.101 188.159 273.618 188.28 274.061 188.523C274.504 188.761 274.849 189.125 275.095 189.614C275.341 190.098 275.464 190.712 275.464 191.455V197H274.124V191.545C274.124 190.86 273.946 190.326 273.589 189.943C273.233 189.557 272.745 189.364 272.124 189.364C271.696 189.364 271.313 189.456 270.976 189.642C270.643 189.828 270.379 190.098 270.186 190.455C269.993 190.811 269.896 191.242 269.896 191.75ZM277.915 197V188.273H279.256V197H277.915ZM278.597 186.818C278.335 186.818 278.11 186.729 277.92 186.551C277.735 186.373 277.642 186.159 277.642 185.909C277.642 185.659 277.735 185.445 277.92 185.267C278.11 185.089 278.335 185 278.597 185C278.858 185 279.081 185.089 279.267 185.267C279.456 185.445 279.551 185.659 279.551 185.909C279.551 186.159 279.456 186.373 279.267 186.551C279.081 186.729 278.858 186.818 278.597 186.818ZM283.053 191.75V197H281.712V188.273H283.007V189.636H283.121C283.325 189.193 283.636 188.837 284.053 188.568C284.469 188.295 285.007 188.159 285.666 188.159C286.257 188.159 286.774 188.28 287.217 188.523C287.661 188.761 288.005 189.125 288.251 189.614C288.498 190.098 288.621 190.712 288.621 191.455V197H287.28V191.545C287.28 190.86 287.102 190.326 286.746 189.943C286.39 189.557 285.901 189.364 285.28 189.364C284.852 189.364 284.469 189.456 284.132 189.642C283.799 189.828 283.536 190.098 283.342 190.455C283.149 190.811 283.053 191.242 283.053 191.75ZM294.594 200.455C293.946 200.455 293.389 200.371 292.923 200.205C292.457 200.042 292.069 199.826 291.759 199.557C291.452 199.292 291.207 199.008 291.026 198.705L292.094 197.955C292.215 198.114 292.368 198.295 292.554 198.5C292.74 198.708 292.993 198.888 293.315 199.04C293.641 199.195 294.067 199.273 294.594 199.273C295.298 199.273 295.88 199.102 296.338 198.761C296.796 198.42 297.026 197.886 297.026 197.159V195.386H296.912C296.813 195.545 296.673 195.742 296.491 195.977C296.313 196.208 296.056 196.415 295.719 196.597C295.385 196.775 294.935 196.864 294.366 196.864C293.662 196.864 293.029 196.697 292.469 196.364C291.912 196.03 291.471 195.545 291.145 194.909C290.823 194.273 290.662 193.5 290.662 192.591C290.662 191.697 290.819 190.919 291.134 190.256C291.448 189.589 291.885 189.074 292.446 188.71C293.007 188.343 293.654 188.159 294.389 188.159C294.957 188.159 295.408 188.254 295.741 188.443C296.079 188.629 296.336 188.841 296.514 189.08C296.696 189.314 296.836 189.508 296.935 189.659H297.071V188.273H298.366V197.25C298.366 198 298.196 198.61 297.855 199.08C297.518 199.553 297.063 199.9 296.491 200.119C295.923 200.343 295.291 200.455 294.594 200.455ZM294.548 195.659C295.086 195.659 295.541 195.536 295.912 195.29C296.283 195.044 296.565 194.689 296.759 194.227C296.952 193.765 297.048 193.212 297.048 192.568C297.048 191.939 296.954 191.384 296.764 190.903C296.575 190.422 296.295 190.045 295.923 189.773C295.552 189.5 295.094 189.364 294.548 189.364C293.98 189.364 293.507 189.508 293.128 189.795C292.753 190.083 292.471 190.47 292.281 190.955C292.096 191.439 292.003 191.977 292.003 192.568C292.003 193.174 292.098 193.71 292.287 194.176C292.48 194.638 292.764 195.002 293.139 195.267C293.518 195.528 293.988 195.659 294.548 195.659ZM309.389 185.364V197H307.98V186.841H307.912L305.071 188.727V187.295L307.98 185.364H309.389ZM316.827 185.364V197H315.418V186.841H315.349L312.509 188.727V187.295L315.418 185.364H316.827ZM324.696 197V188.273H325.991V189.636H326.105C326.287 189.17 326.58 188.809 326.986 188.551C327.391 188.29 327.878 188.159 328.446 188.159C329.022 188.159 329.501 188.29 329.884 188.551C330.27 188.809 330.571 189.17 330.787 189.636H330.878C331.101 189.186 331.437 188.828 331.884 188.562C332.33 188.294 332.866 188.159 333.491 188.159C334.272 188.159 334.91 188.403 335.406 188.892C335.902 189.377 336.151 190.133 336.151 191.159V197H334.81V191.159C334.81 190.515 334.634 190.055 334.281 189.778C333.929 189.502 333.514 189.364 333.037 189.364C332.423 189.364 331.948 189.549 331.611 189.92C331.274 190.288 331.105 190.754 331.105 191.318V197H329.741V191.023C329.741 190.527 329.58 190.127 329.259 189.824C328.937 189.517 328.522 189.364 328.014 189.364C327.666 189.364 327.34 189.456 327.037 189.642C326.738 189.828 326.495 190.085 326.31 190.415C326.128 190.741 326.037 191.117 326.037 191.545V197H324.696ZM342.148 197.182C341.36 197.182 340.669 196.994 340.074 196.619C339.483 196.244 339.021 195.72 338.688 195.045C338.358 194.371 338.193 193.583 338.193 192.682C338.193 191.773 338.358 190.979 338.688 190.301C339.021 189.623 339.483 189.097 340.074 188.722C340.669 188.347 341.36 188.159 342.148 188.159C342.936 188.159 343.625 188.347 344.216 188.722C344.811 189.097 345.273 189.623 345.602 190.301C345.936 190.979 346.102 191.773 346.102 192.682C346.102 193.583 345.936 194.371 345.602 195.045C345.273 195.72 344.811 196.244 344.216 196.619C343.625 196.994 342.936 197.182 342.148 197.182ZM342.148 195.977C342.746 195.977 343.239 195.824 343.625 195.517C344.011 195.21 344.297 194.807 344.483 194.307C344.669 193.807 344.761 193.265 344.761 192.682C344.761 192.098 344.669 191.555 344.483 191.051C344.297 190.547 344.011 190.14 343.625 189.83C343.239 189.519 342.746 189.364 342.148 189.364C341.549 189.364 341.057 189.519 340.67 189.83C340.284 190.14 339.998 190.547 339.812 191.051C339.627 191.555 339.534 192.098 339.534 192.682C339.534 193.265 339.627 193.807 339.812 194.307C339.998 194.807 340.284 195.21 340.67 195.517C341.057 195.824 341.549 195.977 342.148 195.977ZM349.49 191.75V197H348.149V188.273H349.445V189.636H349.558C349.763 189.193 350.073 188.837 350.49 188.568C350.907 188.295 351.445 188.159 352.104 188.159C352.695 188.159 353.212 188.28 353.655 188.523C354.098 188.761 354.443 189.125 354.689 189.614C354.935 190.098 355.058 190.712 355.058 191.455V197H353.717V191.545C353.717 190.86 353.539 190.326 353.183 189.943C352.827 189.557 352.339 189.364 351.717 189.364C351.289 189.364 350.907 189.456 350.57 189.642C350.236 189.828 349.973 190.098 349.78 190.455C349.587 190.811 349.49 191.242 349.49 191.75ZM361.304 188.273V189.409H356.781V188.273H361.304ZM358.099 186.182H359.44V194.5C359.44 194.879 359.495 195.163 359.605 195.352C359.719 195.538 359.863 195.663 360.037 195.727C360.215 195.788 360.402 195.818 360.599 195.818C360.747 195.818 360.868 195.811 360.963 195.795C361.058 195.777 361.134 195.761 361.19 195.75L361.463 196.955C361.372 196.989 361.245 197.023 361.082 197.057C360.92 197.095 360.713 197.114 360.463 197.114C360.084 197.114 359.713 197.032 359.349 196.869C358.99 196.706 358.69 196.458 358.452 196.125C358.217 195.792 358.099 195.371 358.099 194.864V186.182ZM364.849 191.75V197H363.509V185.364H364.849V189.636H364.963C365.168 189.186 365.474 188.828 365.884 188.562C366.296 188.294 366.846 188.159 367.531 188.159C368.126 188.159 368.647 188.278 369.094 188.517C369.541 188.752 369.887 189.114 370.134 189.602C370.384 190.087 370.509 190.705 370.509 191.455V197H369.168V191.545C369.168 190.852 368.988 190.316 368.628 189.938C368.272 189.555 367.777 189.364 367.145 189.364C366.705 189.364 366.312 189.456 365.963 189.642C365.618 189.828 365.346 190.098 365.145 190.455C364.948 190.811 364.849 191.242 364.849 191.75ZM379.143 190.227L377.939 190.568C377.863 190.367 377.751 190.172 377.604 189.983C377.46 189.79 377.263 189.631 377.013 189.506C376.763 189.381 376.443 189.318 376.053 189.318C375.518 189.318 375.073 189.441 374.717 189.688C374.365 189.93 374.189 190.239 374.189 190.614C374.189 190.947 374.31 191.21 374.553 191.403C374.795 191.597 375.174 191.758 375.689 191.886L376.984 192.205C377.765 192.394 378.346 192.684 378.729 193.074C379.111 193.46 379.303 193.958 379.303 194.568C379.303 195.068 379.159 195.515 378.871 195.909C378.587 196.303 378.189 196.614 377.678 196.841C377.166 197.068 376.571 197.182 375.893 197.182C375.003 197.182 374.267 196.989 373.683 196.602C373.1 196.216 372.731 195.652 372.575 194.909L373.848 194.591C373.969 195.061 374.198 195.413 374.536 195.648C374.876 195.883 375.321 196 375.871 196C376.496 196 376.992 195.867 377.359 195.602C377.731 195.333 377.916 195.011 377.916 194.636C377.916 194.333 377.81 194.08 377.598 193.875C377.386 193.667 377.06 193.511 376.621 193.409L375.166 193.068C374.367 192.879 373.78 192.585 373.405 192.188C373.034 191.786 372.848 191.284 372.848 190.682C372.848 190.189 372.986 189.754 373.263 189.375C373.543 188.996 373.924 188.699 374.405 188.483C374.89 188.267 375.439 188.159 376.053 188.159C376.916 188.159 377.594 188.348 378.087 188.727C378.583 189.106 378.935 189.606 379.143 190.227Z" fill="black"/>
</svg>
