<svg width="350" height="358" viewBox="0 0 350 358" fill="none" xmlns="http://www.w3.org/2000/svg">
<rect width="350" height="358" fill="white"/>
<path d="M307.5 172.5C307.5 245.4 248.18 304.5 175 304.5C101.82 304.5 42.5 245.4 42.5 172.5C42.5 99.6002 101.82 40.5 175 40.5C248.18 40.5 307.5 99.6002 307.5 172.5Z" fill="#D9D9D9" stroke="black"/>
<line x1="175.5" y1="40" x2="175.5" y2="305" stroke="black"/>
<line x1="42" y1="171.5" x2="308" y2="171.5" stroke="black"/>
<line x1="80.3429" y1="82.6361" x2="272.372" y2="263.606" stroke="black"/>
<line x1="79.657" y1="263.636" x2="271.657" y2="82.6362" stroke="black"/>
<line x1="118.45" y1="53.7826" x2="231.45" y2="287.783" stroke="black"/>
<line x1="117.55" y1="287.783" x2="230.55" y2="53.7826" stroke="black"/>
<line x1="53.8276" y1="219.531" x2="298.828" y2="129.531" stroke="black"/>
<line x1="54.1841" y1="122.535" x2="299.184" y2="219.535" stroke="black"/>
<path d="M172.115 167.614L40.9062 118.13L73.5416 67.8763L172.115 167.614Z" fill="#CA8CF0"/>
</svg>
