<?xml version="1.0" encoding="utf-8" standalone="no"?>
<!DOCTYPE svg PUBLIC "-//W3C//DTD SVG 1.1//EN"
  "http://www.w3.org/Graphics/SVG/1.1/DTD/svg11.dtd">
<svg xmlns:xlink="http://www.w3.org/1999/xlink" width="576pt" height="432pt" viewBox="0 0 576 432" xmlns="http://www.w3.org/2000/svg" version="1.1">
 <metadata>
  <rdf:RDF xmlns:dc="http://purl.org/dc/elements/1.1/" xmlns:cc="http://creativecommons.org/ns#" xmlns:rdf="http://www.w3.org/1999/02/22-rdf-syntax-ns#">
   <cc:Work>
    <dc:type rdf:resource="http://purl.org/dc/dcmitype/StillImage"/>
    <dc:date>2025-01-03T14:30:10.815130</dc:date>
    <dc:format>image/svg+xml</dc:format>
    <dc:creator>
     <cc:Agent>
      <dc:title>Matplotlib v3.10.0, https://matplotlib.org/</dc:title>
     </cc:Agent>
    </dc:creator>
   </cc:Work>
  </rdf:RDF>
 </metadata>
 <defs>
  <style type="text/css">*{stroke-linejoin: round; stroke-linecap: butt}</style>
 </defs>
 <g id="figure_1">
  <g id="patch_1">
   <path d="M 0 432 
L 576 432 
L 576 0 
L 0 0 
z
" style="fill: #ffffff"/>
  </g>
  <g id="axes_1">
   <g id="patch_2">
    <path d="M 44.615 74.14 
L 563.354831 74.14 
L 563.354831 26.16 
L 44.615 26.16 
z
" style="fill: #ffffff"/>
   </g>
   <g id="matplotlib.axis_1">
    <g id="xtick_1">
     <g id="line2d_1">
      <path d="M 68.194083 74.14 
L 68.194083 26.16 
" clip-path="url(#pceea220c3d)" style="fill: none; stroke-dasharray: 2.96,1.28; stroke-dashoffset: 0; stroke: #b0b0b0; stroke-opacity: 0.7; stroke-width: 0.8"/>
     </g>
     <g id="line2d_2">
      <defs>
       <path id="mb7e28f2668" d="M 0 0 
L 0 3.5 
" style="stroke: #000000; stroke-width: 0.8"/>
      </defs>
      <g>
       <use xlink:href="#mb7e28f2668" x="68.194083" y="74.14" style="stroke: #000000; stroke-width: 0.8"/>
      </g>
     </g>
     <g id="text_1">
      <!-- 0 -->
      <g transform="translate(65.012833 88.738437) scale(0.1 -0.1)">
       <defs>
        <path id="DejaVuSans-30" d="M 2034 4250 
Q 1547 4250 1301 3770 
Q 1056 3291 1056 2328 
Q 1056 1369 1301 889 
Q 1547 409 2034 409 
Q 2525 409 2770 889 
Q 3016 1369 3016 2328 
Q 3016 3291 2770 3770 
Q 2525 4250 2034 4250 
z
M 2034 4750 
Q 2819 4750 3233 4129 
Q 3647 3509 3647 2328 
Q 3647 1150 3233 529 
Q 2819 -91 2034 -91 
Q 1250 -91 836 529 
Q 422 1150 422 2328 
Q 422 3509 836 4129 
Q 1250 4750 2034 4750 
z
" transform="scale(0.015625)"/>
       </defs>
       <use xlink:href="#DejaVuSans-30"/>
      </g>
     </g>
    </g>
    <g id="xtick_2">
     <g id="line2d_3">
      <path d="M 149.221861 74.14 
L 149.221861 26.16 
" clip-path="url(#pceea220c3d)" style="fill: none; stroke-dasharray: 2.96,1.28; stroke-dashoffset: 0; stroke: #b0b0b0; stroke-opacity: 0.7; stroke-width: 0.8"/>
     </g>
     <g id="line2d_4">
      <g>
       <use xlink:href="#mb7e28f2668" x="149.221861" y="74.14" style="stroke: #000000; stroke-width: 0.8"/>
      </g>
     </g>
     <g id="text_2">
      <!-- 50 -->
      <g transform="translate(142.859361 88.738437) scale(0.1 -0.1)">
       <defs>
        <path id="DejaVuSans-35" d="M 691 4666 
L 3169 4666 
L 3169 4134 
L 1269 4134 
L 1269 2991 
Q 1406 3038 1543 3061 
Q 1681 3084 1819 3084 
Q 2600 3084 3056 2656 
Q 3513 2228 3513 1497 
Q 3513 744 3044 326 
Q 2575 -91 1722 -91 
Q 1428 -91 1123 -41 
Q 819 9 494 109 
L 494 744 
Q 775 591 1075 516 
Q 1375 441 1709 441 
Q 2250 441 2565 725 
Q 2881 1009 2881 1497 
Q 2881 1984 2565 2268 
Q 2250 2553 1709 2553 
Q 1456 2553 1204 2497 
Q 953 2441 691 2322 
L 691 4666 
z
" transform="scale(0.015625)"/>
       </defs>
       <use xlink:href="#DejaVuSans-35"/>
       <use xlink:href="#DejaVuSans-30" transform="translate(63.623047 0)"/>
      </g>
     </g>
    </g>
    <g id="xtick_3">
     <g id="line2d_5">
      <path d="M 230.249638 74.14 
L 230.249638 26.16 
" clip-path="url(#pceea220c3d)" style="fill: none; stroke-dasharray: 2.96,1.28; stroke-dashoffset: 0; stroke: #b0b0b0; stroke-opacity: 0.7; stroke-width: 0.8"/>
     </g>
     <g id="line2d_6">
      <g>
       <use xlink:href="#mb7e28f2668" x="230.249638" y="74.14" style="stroke: #000000; stroke-width: 0.8"/>
      </g>
     </g>
     <g id="text_3">
      <!-- 100 -->
      <g transform="translate(220.705888 88.738437) scale(0.1 -0.1)">
       <defs>
        <path id="DejaVuSans-31" d="M 794 531 
L 1825 531 
L 1825 4091 
L 703 3866 
L 703 4441 
L 1819 4666 
L 2450 4666 
L 2450 531 
L 3481 531 
L 3481 0 
L 794 0 
L 794 531 
z
" transform="scale(0.015625)"/>
       </defs>
       <use xlink:href="#DejaVuSans-31"/>
       <use xlink:href="#DejaVuSans-30" transform="translate(63.623047 0)"/>
       <use xlink:href="#DejaVuSans-30" transform="translate(127.246094 0)"/>
      </g>
     </g>
    </g>
    <g id="xtick_4">
     <g id="line2d_7">
      <path d="M 311.277416 74.14 
L 311.277416 26.16 
" clip-path="url(#pceea220c3d)" style="fill: none; stroke-dasharray: 2.96,1.28; stroke-dashoffset: 0; stroke: #b0b0b0; stroke-opacity: 0.7; stroke-width: 0.8"/>
     </g>
     <g id="line2d_8">
      <g>
       <use xlink:href="#mb7e28f2668" x="311.277416" y="74.14" style="stroke: #000000; stroke-width: 0.8"/>
      </g>
     </g>
     <g id="text_4">
      <!-- 150 -->
      <g transform="translate(301.733666 88.738437) scale(0.1 -0.1)">
       <use xlink:href="#DejaVuSans-31"/>
       <use xlink:href="#DejaVuSans-35" transform="translate(63.623047 0)"/>
       <use xlink:href="#DejaVuSans-30" transform="translate(127.246094 0)"/>
      </g>
     </g>
    </g>
    <g id="xtick_5">
     <g id="line2d_9">
      <path d="M 392.305193 74.14 
L 392.305193 26.16 
" clip-path="url(#pceea220c3d)" style="fill: none; stroke-dasharray: 2.96,1.28; stroke-dashoffset: 0; stroke: #b0b0b0; stroke-opacity: 0.7; stroke-width: 0.8"/>
     </g>
     <g id="line2d_10">
      <g>
       <use xlink:href="#mb7e28f2668" x="392.305193" y="74.14" style="stroke: #000000; stroke-width: 0.8"/>
      </g>
     </g>
     <g id="text_5">
      <!-- 200 -->
      <g transform="translate(382.761443 88.738437) scale(0.1 -0.1)">
       <defs>
        <path id="DejaVuSans-32" d="M 1228 531 
L 3431 531 
L 3431 0 
L 469 0 
L 469 531 
Q 828 903 1448 1529 
Q 2069 2156 2228 2338 
Q 2531 2678 2651 2914 
Q 2772 3150 2772 3378 
Q 2772 3750 2511 3984 
Q 2250 4219 1831 4219 
Q 1534 4219 1204 4116 
Q 875 4013 500 3803 
L 500 4441 
Q 881 4594 1212 4672 
Q 1544 4750 1819 4750 
Q 2544 4750 2975 4387 
Q 3406 4025 3406 3419 
Q 3406 3131 3298 2873 
Q 3191 2616 2906 2266 
Q 2828 2175 2409 1742 
Q 1991 1309 1228 531 
z
" transform="scale(0.015625)"/>
       </defs>
       <use xlink:href="#DejaVuSans-32"/>
       <use xlink:href="#DejaVuSans-30" transform="translate(63.623047 0)"/>
       <use xlink:href="#DejaVuSans-30" transform="translate(127.246094 0)"/>
      </g>
     </g>
    </g>
    <g id="xtick_6">
     <g id="line2d_11">
      <path d="M 473.332971 74.14 
L 473.332971 26.16 
" clip-path="url(#pceea220c3d)" style="fill: none; stroke-dasharray: 2.96,1.28; stroke-dashoffset: 0; stroke: #b0b0b0; stroke-opacity: 0.7; stroke-width: 0.8"/>
     </g>
     <g id="line2d_12">
      <g>
       <use xlink:href="#mb7e28f2668" x="473.332971" y="74.14" style="stroke: #000000; stroke-width: 0.8"/>
      </g>
     </g>
     <g id="text_6">
      <!-- 250 -->
      <g transform="translate(463.789221 88.738437) scale(0.1 -0.1)">
       <use xlink:href="#DejaVuSans-32"/>
       <use xlink:href="#DejaVuSans-35" transform="translate(63.623047 0)"/>
       <use xlink:href="#DejaVuSans-30" transform="translate(127.246094 0)"/>
      </g>
     </g>
    </g>
    <g id="xtick_7">
     <g id="line2d_13">
      <path d="M 554.360748 74.14 
L 554.360748 26.16 
" clip-path="url(#pceea220c3d)" style="fill: none; stroke-dasharray: 2.96,1.28; stroke-dashoffset: 0; stroke: #b0b0b0; stroke-opacity: 0.7; stroke-width: 0.8"/>
     </g>
     <g id="line2d_14">
      <g>
       <use xlink:href="#mb7e28f2668" x="554.360748" y="74.14" style="stroke: #000000; stroke-width: 0.8"/>
      </g>
     </g>
     <g id="text_7">
      <!-- 300 -->
      <g transform="translate(544.816998 88.738437) scale(0.1 -0.1)">
       <defs>
        <path id="DejaVuSans-33" d="M 2597 2516 
Q 3050 2419 3304 2112 
Q 3559 1806 3559 1356 
Q 3559 666 3084 287 
Q 2609 -91 1734 -91 
Q 1441 -91 1130 -33 
Q 819 25 488 141 
L 488 750 
Q 750 597 1062 519 
Q 1375 441 1716 441 
Q 2309 441 2620 675 
Q 2931 909 2931 1356 
Q 2931 1769 2642 2001 
Q 2353 2234 1838 2234 
L 1294 2234 
L 1294 2753 
L 1863 2753 
Q 2328 2753 2575 2939 
Q 2822 3125 2822 3475 
Q 2822 3834 2567 4026 
Q 2313 4219 1838 4219 
Q 1578 4219 1281 4162 
Q 984 4106 628 3988 
L 628 4550 
Q 988 4650 1302 4700 
Q 1616 4750 1894 4750 
Q 2613 4750 3031 4423 
Q 3450 4097 3450 3541 
Q 3450 3153 3228 2886 
Q 3006 2619 2597 2516 
z
" transform="scale(0.015625)"/>
       </defs>
       <use xlink:href="#DejaVuSans-33"/>
       <use xlink:href="#DejaVuSans-30" transform="translate(63.623047 0)"/>
       <use xlink:href="#DejaVuSans-30" transform="translate(127.246094 0)"/>
      </g>
     </g>
    </g>
    <g id="text_8">
     <!-- Request Number -->
     <g transform="translate(261.999759 102.416562) scale(0.1 -0.1)">
      <defs>
       <path id="DejaVuSans-52" d="M 2841 2188 
Q 3044 2119 3236 1894 
Q 3428 1669 3622 1275 
L 4263 0 
L 3584 0 
L 2988 1197 
Q 2756 1666 2539 1819 
Q 2322 1972 1947 1972 
L 1259 1972 
L 1259 0 
L 628 0 
L 628 4666 
L 2053 4666 
Q 2853 4666 3247 4331 
Q 3641 3997 3641 3322 
Q 3641 2881 3436 2590 
Q 3231 2300 2841 2188 
z
M 1259 4147 
L 1259 2491 
L 2053 2491 
Q 2509 2491 2742 2702 
Q 2975 2913 2975 3322 
Q 2975 3731 2742 3939 
Q 2509 4147 2053 4147 
L 1259 4147 
z
" transform="scale(0.015625)"/>
       <path id="DejaVuSans-65" d="M 3597 1894 
L 3597 1613 
L 953 1613 
Q 991 1019 1311 708 
Q 1631 397 2203 397 
Q 2534 397 2845 478 
Q 3156 559 3463 722 
L 3463 178 
Q 3153 47 2828 -22 
Q 2503 -91 2169 -91 
Q 1331 -91 842 396 
Q 353 884 353 1716 
Q 353 2575 817 3079 
Q 1281 3584 2069 3584 
Q 2775 3584 3186 3129 
Q 3597 2675 3597 1894 
z
M 3022 2063 
Q 3016 2534 2758 2815 
Q 2500 3097 2075 3097 
Q 1594 3097 1305 2825 
Q 1016 2553 972 2059 
L 3022 2063 
z
" transform="scale(0.015625)"/>
       <path id="DejaVuSans-71" d="M 947 1747 
Q 947 1113 1208 752 
Q 1469 391 1925 391 
Q 2381 391 2643 752 
Q 2906 1113 2906 1747 
Q 2906 2381 2643 2742 
Q 2381 3103 1925 3103 
Q 1469 3103 1208 2742 
Q 947 2381 947 1747 
z
M 2906 525 
Q 2725 213 2448 61 
Q 2172 -91 1784 -91 
Q 1150 -91 751 415 
Q 353 922 353 1747 
Q 353 2572 751 3078 
Q 1150 3584 1784 3584 
Q 2172 3584 2448 3432 
Q 2725 3281 2906 2969 
L 2906 3500 
L 3481 3500 
L 3481 -1331 
L 2906 -1331 
L 2906 525 
z
" transform="scale(0.015625)"/>
       <path id="DejaVuSans-75" d="M 544 1381 
L 544 3500 
L 1119 3500 
L 1119 1403 
Q 1119 906 1312 657 
Q 1506 409 1894 409 
Q 2359 409 2629 706 
Q 2900 1003 2900 1516 
L 2900 3500 
L 3475 3500 
L 3475 0 
L 2900 0 
L 2900 538 
Q 2691 219 2414 64 
Q 2138 -91 1772 -91 
Q 1169 -91 856 284 
Q 544 659 544 1381 
z
M 1991 3584 
L 1991 3584 
z
" transform="scale(0.015625)"/>
       <path id="DejaVuSans-73" d="M 2834 3397 
L 2834 2853 
Q 2591 2978 2328 3040 
Q 2066 3103 1784 3103 
Q 1356 3103 1142 2972 
Q 928 2841 928 2578 
Q 928 2378 1081 2264 
Q 1234 2150 1697 2047 
L 1894 2003 
Q 2506 1872 2764 1633 
Q 3022 1394 3022 966 
Q 3022 478 2636 193 
Q 2250 -91 1575 -91 
Q 1294 -91 989 -36 
Q 684 19 347 128 
L 347 722 
Q 666 556 975 473 
Q 1284 391 1588 391 
Q 1994 391 2212 530 
Q 2431 669 2431 922 
Q 2431 1156 2273 1281 
Q 2116 1406 1581 1522 
L 1381 1569 
Q 847 1681 609 1914 
Q 372 2147 372 2553 
Q 372 3047 722 3315 
Q 1072 3584 1716 3584 
Q 2034 3584 2315 3537 
Q 2597 3491 2834 3397 
z
" transform="scale(0.015625)"/>
       <path id="DejaVuSans-74" d="M 1172 4494 
L 1172 3500 
L 2356 3500 
L 2356 3053 
L 1172 3053 
L 1172 1153 
Q 1172 725 1289 603 
Q 1406 481 1766 481 
L 2356 481 
L 2356 0 
L 1766 0 
Q 1100 0 847 248 
Q 594 497 594 1153 
L 594 3053 
L 172 3053 
L 172 3500 
L 594 3500 
L 594 4494 
L 1172 4494 
z
" transform="scale(0.015625)"/>
       <path id="DejaVuSans-20" transform="scale(0.015625)"/>
       <path id="DejaVuSans-4e" d="M 628 4666 
L 1478 4666 
L 3547 763 
L 3547 4666 
L 4159 4666 
L 4159 0 
L 3309 0 
L 1241 3903 
L 1241 0 
L 628 0 
L 628 4666 
z
" transform="scale(0.015625)"/>
       <path id="DejaVuSans-6d" d="M 3328 2828 
Q 3544 3216 3844 3400 
Q 4144 3584 4550 3584 
Q 5097 3584 5394 3201 
Q 5691 2819 5691 2113 
L 5691 0 
L 5113 0 
L 5113 2094 
Q 5113 2597 4934 2840 
Q 4756 3084 4391 3084 
Q 3944 3084 3684 2787 
Q 3425 2491 3425 1978 
L 3425 0 
L 2847 0 
L 2847 2094 
Q 2847 2600 2669 2842 
Q 2491 3084 2119 3084 
Q 1678 3084 1418 2786 
Q 1159 2488 1159 1978 
L 1159 0 
L 581 0 
L 581 3500 
L 1159 3500 
L 1159 2956 
Q 1356 3278 1631 3431 
Q 1906 3584 2284 3584 
Q 2666 3584 2933 3390 
Q 3200 3197 3328 2828 
z
" transform="scale(0.015625)"/>
       <path id="DejaVuSans-62" d="M 3116 1747 
Q 3116 2381 2855 2742 
Q 2594 3103 2138 3103 
Q 1681 3103 1420 2742 
Q 1159 2381 1159 1747 
Q 1159 1113 1420 752 
Q 1681 391 2138 391 
Q 2594 391 2855 752 
Q 3116 1113 3116 1747 
z
M 1159 2969 
Q 1341 3281 1617 3432 
Q 1894 3584 2278 3584 
Q 2916 3584 3314 3078 
Q 3713 2572 3713 1747 
Q 3713 922 3314 415 
Q 2916 -91 2278 -91 
Q 1894 -91 1617 61 
Q 1341 213 1159 525 
L 1159 0 
L 581 0 
L 581 4863 
L 1159 4863 
L 1159 2969 
z
" transform="scale(0.015625)"/>
       <path id="DejaVuSans-72" d="M 2631 2963 
Q 2534 3019 2420 3045 
Q 2306 3072 2169 3072 
Q 1681 3072 1420 2755 
Q 1159 2438 1159 1844 
L 1159 0 
L 581 0 
L 581 3500 
L 1159 3500 
L 1159 2956 
Q 1341 3275 1631 3429 
Q 1922 3584 2338 3584 
Q 2397 3584 2469 3576 
Q 2541 3569 2628 3553 
L 2631 2963 
z
" transform="scale(0.015625)"/>
      </defs>
      <use xlink:href="#DejaVuSans-52"/>
      <use xlink:href="#DejaVuSans-65" transform="translate(64.982422 0)"/>
      <use xlink:href="#DejaVuSans-71" transform="translate(126.505859 0)"/>
      <use xlink:href="#DejaVuSans-75" transform="translate(189.982422 0)"/>
      <use xlink:href="#DejaVuSans-65" transform="translate(253.361328 0)"/>
      <use xlink:href="#DejaVuSans-73" transform="translate(314.884766 0)"/>
      <use xlink:href="#DejaVuSans-74" transform="translate(366.984375 0)"/>
      <use xlink:href="#DejaVuSans-20" transform="translate(406.193359 0)"/>
      <use xlink:href="#DejaVuSans-4e" transform="translate(437.980469 0)"/>
      <use xlink:href="#DejaVuSans-75" transform="translate(512.785156 0)"/>
      <use xlink:href="#DejaVuSans-6d" transform="translate(576.164062 0)"/>
      <use xlink:href="#DejaVuSans-62" transform="translate(673.576172 0)"/>
      <use xlink:href="#DejaVuSans-65" transform="translate(737.052734 0)"/>
      <use xlink:href="#DejaVuSans-72" transform="translate(798.576172 0)"/>
     </g>
    </g>
   </g>
   <g id="matplotlib.axis_2">
    <g id="ytick_1">
     <g id="line2d_15">
      <path d="M 44.615 71.961304 
L 563.354831 71.961304 
" clip-path="url(#pceea220c3d)" style="fill: none; stroke-dasharray: 2.96,1.28; stroke-dashoffset: 0; stroke: #b0b0b0; stroke-opacity: 0.7; stroke-width: 0.8"/>
     </g>
     <g id="line2d_16">
      <defs>
       <path id="m2e87aea207" d="M 0 0 
L -3.5 0 
" style="stroke: #000000; stroke-width: 0.8"/>
      </defs>
      <g>
       <use xlink:href="#m2e87aea207" x="44.615" y="71.961304" style="stroke: #000000; stroke-width: 0.8"/>
      </g>
     </g>
     <g id="text_9">
      <!-- 0 -->
      <g transform="translate(31.2525 75.760523) scale(0.1 -0.1)">
       <use xlink:href="#DejaVuSans-30"/>
      </g>
     </g>
    </g>
    <g id="ytick_2">
     <g id="line2d_17">
      <path d="M 44.615 27.537885 
L 563.354831 27.537885 
" clip-path="url(#pceea220c3d)" style="fill: none; stroke-dasharray: 2.96,1.28; stroke-dashoffset: 0; stroke: #b0b0b0; stroke-opacity: 0.7; stroke-width: 0.8"/>
     </g>
     <g id="line2d_18">
      <g>
       <use xlink:href="#m2e87aea207" x="44.615" y="27.537885" style="stroke: #000000; stroke-width: 0.8"/>
      </g>
     </g>
     <g id="text_10">
      <!-- 5 -->
      <g transform="translate(31.2525 31.337104) scale(0.1 -0.1)">
       <use xlink:href="#DejaVuSans-35"/>
      </g>
     </g>
    </g>
    <g id="text_11">
     <!-- Processing Time (s) -->
     <g transform="translate(25.172812 98.764844) rotate(-90) scale(0.1 -0.1)">
      <defs>
       <path id="DejaVuSans-50" d="M 1259 4147 
L 1259 2394 
L 2053 2394 
Q 2494 2394 2734 2622 
Q 2975 2850 2975 3272 
Q 2975 3691 2734 3919 
Q 2494 4147 2053 4147 
L 1259 4147 
z
M 628 4666 
L 2053 4666 
Q 2838 4666 3239 4311 
Q 3641 3956 3641 3272 
Q 3641 2581 3239 2228 
Q 2838 1875 2053 1875 
L 1259 1875 
L 1259 0 
L 628 0 
L 628 4666 
z
" transform="scale(0.015625)"/>
       <path id="DejaVuSans-6f" d="M 1959 3097 
Q 1497 3097 1228 2736 
Q 959 2375 959 1747 
Q 959 1119 1226 758 
Q 1494 397 1959 397 
Q 2419 397 2687 759 
Q 2956 1122 2956 1747 
Q 2956 2369 2687 2733 
Q 2419 3097 1959 3097 
z
M 1959 3584 
Q 2709 3584 3137 3096 
Q 3566 2609 3566 1747 
Q 3566 888 3137 398 
Q 2709 -91 1959 -91 
Q 1206 -91 779 398 
Q 353 888 353 1747 
Q 353 2609 779 3096 
Q 1206 3584 1959 3584 
z
" transform="scale(0.015625)"/>
       <path id="DejaVuSans-63" d="M 3122 3366 
L 3122 2828 
Q 2878 2963 2633 3030 
Q 2388 3097 2138 3097 
Q 1578 3097 1268 2742 
Q 959 2388 959 1747 
Q 959 1106 1268 751 
Q 1578 397 2138 397 
Q 2388 397 2633 464 
Q 2878 531 3122 666 
L 3122 134 
Q 2881 22 2623 -34 
Q 2366 -91 2075 -91 
Q 1284 -91 818 406 
Q 353 903 353 1747 
Q 353 2603 823 3093 
Q 1294 3584 2113 3584 
Q 2378 3584 2631 3529 
Q 2884 3475 3122 3366 
z
" transform="scale(0.015625)"/>
       <path id="DejaVuSans-69" d="M 603 3500 
L 1178 3500 
L 1178 0 
L 603 0 
L 603 3500 
z
M 603 4863 
L 1178 4863 
L 1178 4134 
L 603 4134 
L 603 4863 
z
" transform="scale(0.015625)"/>
       <path id="DejaVuSans-6e" d="M 3513 2113 
L 3513 0 
L 2938 0 
L 2938 2094 
Q 2938 2591 2744 2837 
Q 2550 3084 2163 3084 
Q 1697 3084 1428 2787 
Q 1159 2491 1159 1978 
L 1159 0 
L 581 0 
L 581 3500 
L 1159 3500 
L 1159 2956 
Q 1366 3272 1645 3428 
Q 1925 3584 2291 3584 
Q 2894 3584 3203 3211 
Q 3513 2838 3513 2113 
z
" transform="scale(0.015625)"/>
       <path id="DejaVuSans-67" d="M 2906 1791 
Q 2906 2416 2648 2759 
Q 2391 3103 1925 3103 
Q 1463 3103 1205 2759 
Q 947 2416 947 1791 
Q 947 1169 1205 825 
Q 1463 481 1925 481 
Q 2391 481 2648 825 
Q 2906 1169 2906 1791 
z
M 3481 434 
Q 3481 -459 3084 -895 
Q 2688 -1331 1869 -1331 
Q 1566 -1331 1297 -1286 
Q 1028 -1241 775 -1147 
L 775 -588 
Q 1028 -725 1275 -790 
Q 1522 -856 1778 -856 
Q 2344 -856 2625 -561 
Q 2906 -266 2906 331 
L 2906 616 
Q 2728 306 2450 153 
Q 2172 0 1784 0 
Q 1141 0 747 490 
Q 353 981 353 1791 
Q 353 2603 747 3093 
Q 1141 3584 1784 3584 
Q 2172 3584 2450 3431 
Q 2728 3278 2906 2969 
L 2906 3500 
L 3481 3500 
L 3481 434 
z
" transform="scale(0.015625)"/>
       <path id="DejaVuSans-54" d="M -19 4666 
L 3928 4666 
L 3928 4134 
L 2272 4134 
L 2272 0 
L 1638 0 
L 1638 4134 
L -19 4134 
L -19 4666 
z
" transform="scale(0.015625)"/>
       <path id="DejaVuSans-28" d="M 1984 4856 
Q 1566 4138 1362 3434 
Q 1159 2731 1159 2009 
Q 1159 1288 1364 580 
Q 1569 -128 1984 -844 
L 1484 -844 
Q 1016 -109 783 600 
Q 550 1309 550 2009 
Q 550 2706 781 3412 
Q 1013 4119 1484 4856 
L 1984 4856 
z
" transform="scale(0.015625)"/>
       <path id="DejaVuSans-29" d="M 513 4856 
L 1013 4856 
Q 1481 4119 1714 3412 
Q 1947 2706 1947 2009 
Q 1947 1309 1714 600 
Q 1481 -109 1013 -844 
L 513 -844 
Q 928 -128 1133 580 
Q 1338 1288 1338 2009 
Q 1338 2731 1133 3434 
Q 928 4138 513 4856 
z
" transform="scale(0.015625)"/>
      </defs>
      <use xlink:href="#DejaVuSans-50"/>
      <use xlink:href="#DejaVuSans-72" transform="translate(58.552734 0)"/>
      <use xlink:href="#DejaVuSans-6f" transform="translate(97.416016 0)"/>
      <use xlink:href="#DejaVuSans-63" transform="translate(158.597656 0)"/>
      <use xlink:href="#DejaVuSans-65" transform="translate(213.578125 0)"/>
      <use xlink:href="#DejaVuSans-73" transform="translate(275.101562 0)"/>
      <use xlink:href="#DejaVuSans-73" transform="translate(327.201172 0)"/>
      <use xlink:href="#DejaVuSans-69" transform="translate(379.300781 0)"/>
      <use xlink:href="#DejaVuSans-6e" transform="translate(407.083984 0)"/>
      <use xlink:href="#DejaVuSans-67" transform="translate(470.462891 0)"/>
      <use xlink:href="#DejaVuSans-20" transform="translate(533.939453 0)"/>
      <use xlink:href="#DejaVuSans-54" transform="translate(565.726562 0)"/>
      <use xlink:href="#DejaVuSans-69" transform="translate(623.685547 0)"/>
      <use xlink:href="#DejaVuSans-6d" transform="translate(651.46875 0)"/>
      <use xlink:href="#DejaVuSans-65" transform="translate(748.880859 0)"/>
      <use xlink:href="#DejaVuSans-20" transform="translate(810.404297 0)"/>
      <use xlink:href="#DejaVuSans-28" transform="translate(842.191406 0)"/>
      <use xlink:href="#DejaVuSans-73" transform="translate(881.205078 0)"/>
      <use xlink:href="#DejaVuSans-29" transform="translate(933.304688 0)"/>
     </g>
    </g>
   </g>
   <g id="line2d_19">
    <path d="M 68.194083 69.00952 
L 69.814639 53.465318 
L 71.435194 70.480527 
L 73.05575 70.961481 
L 74.676305 70.81378 
L 76.296861 65.889457 
L 77.917417 68.379266 
L 79.537972 65.404333 
L 81.158528 69.0035 
L 82.779083 52.603603 
L 84.399639 61.869462 
L 86.020194 58.95403 
L 87.64075 68.502069 
L 90.881861 65.495645 
L 92.502416 70.358579 
L 94.122972 54.655094 
L 95.743528 60.597135 
L 97.364083 52.159081 
L 98.984639 62.098318 
L 100.605194 63.56643 
L 102.22575 64.058191 
L 103.846305 60.877063 
L 105.466861 61.70321 
L 107.087416 68.992913 
L 108.707972 65.991984 
L 110.328528 70.10492 
L 111.949083 65.344046 
L 113.569639 69.241238 
L 115.190194 49.625186 
L 116.81075 68.206808 
L 118.431305 52.973486 
L 120.051861 52.725996 
L 121.672416 59.532155 
L 123.292972 63.487495 
L 124.913527 71.4803 
L 126.534083 71.774169 
L 128.154639 61.712584 
L 129.775194 70.654746 
L 131.39575 70.686885 
L 133.016305 70.018366 
L 134.636861 64.978136 
L 136.257416 50.481806 
L 137.877972 63.936576 
L 139.498527 50.752115 
L 141.119083 71.673485 
L 142.739639 71.884309 
L 144.360194 70.214873 
L 145.98075 59.450904 
L 147.601305 64.200276 
L 149.221861 62.63491 
L 150.842416 60.156253 
L 152.462972 71.084976 
L 154.083527 57.311747 
L 155.704083 54.385489 
L 157.324638 62.504197 
L 158.945194 65.467606 
L 160.56575 70.665254 
L 162.186305 63.034382 
L 163.806861 70.661764 
L 165.427416 62.850996 
L 167.047972 62.021418 
L 168.668527 63.767194 
L 170.289083 69.688815 
L 171.909638 70.745022 
L 173.530194 64.460239 
L 175.150749 67.834839 
L 176.771305 40.193696 
L 178.391861 71.017835 
L 180.012416 59.434735 
L 181.632972 62.423723 
L 183.253527 71.45747 
L 184.874083 63.168066 
L 186.494638 69.746 
L 188.115194 71.226303 
L 191.356305 58.026014 
L 192.976861 61.001942 
L 194.597416 57.796531 
L 196.217972 69.884647 
L 197.838527 70.380496 
L 199.459083 67.584988 
L 202.700194 70.545419 
L 204.320749 65.012659 
L 205.941305 43.177978 
L 207.56186 67.839442 
L 209.182416 51.085599 
L 210.802972 60.421159 
L 212.423527 66.388451 
L 214.044083 62.26132 
L 215.664638 68.937181 
L 217.285194 58.371421 
L 218.905749 62.160691 
L 220.526305 69.379383 
L 222.14686 56.495642 
L 223.767416 62.508976 
L 225.387972 57.665872 
L 227.008527 68.88211 
L 228.629083 54.401546 
L 230.249638 67.310946 
L 231.870194 60.395121 
L 233.490749 70.923962 
L 235.111305 68.962439 
L 236.73186 68.545861 
L 238.352416 65.708076 
L 239.972971 65.201774 
L 241.593527 65.991516 
L 243.214083 45.604276 
L 244.834638 46.166864 
L 246.455194 61.644847 
L 248.075749 66.514516 
L 249.696305 56.355381 
L 251.31686 50.612114 
L 252.937416 68.798609 
L 254.557971 65.809412 
L 256.178527 69.91585 
L 257.799082 65.957772 
L 259.419638 71.435493 
L 261.040194 66.958641 
L 262.660749 71.596686 
L 264.281305 70.481739 
L 265.90186 64.774727 
L 267.522416 69.489414 
L 269.142971 58.147092 
L 270.763527 63.53207 
L 272.384082 67.898475 
L 274.004638 63.565234 
L 275.625194 52.304106 
L 277.245749 56.112039 
L 278.866305 68.824779 
L 280.48686 66.090768 
L 282.107416 63.698932 
L 283.727971 51.517484 
L 285.348527 45.731461 
L 286.969082 71.149544 
L 288.589638 64.207345 
L 290.210193 67.613407 
L 291.830749 61.337582 
L 293.451305 70.725398 
L 295.07186 69.989146 
L 296.692416 64.067242 
L 298.312971 50.984871 
L 299.933527 70.216438 
L 301.554082 29.245399 
L 303.174638 67.102049 
L 304.795193 70.822203 
L 306.415749 45.036602 
L 308.036305 66.197573 
L 309.65686 67.004252 
L 311.277416 60.905138 
L 312.897971 64.048136 
L 314.518527 45.116096 
L 316.139082 68.346374 
L 317.759638 61.668282 
L 319.380193 57.184269 
L 321.000749 61.092848 
L 322.621304 69.350848 
L 324.24186 67.631883 
L 325.862416 46.945899 
L 327.482971 70.864972 
L 329.103527 67.168445 
L 330.724082 64.485686 
L 332.344638 31.394336 
L 333.965193 71.011717 
L 335.585749 62.641318 
L 337.206304 71.853412 
L 338.82686 46.033255 
L 340.447416 71.654173 
L 342.067971 66.231618 
L 343.688527 70.20416 
L 345.309082 65.071157 
L 346.929638 59.139009 
L 348.550193 46.009428 
L 350.170749 71.926156 
L 351.791304 66.286697 
L 353.41186 69.127295 
L 355.032415 68.248314 
L 356.652971 71.298255 
L 358.273527 58.02124 
L 359.894082 70.360799 
L 361.514638 58.761543 
L 363.135193 65.054517 
L 364.755749 66.871241 
L 366.376304 55.467277 
L 367.99686 54.830055 
L 369.617415 53.938991 
L 371.237971 68.813755 
L 372.858526 59.374632 
L 374.479082 67.654098 
L 376.099638 65.434631 
L 377.720193 68.079868 
L 379.340749 65.041684 
L 380.961304 62.596496 
L 382.58186 68.8064 
L 384.202415 68.337793 
L 385.822971 65.694747 
L 387.443526 68.543791 
L 389.064082 62.997311 
L 390.684638 70.377079 
L 392.305193 67.749303 
L 393.925749 68.565782 
L 395.546304 66.871834 
L 397.16686 68.27339 
L 398.787415 71.788501 
L 400.407971 69.581803 
L 402.028526 68.963996 
L 403.649082 71.959091 
L 405.269637 70.712167 
L 406.890193 59.361881 
L 408.510749 62.770344 
L 410.131304 71.277432 
L 411.75186 69.144114 
L 413.372415 71.127687 
L 414.992971 71.76721 
L 416.613526 54.490313 
L 418.234082 68.121435 
L 419.854637 70.084364 
L 421.475193 69.791325 
L 423.095749 69.761137 
L 424.716304 67.686002 
L 426.33686 71.68349 
L 427.957415 29.205961 
L 429.577971 69.821289 
L 431.198526 66.582321 
L 432.819082 71.903667 
L 434.439637 65.375486 
L 436.060193 68.600445 
L 437.680748 70.564176 
L 439.301304 64.963327 
L 440.92186 66.470593 
L 442.542415 45.966304 
L 444.162971 63.138997 
L 445.783526 66.011227 
L 447.404082 68.364031 
L 449.024637 65.864147 
L 450.645193 70.494929 
L 452.265748 70.797608 
L 453.886304 60.879471 
L 455.50686 68.651474 
L 457.127415 64.958095 
L 458.747971 70.307189 
L 460.368526 63.610539 
L 461.989082 68.244685 
L 463.609637 60.294453 
L 465.230193 70.595962 
L 466.850748 66.691529 
L 468.471304 59.935489 
L 470.091859 43.10118 
L 471.712415 71.075493 
L 473.332971 71.552563 
L 474.953526 65.699904 
L 476.574082 71.069679 
L 478.194637 69.153355 
L 479.815193 70.337494 
L 481.435748 56.800874 
L 483.056304 51.641461 
L 484.676859 49.887047 
L 486.297415 28.340909 
L 487.91797 67.416371 
L 489.538526 58.314939 
L 491.159082 69.928081 
L 492.779637 71.354133 
L 494.400193 65.46189 
L 496.020748 54.334592 
L 497.641304 65.249527 
L 499.261859 62.145561 
L 500.882415 68.730555 
L 502.50297 53.471323 
L 504.123526 71.899583 
L 505.744082 64.483592 
L 507.364637 69.929294 
L 508.985193 54.288323 
L 510.605748 43.885133 
L 512.226304 68.62612 
L 513.846859 68.677634 
L 515.467415 69.745568 
L 517.08797 66.149706 
L 518.708526 64.849305 
L 520.329081 70.325566 
L 521.949637 68.698885 
L 523.570193 61.335785 
L 525.190748 66.151172 
L 526.811304 30.334678 
L 528.431859 55.404444 
L 530.052415 71.161777 
L 531.67297 65.720978 
L 533.293526 69.997411 
L 534.914081 67.764077 
L 536.534637 66.733993 
L 538.155193 43.618428 
L 539.775748 68.813307 
L 539.775748 68.813307 
" clip-path="url(#pceea220c3d)" style="fill: none; stroke: #1f77b4; stroke-width: 1.5; stroke-linecap: square"/>
   </g>
   <g id="patch_3">
    <path d="M 44.615 74.14 
L 44.615 26.16 
" style="fill: none; stroke: #000000; stroke-width: 0.8; stroke-linejoin: miter; stroke-linecap: square"/>
   </g>
   <g id="patch_4">
    <path d="M 563.354831 74.14 
L 563.354831 26.16 
" style="fill: none; stroke: #000000; stroke-width: 0.8; stroke-linejoin: miter; stroke-linecap: square"/>
   </g>
   <g id="patch_5">
    <path d="M 44.615 74.14 
L 563.354831 74.14 
" style="fill: none; stroke: #000000; stroke-width: 0.8; stroke-linejoin: miter; stroke-linecap: square"/>
   </g>
   <g id="patch_6">
    <path d="M 44.615 26.16 
L 563.354831 26.16 
" style="fill: none; stroke: #000000; stroke-width: 0.8; stroke-linejoin: miter; stroke-linecap: square"/>
   </g>
   <g id="text_12">
    <!-- Processing Time -->
    <g transform="translate(248.554291 20.16) scale(0.12 -0.12)">
     <defs>
      <path id="DejaVuSans-Bold-50" d="M 588 4666 
L 2584 4666 
Q 3475 4666 3951 4270 
Q 4428 3875 4428 3144 
Q 4428 2409 3951 2014 
Q 3475 1619 2584 1619 
L 1791 1619 
L 1791 0 
L 588 0 
L 588 4666 
z
M 1791 3794 
L 1791 2491 
L 2456 2491 
Q 2806 2491 2997 2661 
Q 3188 2831 3188 3144 
Q 3188 3456 2997 3625 
Q 2806 3794 2456 3794 
L 1791 3794 
z
" transform="scale(0.015625)"/>
      <path id="DejaVuSans-Bold-72" d="M 3138 2547 
Q 2991 2616 2845 2648 
Q 2700 2681 2553 2681 
Q 2122 2681 1889 2404 
Q 1656 2128 1656 1613 
L 1656 0 
L 538 0 
L 538 3500 
L 1656 3500 
L 1656 2925 
Q 1872 3269 2151 3426 
Q 2431 3584 2822 3584 
Q 2878 3584 2943 3579 
Q 3009 3575 3134 3559 
L 3138 2547 
z
" transform="scale(0.015625)"/>
      <path id="DejaVuSans-Bold-6f" d="M 2203 2784 
Q 1831 2784 1636 2517 
Q 1441 2250 1441 1747 
Q 1441 1244 1636 976 
Q 1831 709 2203 709 
Q 2569 709 2762 976 
Q 2956 1244 2956 1747 
Q 2956 2250 2762 2517 
Q 2569 2784 2203 2784 
z
M 2203 3584 
Q 3106 3584 3614 3096 
Q 4122 2609 4122 1747 
Q 4122 884 3614 396 
Q 3106 -91 2203 -91 
Q 1297 -91 786 396 
Q 275 884 275 1747 
Q 275 2609 786 3096 
Q 1297 3584 2203 3584 
z
" transform="scale(0.015625)"/>
      <path id="DejaVuSans-Bold-63" d="M 3366 3391 
L 3366 2478 
Q 3138 2634 2908 2709 
Q 2678 2784 2431 2784 
Q 1963 2784 1702 2511 
Q 1441 2238 1441 1747 
Q 1441 1256 1702 982 
Q 1963 709 2431 709 
Q 2694 709 2930 787 
Q 3166 866 3366 1019 
L 3366 103 
Q 3103 6 2833 -42 
Q 2563 -91 2291 -91 
Q 1344 -91 809 395 
Q 275 881 275 1747 
Q 275 2613 809 3098 
Q 1344 3584 2291 3584 
Q 2566 3584 2833 3536 
Q 3100 3488 3366 3391 
z
" transform="scale(0.015625)"/>
      <path id="DejaVuSans-Bold-65" d="M 4031 1759 
L 4031 1441 
L 1416 1441 
Q 1456 1047 1700 850 
Q 1944 653 2381 653 
Q 2734 653 3104 758 
Q 3475 863 3866 1075 
L 3866 213 
Q 3469 63 3072 -14 
Q 2675 -91 2278 -91 
Q 1328 -91 801 392 
Q 275 875 275 1747 
Q 275 2603 792 3093 
Q 1309 3584 2216 3584 
Q 3041 3584 3536 3087 
Q 4031 2591 4031 1759 
z
M 2881 2131 
Q 2881 2450 2695 2645 
Q 2509 2841 2209 2841 
Q 1884 2841 1681 2658 
Q 1478 2475 1428 2131 
L 2881 2131 
z
" transform="scale(0.015625)"/>
      <path id="DejaVuSans-Bold-73" d="M 3272 3391 
L 3272 2541 
Q 2913 2691 2578 2766 
Q 2244 2841 1947 2841 
Q 1628 2841 1473 2761 
Q 1319 2681 1319 2516 
Q 1319 2381 1436 2309 
Q 1553 2238 1856 2203 
L 2053 2175 
Q 2913 2066 3209 1816 
Q 3506 1566 3506 1031 
Q 3506 472 3093 190 
Q 2681 -91 1863 -91 
Q 1516 -91 1145 -36 
Q 775 19 384 128 
L 384 978 
Q 719 816 1070 734 
Q 1422 653 1784 653 
Q 2113 653 2278 743 
Q 2444 834 2444 1013 
Q 2444 1163 2330 1236 
Q 2216 1309 1875 1350 
L 1678 1375 
Q 931 1469 631 1722 
Q 331 1975 331 2491 
Q 331 3047 712 3315 
Q 1094 3584 1881 3584 
Q 2191 3584 2531 3537 
Q 2872 3491 3272 3391 
z
" transform="scale(0.015625)"/>
      <path id="DejaVuSans-Bold-69" d="M 538 3500 
L 1656 3500 
L 1656 0 
L 538 0 
L 538 3500 
z
M 538 4863 
L 1656 4863 
L 1656 3950 
L 538 3950 
L 538 4863 
z
" transform="scale(0.015625)"/>
      <path id="DejaVuSans-Bold-6e" d="M 4056 2131 
L 4056 0 
L 2931 0 
L 2931 347 
L 2931 1631 
Q 2931 2084 2911 2256 
Q 2891 2428 2841 2509 
Q 2775 2619 2662 2680 
Q 2550 2741 2406 2741 
Q 2056 2741 1856 2470 
Q 1656 2200 1656 1722 
L 1656 0 
L 538 0 
L 538 3500 
L 1656 3500 
L 1656 2988 
Q 1909 3294 2193 3439 
Q 2478 3584 2822 3584 
Q 3428 3584 3742 3212 
Q 4056 2841 4056 2131 
z
" transform="scale(0.015625)"/>
      <path id="DejaVuSans-Bold-67" d="M 2919 594 
Q 2688 288 2409 144 
Q 2131 0 1766 0 
Q 1125 0 706 504 
Q 288 1009 288 1791 
Q 288 2575 706 3076 
Q 1125 3578 1766 3578 
Q 2131 3578 2409 3434 
Q 2688 3291 2919 2981 
L 2919 3500 
L 4044 3500 
L 4044 353 
Q 4044 -491 3511 -936 
Q 2978 -1381 1966 -1381 
Q 1638 -1381 1331 -1331 
Q 1025 -1281 716 -1178 
L 716 -306 
Q 1009 -475 1290 -558 
Q 1572 -641 1856 -641 
Q 2406 -641 2662 -400 
Q 2919 -159 2919 353 
L 2919 594 
z
M 2181 2772 
Q 1834 2772 1640 2515 
Q 1447 2259 1447 1791 
Q 1447 1309 1634 1061 
Q 1822 813 2181 813 
Q 2531 813 2725 1069 
Q 2919 1325 2919 1791 
Q 2919 2259 2725 2515 
Q 2531 2772 2181 2772 
z
" transform="scale(0.015625)"/>
      <path id="DejaVuSans-Bold-20" transform="scale(0.015625)"/>
      <path id="DejaVuSans-Bold-54" d="M 31 4666 
L 4331 4666 
L 4331 3756 
L 2784 3756 
L 2784 0 
L 1581 0 
L 1581 3756 
L 31 3756 
L 31 4666 
z
" transform="scale(0.015625)"/>
      <path id="DejaVuSans-Bold-6d" d="M 3781 2919 
Q 3994 3244 4286 3414 
Q 4578 3584 4928 3584 
Q 5531 3584 5847 3212 
Q 6163 2841 6163 2131 
L 6163 0 
L 5038 0 
L 5038 1825 
Q 5041 1866 5042 1909 
Q 5044 1953 5044 2034 
Q 5044 2406 4934 2573 
Q 4825 2741 4581 2741 
Q 4263 2741 4089 2478 
Q 3916 2216 3909 1719 
L 3909 0 
L 2784 0 
L 2784 1825 
Q 2784 2406 2684 2573 
Q 2584 2741 2328 2741 
Q 2006 2741 1831 2477 
Q 1656 2213 1656 1722 
L 1656 0 
L 531 0 
L 531 3500 
L 1656 3500 
L 1656 2988 
Q 1863 3284 2130 3434 
Q 2397 3584 2719 3584 
Q 3081 3584 3359 3409 
Q 3638 3234 3781 2919 
z
" transform="scale(0.015625)"/>
     </defs>
     <use xlink:href="#DejaVuSans-Bold-50"/>
     <use xlink:href="#DejaVuSans-Bold-72" transform="translate(73.291016 0)"/>
     <use xlink:href="#DejaVuSans-Bold-6f" transform="translate(122.607422 0)"/>
     <use xlink:href="#DejaVuSans-Bold-63" transform="translate(191.308594 0)"/>
     <use xlink:href="#DejaVuSans-Bold-65" transform="translate(250.585938 0)"/>
     <use xlink:href="#DejaVuSans-Bold-73" transform="translate(318.408203 0)"/>
     <use xlink:href="#DejaVuSans-Bold-73" transform="translate(377.929688 0)"/>
     <use xlink:href="#DejaVuSans-Bold-69" transform="translate(437.451172 0)"/>
     <use xlink:href="#DejaVuSans-Bold-6e" transform="translate(471.728516 0)"/>
     <use xlink:href="#DejaVuSans-Bold-67" transform="translate(542.919922 0)"/>
     <use xlink:href="#DejaVuSans-Bold-20" transform="translate(614.501953 0)"/>
     <use xlink:href="#DejaVuSans-Bold-54" transform="translate(649.316406 0)"/>
     <use xlink:href="#DejaVuSans-Bold-69" transform="translate(717.529297 0)"/>
     <use xlink:href="#DejaVuSans-Bold-6d" transform="translate(751.806641 0)"/>
     <use xlink:href="#DejaVuSans-Bold-65" transform="translate(856.005859 0)"/>
    </g>
   </g>
  </g>
  <g id="axes_2">
   <g id="patch_7">
    <path d="M 44.615 179.44 
L 563.354831 179.44 
L 563.354831 131.46 
L 44.615 131.46 
z
" style="fill: #ffffff"/>
   </g>
   <g id="matplotlib.axis_3">
    <g id="xtick_8">
     <g id="line2d_20">
      <path d="M 68.194083 179.44 
L 68.194083 131.46 
" clip-path="url(#pe27777a153)" style="fill: none; stroke-dasharray: 2.96,1.28; stroke-dashoffset: 0; stroke: #b0b0b0; stroke-opacity: 0.7; stroke-width: 0.8"/>
     </g>
     <g id="line2d_21">
      <g>
       <use xlink:href="#mb7e28f2668" x="68.194083" y="179.44" style="stroke: #000000; stroke-width: 0.8"/>
      </g>
     </g>
     <g id="text_13">
      <!-- 0 -->
      <g transform="translate(65.012833 194.038437) scale(0.1 -0.1)">
       <use xlink:href="#DejaVuSans-30"/>
      </g>
     </g>
    </g>
    <g id="xtick_9">
     <g id="line2d_22">
      <path d="M 149.221861 179.44 
L 149.221861 131.46 
" clip-path="url(#pe27777a153)" style="fill: none; stroke-dasharray: 2.96,1.28; stroke-dashoffset: 0; stroke: #b0b0b0; stroke-opacity: 0.7; stroke-width: 0.8"/>
     </g>
     <g id="line2d_23">
      <g>
       <use xlink:href="#mb7e28f2668" x="149.221861" y="179.44" style="stroke: #000000; stroke-width: 0.8"/>
      </g>
     </g>
     <g id="text_14">
      <!-- 50 -->
      <g transform="translate(142.859361 194.038437) scale(0.1 -0.1)">
       <use xlink:href="#DejaVuSans-35"/>
       <use xlink:href="#DejaVuSans-30" transform="translate(63.623047 0)"/>
      </g>
     </g>
    </g>
    <g id="xtick_10">
     <g id="line2d_24">
      <path d="M 230.249638 179.44 
L 230.249638 131.46 
" clip-path="url(#pe27777a153)" style="fill: none; stroke-dasharray: 2.96,1.28; stroke-dashoffset: 0; stroke: #b0b0b0; stroke-opacity: 0.7; stroke-width: 0.8"/>
     </g>
     <g id="line2d_25">
      <g>
       <use xlink:href="#mb7e28f2668" x="230.249638" y="179.44" style="stroke: #000000; stroke-width: 0.8"/>
      </g>
     </g>
     <g id="text_15">
      <!-- 100 -->
      <g transform="translate(220.705888 194.038437) scale(0.1 -0.1)">
       <use xlink:href="#DejaVuSans-31"/>
       <use xlink:href="#DejaVuSans-30" transform="translate(63.623047 0)"/>
       <use xlink:href="#DejaVuSans-30" transform="translate(127.246094 0)"/>
      </g>
     </g>
    </g>
    <g id="xtick_11">
     <g id="line2d_26">
      <path d="M 311.277416 179.44 
L 311.277416 131.46 
" clip-path="url(#pe27777a153)" style="fill: none; stroke-dasharray: 2.96,1.28; stroke-dashoffset: 0; stroke: #b0b0b0; stroke-opacity: 0.7; stroke-width: 0.8"/>
     </g>
     <g id="line2d_27">
      <g>
       <use xlink:href="#mb7e28f2668" x="311.277416" y="179.44" style="stroke: #000000; stroke-width: 0.8"/>
      </g>
     </g>
     <g id="text_16">
      <!-- 150 -->
      <g transform="translate(301.733666 194.038437) scale(0.1 -0.1)">
       <use xlink:href="#DejaVuSans-31"/>
       <use xlink:href="#DejaVuSans-35" transform="translate(63.623047 0)"/>
       <use xlink:href="#DejaVuSans-30" transform="translate(127.246094 0)"/>
      </g>
     </g>
    </g>
    <g id="xtick_12">
     <g id="line2d_28">
      <path d="M 392.305193 179.44 
L 392.305193 131.46 
" clip-path="url(#pe27777a153)" style="fill: none; stroke-dasharray: 2.96,1.28; stroke-dashoffset: 0; stroke: #b0b0b0; stroke-opacity: 0.7; stroke-width: 0.8"/>
     </g>
     <g id="line2d_29">
      <g>
       <use xlink:href="#mb7e28f2668" x="392.305193" y="179.44" style="stroke: #000000; stroke-width: 0.8"/>
      </g>
     </g>
     <g id="text_17">
      <!-- 200 -->
      <g transform="translate(382.761443 194.038437) scale(0.1 -0.1)">
       <use xlink:href="#DejaVuSans-32"/>
       <use xlink:href="#DejaVuSans-30" transform="translate(63.623047 0)"/>
       <use xlink:href="#DejaVuSans-30" transform="translate(127.246094 0)"/>
      </g>
     </g>
    </g>
    <g id="xtick_13">
     <g id="line2d_30">
      <path d="M 473.332971 179.44 
L 473.332971 131.46 
" clip-path="url(#pe27777a153)" style="fill: none; stroke-dasharray: 2.96,1.28; stroke-dashoffset: 0; stroke: #b0b0b0; stroke-opacity: 0.7; stroke-width: 0.8"/>
     </g>
     <g id="line2d_31">
      <g>
       <use xlink:href="#mb7e28f2668" x="473.332971" y="179.44" style="stroke: #000000; stroke-width: 0.8"/>
      </g>
     </g>
     <g id="text_18">
      <!-- 250 -->
      <g transform="translate(463.789221 194.038437) scale(0.1 -0.1)">
       <use xlink:href="#DejaVuSans-32"/>
       <use xlink:href="#DejaVuSans-35" transform="translate(63.623047 0)"/>
       <use xlink:href="#DejaVuSans-30" transform="translate(127.246094 0)"/>
      </g>
     </g>
    </g>
    <g id="xtick_14">
     <g id="line2d_32">
      <path d="M 554.360748 179.44 
L 554.360748 131.46 
" clip-path="url(#pe27777a153)" style="fill: none; stroke-dasharray: 2.96,1.28; stroke-dashoffset: 0; stroke: #b0b0b0; stroke-opacity: 0.7; stroke-width: 0.8"/>
     </g>
     <g id="line2d_33">
      <g>
       <use xlink:href="#mb7e28f2668" x="554.360748" y="179.44" style="stroke: #000000; stroke-width: 0.8"/>
      </g>
     </g>
     <g id="text_19">
      <!-- 300 -->
      <g transform="translate(544.816998 194.038437) scale(0.1 -0.1)">
       <use xlink:href="#DejaVuSans-33"/>
       <use xlink:href="#DejaVuSans-30" transform="translate(63.623047 0)"/>
       <use xlink:href="#DejaVuSans-30" transform="translate(127.246094 0)"/>
      </g>
     </g>
    </g>
    <g id="text_20">
     <!-- Request Number -->
     <g transform="translate(261.999759 207.716562) scale(0.1 -0.1)">
      <use xlink:href="#DejaVuSans-52"/>
      <use xlink:href="#DejaVuSans-65" transform="translate(64.982422 0)"/>
      <use xlink:href="#DejaVuSans-71" transform="translate(126.505859 0)"/>
      <use xlink:href="#DejaVuSans-75" transform="translate(189.982422 0)"/>
      <use xlink:href="#DejaVuSans-65" transform="translate(253.361328 0)"/>
      <use xlink:href="#DejaVuSans-73" transform="translate(314.884766 0)"/>
      <use xlink:href="#DejaVuSans-74" transform="translate(366.984375 0)"/>
      <use xlink:href="#DejaVuSans-20" transform="translate(406.193359 0)"/>
      <use xlink:href="#DejaVuSans-4e" transform="translate(437.980469 0)"/>
      <use xlink:href="#DejaVuSans-75" transform="translate(512.785156 0)"/>
      <use xlink:href="#DejaVuSans-6d" transform="translate(576.164062 0)"/>
      <use xlink:href="#DejaVuSans-62" transform="translate(673.576172 0)"/>
      <use xlink:href="#DejaVuSans-65" transform="translate(737.052734 0)"/>
      <use xlink:href="#DejaVuSans-72" transform="translate(798.576172 0)"/>
     </g>
    </g>
   </g>
   <g id="matplotlib.axis_4">
    <g id="ytick_3">
     <g id="line2d_34">
      <path d="M 44.615 177.337333 
L 563.354831 177.337333 
" clip-path="url(#pe27777a153)" style="fill: none; stroke-dasharray: 2.96,1.28; stroke-dashoffset: 0; stroke: #b0b0b0; stroke-opacity: 0.7; stroke-width: 0.8"/>
     </g>
     <g id="line2d_35">
      <g>
       <use xlink:href="#m2e87aea207" x="44.615" y="177.337333" style="stroke: #000000; stroke-width: 0.8"/>
      </g>
     </g>
     <g id="text_21">
      <!-- 0 -->
      <g transform="translate(31.2525 181.136552) scale(0.1 -0.1)">
       <use xlink:href="#DejaVuSans-30"/>
      </g>
     </g>
    </g>
    <g id="ytick_4">
     <g id="line2d_36">
      <path d="M 44.615 141.521905 
L 563.354831 141.521905 
" clip-path="url(#pe27777a153)" style="fill: none; stroke-dasharray: 2.96,1.28; stroke-dashoffset: 0; stroke: #b0b0b0; stroke-opacity: 0.7; stroke-width: 0.8"/>
     </g>
     <g id="line2d_37">
      <g>
       <use xlink:href="#m2e87aea207" x="44.615" y="141.521905" style="stroke: #000000; stroke-width: 0.8"/>
      </g>
     </g>
     <g id="text_22">
      <!-- 10 -->
      <g transform="translate(24.89 145.321124) scale(0.1 -0.1)">
       <use xlink:href="#DejaVuSans-31"/>
       <use xlink:href="#DejaVuSans-30" transform="translate(63.623047 0)"/>
      </g>
     </g>
    </g>
    <g id="text_23">
     <!-- Latency (s) -->
     <g transform="translate(18.810312 183.309375) rotate(-90) scale(0.1 -0.1)">
      <defs>
       <path id="DejaVuSans-4c" d="M 628 4666 
L 1259 4666 
L 1259 531 
L 3531 531 
L 3531 0 
L 628 0 
L 628 4666 
z
" transform="scale(0.015625)"/>
       <path id="DejaVuSans-61" d="M 2194 1759 
Q 1497 1759 1228 1600 
Q 959 1441 959 1056 
Q 959 750 1161 570 
Q 1363 391 1709 391 
Q 2188 391 2477 730 
Q 2766 1069 2766 1631 
L 2766 1759 
L 2194 1759 
z
M 3341 1997 
L 3341 0 
L 2766 0 
L 2766 531 
Q 2569 213 2275 61 
Q 1981 -91 1556 -91 
Q 1019 -91 701 211 
Q 384 513 384 1019 
Q 384 1609 779 1909 
Q 1175 2209 1959 2209 
L 2766 2209 
L 2766 2266 
Q 2766 2663 2505 2880 
Q 2244 3097 1772 3097 
Q 1472 3097 1187 3025 
Q 903 2953 641 2809 
L 641 3341 
Q 956 3463 1253 3523 
Q 1550 3584 1831 3584 
Q 2591 3584 2966 3190 
Q 3341 2797 3341 1997 
z
" transform="scale(0.015625)"/>
       <path id="DejaVuSans-79" d="M 2059 -325 
Q 1816 -950 1584 -1140 
Q 1353 -1331 966 -1331 
L 506 -1331 
L 506 -850 
L 844 -850 
Q 1081 -850 1212 -737 
Q 1344 -625 1503 -206 
L 1606 56 
L 191 3500 
L 800 3500 
L 1894 763 
L 2988 3500 
L 3597 3500 
L 2059 -325 
z
" transform="scale(0.015625)"/>
      </defs>
      <use xlink:href="#DejaVuSans-4c"/>
      <use xlink:href="#DejaVuSans-61" transform="translate(55.712891 0)"/>
      <use xlink:href="#DejaVuSans-74" transform="translate(116.992188 0)"/>
      <use xlink:href="#DejaVuSans-65" transform="translate(156.201172 0)"/>
      <use xlink:href="#DejaVuSans-6e" transform="translate(217.724609 0)"/>
      <use xlink:href="#DejaVuSans-63" transform="translate(281.103516 0)"/>
      <use xlink:href="#DejaVuSans-79" transform="translate(336.083984 0)"/>
      <use xlink:href="#DejaVuSans-20" transform="translate(395.263672 0)"/>
      <use xlink:href="#DejaVuSans-28" transform="translate(427.050781 0)"/>
      <use xlink:href="#DejaVuSans-73" transform="translate(466.064453 0)"/>
      <use xlink:href="#DejaVuSans-29" transform="translate(518.164062 0)"/>
     </g>
    </g>
   </g>
   <g id="line2d_38">
    <path d="M 68.194083 176.147427 
L 69.814639 169.881337 
L 73.05575 176.044457 
L 74.676305 176.87475 
L 76.296861 174.889685 
L 77.917417 175.893362 
L 79.537972 174.694124 
L 81.158528 176.145 
L 82.779083 169.533967 
L 84.399639 169.047345 
L 86.020194 167.38547 
L 87.64075 169.572546 
L 89.261305 171.141501 
L 90.881861 172.116644 
L 92.502416 175.052106 
L 94.122972 170.360953 
L 95.743528 169.361437 
L 97.364083 164.960421 
L 98.984639 164.566054 
L 100.605194 164.763503 
L 102.22575 165.159188 
L 103.846305 164.272515 
L 105.466861 163.718874 
L 107.087416 166.103817 
L 108.707972 167.279041 
L 110.328528 170.11225 
L 111.949083 171.026281 
L 113.569639 173.511327 
L 115.190194 168.088862 
L 116.81075 170.156914 
L 120.051861 161.911712 
L 121.672416 160.482887 
L 123.292972 160.648517 
L 126.534083 167.542266 
L 128.154639 166.992404 
L 131.39575 173.115061 
L 133.016305 175.913378 
L 134.636861 174.522318 
L 136.257416 168.678641 
L 137.877972 169.025301 
L 139.498527 164.057117 
L 142.739639 171.073141 
L 144.360194 173.950673 
L 145.98075 172.294212 
L 147.601305 172.747174 
L 149.221861 172.569114 
L 150.842416 171.391872 
L 152.462972 174.620154 
L 154.083527 171.431887 
L 155.704083 167.928369 
L 157.324638 167.697617 
L 158.945194 168.661457 
L 160.56575 171.720544 
L 162.186305 171.703517 
L 163.806861 174.761197 
L 165.427416 173.664838 
L 167.047972 173.239471 
L 168.668527 173.517851 
L 170.289083 176.183321 
L 171.909638 176.847032 
L 173.530194 174.313547 
L 175.150749 175.673896 
L 176.771305 164.531357 
L 178.391861 167.732574 
L 180.012416 166.264478 
L 181.632972 166.001286 
L 183.253527 169.379726 
L 184.874083 169.416589 
L 186.494638 172.105111 
L 188.115194 175.390365 
L 189.735749 174.357294 
L 191.356305 171.719819 
L 192.976861 170.883486 
L 194.597416 168.755007 
L 197.838527 174.443717 
L 199.459083 175.573177 
L 202.700194 176.766569 
L 204.320749 174.536235 
L 205.941305 165.734364 
L 207.56186 167.654325 
L 209.182416 162.820573 
L 210.802972 161.750119 
L 212.423527 163.085165 
L 214.044083 162.756506 
L 215.664638 165.118982 
L 217.285194 163.222249 
L 218.905749 162.853024 
L 220.526305 165.393758 
L 222.14686 162.740872 
L 223.767416 162.512047 
L 225.387972 160.330897 
L 227.008527 162.671173 
L 228.629083 159.174126 
L 230.249638 160.881044 
L 231.870194 159.800093 
L 233.490749 162.963469 
L 236.73186 167.540855 
L 238.352416 168.601633 
L 239.972971 169.458312 
L 241.593527 170.633348 
L 244.834638 156.773433 
L 246.455194 156.196265 
L 248.075749 157.58213 
L 249.696305 154.872702 
L 251.31686 149.848082 
L 252.937416 152.154698 
L 254.557971 153.256325 
L 256.178527 156.013316 
L 257.799082 157.17475 
L 259.419638 160.544331 
L 261.040194 162.109229 
L 262.660749 165.543789 
L 264.281305 168.528898 
L 265.90186 169.213429 
L 267.522416 171.798518 
L 269.142971 169.811355 
L 270.763527 169.994953 
L 272.384082 171.938712 
L 274.004638 172.135679 
L 275.625194 167.793125 
L 277.245749 164.985603 
L 278.866305 167.302768 
L 280.48686 168.517814 
L 282.107416 168.768677 
L 283.727971 164.109024 
L 285.348527 157.116943 
L 286.969082 160.371254 
L 288.589638 160.827065 
L 290.210193 162.655909 
L 291.830749 161.954877 
L 293.451305 165.038209 
L 295.07186 167.824747 
L 296.692416 168.224081 
L 298.312971 163.349724 
L 299.933527 166.227887 
L 301.554082 152.590039 
L 303.174638 154.212746 
L 304.795193 157.335101 
L 306.415749 150.062913 
L 308.036305 151.321013 
L 309.65686 152.904298 
L 311.277416 152.028942 
L 312.897971 152.420574 
L 314.518527 145.180431 
L 316.139082 147.304744 
L 317.759638 146.737022 
L 319.380193 144.361732 
L 321.000749 143.562045 
L 322.621304 146.091276 
L 324.24186 147.927567 
L 325.862416 141.425043 
L 327.482971 144.564639 
L 329.103527 146.214112 
L 330.724082 146.782127 
L 332.344638 134.010546 
L 333.965193 137.209297 
L 335.585749 137.03382 
L 337.206304 140.57187 
L 338.82686 133.701447 
L 340.447416 137.159181 
L 342.067971 138.431005 
L 343.688527 141.304218 
L 345.309082 142.108245 
L 346.929638 140.520938 
L 348.550193 133.640909 
L 350.170749 137.208283 
L 351.791304 138.502311 
L 353.41186 140.941425 
L 355.032415 143.026209 
L 356.652971 146.340467 
L 358.273527 144.302571 
L 359.894082 147.238928 
L 361.514638 145.499458 
L 363.135193 146.296777 
L 364.755749 147.826443 
L 366.376304 144.759008 
L 367.99686 141.4347 
L 369.617415 137.751191 
L 371.237971 140.063912 
L 372.858526 138.571588 
L 374.479082 140.416834 
L 376.099638 141.367382 
L 377.720193 143.384263 
L 379.340749 144.176409 
L 380.961304 143.982864 
L 384.202415 148.413474 
L 385.822971 149.468878 
L 387.443526 151.672772 
L 389.064082 151.640802 
L 390.684638 154.583721 
L 392.305193 156.467346 
L 393.925749 158.680105 
L 395.546304 160.21001 
L 397.16686 162.304903 
L 398.787415 165.816786 
L 400.407971 168.439118 
L 402.028526 170.812403 
L 403.649082 174.393054 
L 405.269637 176.833788 
L 406.890193 172.258326 
L 408.510749 172.134862 
L 410.131304 175.440726 
L 413.372415 177.00129 
L 414.992971 177.259091 
L 416.613526 170.294527 
L 418.234082 172.328164 
L 419.854637 175.153086 
L 421.475193 176.462584 
L 423.095749 176.450414 
L 424.716304 175.613898 
L 426.33686 177.225342 
L 427.957415 160.102044 
L 429.577971 162.820916 
L 431.198526 164.234114 
L 432.819082 167.792423 
L 434.439637 168.719129 
L 436.060193 170.945861 
L 437.680748 173.964202 
L 440.92186 175.123949 
L 442.542415 166.858377 
L 444.162971 166.883523 
L 445.783526 168.066504 
L 447.404082 170.197935 
L 449.024637 171.321627 
L 450.645193 174.312053 
L 452.265748 176.868231 
L 453.886304 172.870088 
L 455.50686 175.117391 
L 457.127415 174.51424 
L 458.747971 176.670536 
L 460.368526 173.97102 
L 461.989082 175.839111 
L 463.609637 172.634259 
L 465.230193 175.665413 
L 466.850748 175.213012 
L 468.471304 172.489555 
L 470.091859 164.437171 
L 473.332971 171.078404 
L 474.953526 172.135887 
L 476.574082 175.358003 
L 478.194637 176.205409 
L 479.815193 176.682752 
L 481.435748 171.225947 
L 483.056304 166.616271 
L 484.676859 161.299366 
L 486.297415 147.296906 
L 487.91797 149.046321 
L 489.538526 147.126819 
L 491.159082 149.888741 
L 492.779637 153.225525 
L 494.400193 154.187061 
L 496.020748 150.663025 
L 497.641304 151.538954 
L 499.261859 151.163631 
L 500.882415 153.442813 
L 502.50297 149.57078 
L 504.123526 153.127442 
L 505.744082 153.694613 
L 507.364637 156.457023 
L 508.985193 152.914336 
L 510.605748 145.177973 
L 513.846859 149.672904 
L 515.467415 152.361252 
L 517.08797 153.600057 
L 518.708526 154.314652 
L 520.329081 157.236805 
L 521.949637 159.503221 
L 523.570193 158.801465 
L 525.190748 160.040861 
L 526.811304 146.842116 
L 528.431859 143.749353 
L 530.052415 147.008595 
L 531.67297 148.074573 
L 533.293526 150.864443 
L 534.914081 152.754024 
L 536.534637 154.228363 
L 538.155193 146.384488 
L 539.775748 148.697028 
L 539.775748 148.697028 
" clip-path="url(#pe27777a153)" style="fill: none; stroke: #1f77b4; stroke-width: 1.5; stroke-linecap: square"/>
   </g>
   <g id="patch_8">
    <path d="M 44.615 179.44 
L 44.615 131.46 
" style="fill: none; stroke: #000000; stroke-width: 0.8; stroke-linejoin: miter; stroke-linecap: square"/>
   </g>
   <g id="patch_9">
    <path d="M 563.354831 179.44 
L 563.354831 131.46 
" style="fill: none; stroke: #000000; stroke-width: 0.8; stroke-linejoin: miter; stroke-linecap: square"/>
   </g>
   <g id="patch_10">
    <path d="M 44.615 179.44 
L 563.354831 179.44 
" style="fill: none; stroke: #000000; stroke-width: 0.8; stroke-linejoin: miter; stroke-linecap: square"/>
   </g>
   <g id="patch_11">
    <path d="M 44.615 131.46 
L 563.354831 131.46 
" style="fill: none; stroke: #000000; stroke-width: 0.8; stroke-linejoin: miter; stroke-linecap: square"/>
   </g>
   <g id="text_24">
    <!-- Latency -->
    <g transform="translate(277.435853 125.46) scale(0.12 -0.12)">
     <defs>
      <path id="DejaVuSans-Bold-4c" d="M 588 4666 
L 1791 4666 
L 1791 909 
L 3903 909 
L 3903 0 
L 588 0 
L 588 4666 
z
" transform="scale(0.015625)"/>
      <path id="DejaVuSans-Bold-61" d="M 2106 1575 
Q 1756 1575 1579 1456 
Q 1403 1338 1403 1106 
Q 1403 894 1545 773 
Q 1688 653 1941 653 
Q 2256 653 2472 879 
Q 2688 1106 2688 1447 
L 2688 1575 
L 2106 1575 
z
M 3816 1997 
L 3816 0 
L 2688 0 
L 2688 519 
Q 2463 200 2181 54 
Q 1900 -91 1497 -91 
Q 953 -91 614 226 
Q 275 544 275 1050 
Q 275 1666 698 1953 
Q 1122 2241 2028 2241 
L 2688 2241 
L 2688 2328 
Q 2688 2594 2478 2717 
Q 2269 2841 1825 2841 
Q 1466 2841 1156 2769 
Q 847 2697 581 2553 
L 581 3406 
Q 941 3494 1303 3539 
Q 1666 3584 2028 3584 
Q 2975 3584 3395 3211 
Q 3816 2838 3816 1997 
z
" transform="scale(0.015625)"/>
      <path id="DejaVuSans-Bold-74" d="M 1759 4494 
L 1759 3500 
L 2913 3500 
L 2913 2700 
L 1759 2700 
L 1759 1216 
Q 1759 972 1856 886 
Q 1953 800 2241 800 
L 2816 800 
L 2816 0 
L 1856 0 
Q 1194 0 917 276 
Q 641 553 641 1216 
L 641 2700 
L 84 2700 
L 84 3500 
L 641 3500 
L 641 4494 
L 1759 4494 
z
" transform="scale(0.015625)"/>
      <path id="DejaVuSans-Bold-79" d="M 78 3500 
L 1197 3500 
L 2138 1125 
L 2938 3500 
L 4056 3500 
L 2584 -331 
Q 2363 -916 2067 -1148 
Q 1772 -1381 1288 -1381 
L 641 -1381 
L 641 -647 
L 991 -647 
Q 1275 -647 1404 -556 
Q 1534 -466 1606 -231 
L 1638 -134 
L 78 3500 
z
" transform="scale(0.015625)"/>
     </defs>
     <use xlink:href="#DejaVuSans-Bold-4c"/>
     <use xlink:href="#DejaVuSans-Bold-61" transform="translate(63.720703 0)"/>
     <use xlink:href="#DejaVuSans-Bold-74" transform="translate(131.201172 0)"/>
     <use xlink:href="#DejaVuSans-Bold-65" transform="translate(179.003906 0)"/>
     <use xlink:href="#DejaVuSans-Bold-6e" transform="translate(246.826172 0)"/>
     <use xlink:href="#DejaVuSans-Bold-63" transform="translate(318.017578 0)"/>
     <use xlink:href="#DejaVuSans-Bold-79" transform="translate(377.294922 0)"/>
    </g>
   </g>
  </g>
  <g id="axes_3">
   <g id="patch_12">
    <path d="M 44.615 284.74 
L 563.354831 284.74 
L 563.354831 236.76 
L 44.615 236.76 
z
" style="fill: #ffffff"/>
   </g>
   <g id="matplotlib.axis_5">
    <g id="xtick_15">
     <g id="line2d_39">
      <path d="M 68.194083 284.74 
L 68.194083 236.76 
" clip-path="url(#p09a376cfb5)" style="fill: none; stroke-dasharray: 2.96,1.28; stroke-dashoffset: 0; stroke: #b0b0b0; stroke-opacity: 0.7; stroke-width: 0.8"/>
     </g>
     <g id="line2d_40">
      <g>
       <use xlink:href="#mb7e28f2668" x="68.194083" y="284.74" style="stroke: #000000; stroke-width: 0.8"/>
      </g>
     </g>
     <g id="text_25">
      <!-- 0 -->
      <g transform="translate(65.012833 299.338437) scale(0.1 -0.1)">
       <use xlink:href="#DejaVuSans-30"/>
      </g>
     </g>
    </g>
    <g id="xtick_16">
     <g id="line2d_41">
      <path d="M 149.221861 284.74 
L 149.221861 236.76 
" clip-path="url(#p09a376cfb5)" style="fill: none; stroke-dasharray: 2.96,1.28; stroke-dashoffset: 0; stroke: #b0b0b0; stroke-opacity: 0.7; stroke-width: 0.8"/>
     </g>
     <g id="line2d_42">
      <g>
       <use xlink:href="#mb7e28f2668" x="149.221861" y="284.74" style="stroke: #000000; stroke-width: 0.8"/>
      </g>
     </g>
     <g id="text_26">
      <!-- 50 -->
      <g transform="translate(142.859361 299.338437) scale(0.1 -0.1)">
       <use xlink:href="#DejaVuSans-35"/>
       <use xlink:href="#DejaVuSans-30" transform="translate(63.623047 0)"/>
      </g>
     </g>
    </g>
    <g id="xtick_17">
     <g id="line2d_43">
      <path d="M 230.249638 284.74 
L 230.249638 236.76 
" clip-path="url(#p09a376cfb5)" style="fill: none; stroke-dasharray: 2.96,1.28; stroke-dashoffset: 0; stroke: #b0b0b0; stroke-opacity: 0.7; stroke-width: 0.8"/>
     </g>
     <g id="line2d_44">
      <g>
       <use xlink:href="#mb7e28f2668" x="230.249638" y="284.74" style="stroke: #000000; stroke-width: 0.8"/>
      </g>
     </g>
     <g id="text_27">
      <!-- 100 -->
      <g transform="translate(220.705888 299.338437) scale(0.1 -0.1)">
       <use xlink:href="#DejaVuSans-31"/>
       <use xlink:href="#DejaVuSans-30" transform="translate(63.623047 0)"/>
       <use xlink:href="#DejaVuSans-30" transform="translate(127.246094 0)"/>
      </g>
     </g>
    </g>
    <g id="xtick_18">
     <g id="line2d_45">
      <path d="M 311.277416 284.74 
L 311.277416 236.76 
" clip-path="url(#p09a376cfb5)" style="fill: none; stroke-dasharray: 2.96,1.28; stroke-dashoffset: 0; stroke: #b0b0b0; stroke-opacity: 0.7; stroke-width: 0.8"/>
     </g>
     <g id="line2d_46">
      <g>
       <use xlink:href="#mb7e28f2668" x="311.277416" y="284.74" style="stroke: #000000; stroke-width: 0.8"/>
      </g>
     </g>
     <g id="text_28">
      <!-- 150 -->
      <g transform="translate(301.733666 299.338437) scale(0.1 -0.1)">
       <use xlink:href="#DejaVuSans-31"/>
       <use xlink:href="#DejaVuSans-35" transform="translate(63.623047 0)"/>
       <use xlink:href="#DejaVuSans-30" transform="translate(127.246094 0)"/>
      </g>
     </g>
    </g>
    <g id="xtick_19">
     <g id="line2d_47">
      <path d="M 392.305193 284.74 
L 392.305193 236.76 
" clip-path="url(#p09a376cfb5)" style="fill: none; stroke-dasharray: 2.96,1.28; stroke-dashoffset: 0; stroke: #b0b0b0; stroke-opacity: 0.7; stroke-width: 0.8"/>
     </g>
     <g id="line2d_48">
      <g>
       <use xlink:href="#mb7e28f2668" x="392.305193" y="284.74" style="stroke: #000000; stroke-width: 0.8"/>
      </g>
     </g>
     <g id="text_29">
      <!-- 200 -->
      <g transform="translate(382.761443 299.338437) scale(0.1 -0.1)">
       <use xlink:href="#DejaVuSans-32"/>
       <use xlink:href="#DejaVuSans-30" transform="translate(63.623047 0)"/>
       <use xlink:href="#DejaVuSans-30" transform="translate(127.246094 0)"/>
      </g>
     </g>
    </g>
    <g id="xtick_20">
     <g id="line2d_49">
      <path d="M 473.332971 284.74 
L 473.332971 236.76 
" clip-path="url(#p09a376cfb5)" style="fill: none; stroke-dasharray: 2.96,1.28; stroke-dashoffset: 0; stroke: #b0b0b0; stroke-opacity: 0.7; stroke-width: 0.8"/>
     </g>
     <g id="line2d_50">
      <g>
       <use xlink:href="#mb7e28f2668" x="473.332971" y="284.74" style="stroke: #000000; stroke-width: 0.8"/>
      </g>
     </g>
     <g id="text_30">
      <!-- 250 -->
      <g transform="translate(463.789221 299.338437) scale(0.1 -0.1)">
       <use xlink:href="#DejaVuSans-32"/>
       <use xlink:href="#DejaVuSans-35" transform="translate(63.623047 0)"/>
       <use xlink:href="#DejaVuSans-30" transform="translate(127.246094 0)"/>
      </g>
     </g>
    </g>
    <g id="xtick_21">
     <g id="line2d_51">
      <path d="M 554.360748 284.74 
L 554.360748 236.76 
" clip-path="url(#p09a376cfb5)" style="fill: none; stroke-dasharray: 2.96,1.28; stroke-dashoffset: 0; stroke: #b0b0b0; stroke-opacity: 0.7; stroke-width: 0.8"/>
     </g>
     <g id="line2d_52">
      <g>
       <use xlink:href="#mb7e28f2668" x="554.360748" y="284.74" style="stroke: #000000; stroke-width: 0.8"/>
      </g>
     </g>
     <g id="text_31">
      <!-- 300 -->
      <g transform="translate(544.816998 299.338437) scale(0.1 -0.1)">
       <use xlink:href="#DejaVuSans-33"/>
       <use xlink:href="#DejaVuSans-30" transform="translate(63.623047 0)"/>
       <use xlink:href="#DejaVuSans-30" transform="translate(127.246094 0)"/>
      </g>
     </g>
    </g>
    <g id="text_32">
     <!-- Request Number -->
     <g transform="translate(261.999759 313.016562) scale(0.1 -0.1)">
      <use xlink:href="#DejaVuSans-52"/>
      <use xlink:href="#DejaVuSans-65" transform="translate(64.982422 0)"/>
      <use xlink:href="#DejaVuSans-71" transform="translate(126.505859 0)"/>
      <use xlink:href="#DejaVuSans-75" transform="translate(189.982422 0)"/>
      <use xlink:href="#DejaVuSans-65" transform="translate(253.361328 0)"/>
      <use xlink:href="#DejaVuSans-73" transform="translate(314.884766 0)"/>
      <use xlink:href="#DejaVuSans-74" transform="translate(366.984375 0)"/>
      <use xlink:href="#DejaVuSans-20" transform="translate(406.193359 0)"/>
      <use xlink:href="#DejaVuSans-4e" transform="translate(437.980469 0)"/>
      <use xlink:href="#DejaVuSans-75" transform="translate(512.785156 0)"/>
      <use xlink:href="#DejaVuSans-6d" transform="translate(576.164062 0)"/>
      <use xlink:href="#DejaVuSans-62" transform="translate(673.576172 0)"/>
      <use xlink:href="#DejaVuSans-65" transform="translate(737.052734 0)"/>
      <use xlink:href="#DejaVuSans-72" transform="translate(798.576172 0)"/>
     </g>
    </g>
   </g>
   <g id="matplotlib.axis_6">
    <g id="ytick_5">
     <g id="line2d_53">
      <path d="M 44.615 282.559091 
L 563.354831 282.559091 
" clip-path="url(#p09a376cfb5)" style="fill: none; stroke-dasharray: 2.96,1.28; stroke-dashoffset: 0; stroke: #b0b0b0; stroke-opacity: 0.7; stroke-width: 0.8"/>
     </g>
     <g id="line2d_54">
      <g>
       <use xlink:href="#m2e87aea207" x="44.615" y="282.559091" style="stroke: #000000; stroke-width: 0.8"/>
      </g>
     </g>
     <g id="text_33">
      <!-- 0 -->
      <g transform="translate(31.2525 286.35831) scale(0.1 -0.1)">
       <use xlink:href="#DejaVuSans-30"/>
      </g>
     </g>
    </g>
    <g id="ytick_6">
     <g id="line2d_55">
      <path d="M 44.615 243.615841 
L 563.354831 243.615841 
" clip-path="url(#p09a376cfb5)" style="fill: none; stroke-dasharray: 2.96,1.28; stroke-dashoffset: 0; stroke: #b0b0b0; stroke-opacity: 0.7; stroke-width: 0.8"/>
     </g>
     <g id="line2d_56">
      <g>
       <use xlink:href="#m2e87aea207" x="44.615" y="243.615841" style="stroke: #000000; stroke-width: 0.8"/>
      </g>
     </g>
     <g id="text_34">
      <!-- 10 -->
      <g transform="translate(24.89 247.415059) scale(0.1 -0.1)">
       <use xlink:href="#DejaVuSans-31"/>
       <use xlink:href="#DejaVuSans-30" transform="translate(63.623047 0)"/>
      </g>
     </g>
    </g>
    <g id="text_35">
     <!-- Wait Time (s) -->
     <g transform="translate(18.810312 293.70625) rotate(-90) scale(0.1 -0.1)">
      <defs>
       <path id="DejaVuSans-57" d="M 213 4666 
L 850 4666 
L 1831 722 
L 2809 4666 
L 3519 4666 
L 4500 722 
L 5478 4666 
L 6119 4666 
L 4947 0 
L 4153 0 
L 3169 4050 
L 2175 0 
L 1381 0 
L 213 4666 
z
" transform="scale(0.015625)"/>
      </defs>
      <use xlink:href="#DejaVuSans-57"/>
      <use xlink:href="#DejaVuSans-61" transform="translate(92.501953 0)"/>
      <use xlink:href="#DejaVuSans-69" transform="translate(153.78125 0)"/>
      <use xlink:href="#DejaVuSans-74" transform="translate(181.564453 0)"/>
      <use xlink:href="#DejaVuSans-20" transform="translate(220.773438 0)"/>
      <use xlink:href="#DejaVuSans-54" transform="translate(252.560547 0)"/>
      <use xlink:href="#DejaVuSans-69" transform="translate(310.519531 0)"/>
      <use xlink:href="#DejaVuSans-6d" transform="translate(338.302734 0)"/>
      <use xlink:href="#DejaVuSans-65" transform="translate(435.714844 0)"/>
      <use xlink:href="#DejaVuSans-20" transform="translate(497.238281 0)"/>
      <use xlink:href="#DejaVuSans-28" transform="translate(529.025391 0)"/>
      <use xlink:href="#DejaVuSans-73" transform="translate(568.039062 0)"/>
      <use xlink:href="#DejaVuSans-29" transform="translate(620.138672 0)"/>
     </g>
    </g>
   </g>
   <g id="line2d_57">
    <path d="M 68.194083 282.559091 
L 69.814639 282.559091 
L 71.435194 278.346275 
L 73.05575 281.591548 
L 74.676305 282.559091 
L 82.779083 282.559091 
L 84.399639 277.968569 
L 86.020194 277.439449 
L 87.64075 275.63244 
L 89.261305 278.010517 
L 90.881861 279.716491 
L 92.502416 280.776795 
L 94.122972 282.559091 
L 95.743528 278.867777 
L 97.364083 277.780972 
L 98.984639 272.995608 
L 100.605194 272.566799 
L 102.22575 272.781492 
L 103.846305 273.211733 
L 105.466861 272.247626 
L 107.087416 271.645634 
L 108.707972 274.238857 
L 110.328528 275.516717 
L 111.949083 278.597354 
L 113.569639 279.59121 
L 115.190194 282.293278 
L 116.81075 276.39726 
L 118.431305 278.645918 
L 121.672416 269.680649 
L 123.292972 268.127043 
L 124.913527 268.307137 
L 128.154639 275.802929 
L 129.775194 275.205047 
L 133.016305 281.862406 
L 134.636861 282.559091 
L 136.257416 282.559091 
L 137.877972 277.038545 
L 139.498527 277.41548 
L 141.119083 272.013416 
L 144.360194 279.642162 
L 145.98075 282.559091 
L 147.601305 280.969871 
L 149.221861 281.46239 
L 150.842416 281.26878 
L 152.462972 279.988728 
L 154.083527 282.559091 
L 155.704083 280.032238 
L 157.324638 276.222751 
L 158.945194 275.971847 
L 160.56575 277.019861 
L 162.186305 280.346103 
L 163.806861 280.32759 
L 165.427416 282.559091 
L 167.047972 282.460196 
L 168.668527 281.99768 
L 171.909638 282.559091 
L 176.771305 282.559091 
L 178.391861 272.529072 
L 180.012416 276.009857 
L 181.632972 274.41355 
L 183.253527 274.127373 
L 184.874083 277.800858 
L 186.494638 277.84094 
L 188.115194 280.764256 
L 189.735749 282.559091 
L 191.356305 282.559091 
L 192.976861 280.345315 
L 194.597416 279.435944 
L 196.217972 277.121581 
L 197.838527 280.105668 
L 199.459083 282.559091 
L 205.941305 282.559091 
L 207.56186 273.83714 
L 209.182416 275.924775 
L 210.802972 270.668883 
L 212.423527 269.504944 
L 214.044083 270.956582 
L 215.664638 270.599221 
L 217.285194 273.168015 
L 218.905749 271.105637 
L 220.526305 270.704168 
L 222.14686 273.466788 
L 223.767416 270.582221 
L 225.387972 270.333412 
L 227.008527 267.961779 
L 228.629083 270.506435 
L 230.249638 266.703986 
L 231.870194 268.559971 
L 233.490749 267.384619 
L 235.111305 270.824258 
L 238.352416 275.801395 
L 239.972971 276.954812 
L 241.593527 277.886307 
L 243.214083 279.163961 
L 246.455194 264.093636 
L 248.075749 263.466063 
L 249.696305 264.972957 
L 251.31686 262.026911 
L 252.937416 256.563482 
L 254.557971 259.071538 
L 256.178527 260.269373 
L 257.799082 263.267137 
L 259.419638 264.53 
L 261.040194 268.193852 
L 262.660749 269.895415 
L 264.281305 273.629921 
L 265.90186 276.875725 
L 267.522416 277.620038 
L 269.142971 280.430887 
L 270.763527 278.270181 
L 272.384082 278.469814 
L 274.004638 280.583324 
L 275.625194 280.797493 
L 277.245749 276.075696 
L 278.866305 273.022988 
L 280.48686 275.542515 
L 282.107416 276.863674 
L 283.727971 277.136445 
L 285.348527 272.069856 
L 286.969082 264.467145 
L 288.589638 268.00566 
L 290.210193 268.501278 
L 291.830749 270.489838 
L 293.451305 269.727584 
L 295.07186 273.080189 
L 296.692416 276.11008 
L 298.312971 276.544288 
L 299.933527 271.244246 
L 301.554082 274.373763 
L 303.174638 259.544898 
L 304.795193 261.30932 
L 306.415749 264.704355 
L 308.036305 256.797074 
L 309.65686 258.165047 
L 311.277416 259.886602 
L 312.897971 258.9348 
L 314.518527 259.360634 
L 316.139082 251.488197 
L 317.759638 253.798029 
L 319.380193 253.180728 
L 321.000749 250.598 
L 322.621304 249.728475 
L 324.24186 252.478588 
L 325.862416 254.475246 
L 327.482971 247.404845 
L 329.103527 250.818627 
L 330.724082 252.612152 
L 332.344638 253.229772 
L 333.965193 239.342827 
L 335.585749 242.82093 
L 337.206304 242.630129 
L 338.82686 246.477163 
L 340.447416 239.006734 
L 342.067971 242.766438 
L 343.688527 244.149333 
L 345.309082 247.273468 
L 346.929638 248.147712 
L 348.550193 246.421782 
L 350.170749 238.940909 
L 351.791304 242.819828 
L 353.41186 244.226866 
L 355.032415 246.878991 
L 356.652971 249.145843 
L 358.273527 252.749541 
L 359.894082 250.533672 
L 361.514638 253.726466 
L 363.135193 251.835086 
L 364.755749 252.702035 
L 366.376304 254.36529 
L 367.99686 251.029971 
L 369.617415 247.415345 
L 371.237971 243.410149 
L 372.858526 245.924844 
L 374.479082 244.302192 
L 376.099638 246.308588 
L 377.720193 247.342148 
L 379.340749 249.535167 
L 380.961304 250.396492 
L 382.58186 250.186044 
L 384.202415 252.697515 
L 385.822971 255.003587 
L 387.443526 256.151161 
L 389.064082 258.547526 
L 390.684638 258.512763 
L 392.305193 261.712692 
L 393.925749 263.760817 
L 395.546304 266.166821 
L 397.16686 267.830335 
L 398.787415 270.108178 
L 400.407971 273.92676 
L 402.028526 276.778105 
L 403.649082 279.358653 
L 405.269637 282.559091 
L 406.890193 282.559091 
L 408.510749 280.93085 
L 410.131304 280.796604 
L 411.75186 282.559091 
L 416.613526 282.559091 
L 418.234082 278.79555 
L 419.854637 281.006788 
L 421.475193 282.559091 
L 427.957415 282.559091 
L 429.577971 267.71294 
L 431.198526 270.669256 
L 432.819082 272.205871 
L 434.439637 276.074933 
L 436.060193 277.082569 
L 437.680748 279.503766 
L 439.301304 282.559091 
L 442.542415 282.559091 
L 444.162971 275.059315 
L 445.783526 275.086656 
L 447.404082 276.37295 
L 449.024637 278.690523 
L 450.645193 279.912349 
L 452.265748 282.559091 
L 453.886304 282.559091 
L 455.50686 281.596039 
L 457.127415 282.559091 
L 463.609637 282.559091 
L 465.230193 281.339615 
L 466.850748 282.559091 
L 468.471304 282.559091 
L 470.091859 281.182274 
L 471.712415 272.42666 
L 474.953526 279.647884 
L 476.574082 280.797719 
L 478.194637 282.559091 
L 481.435748 282.559091 
L 483.056304 279.808313 
L 484.676859 274.796066 
L 486.297415 269.014826 
L 487.91797 253.789507 
L 489.538526 255.691702 
L 491.159082 253.604567 
L 492.779637 256.607692 
L 494.400193 260.235882 
L 496.020748 261.281391 
L 497.641304 257.449595 
L 499.261859 258.402021 
L 500.882415 257.99392 
L 502.50297 260.472147 
L 504.123526 256.261963 
L 505.744082 260.129234 
L 507.364637 260.745937 
L 508.985193 263.749593 
L 510.605748 259.897517 
L 512.226304 251.485525 
L 515.467415 256.373006 
L 517.08797 259.296132 
L 518.708526 260.643123 
L 520.329081 261.420125 
L 521.949637 264.597475 
L 523.570193 267.06182 
L 525.190748 266.298779 
L 526.811304 267.646413 
L 528.431859 253.295 
L 530.052415 249.93214 
L 531.67297 253.476018 
L 533.293526 254.63509 
L 534.914081 257.668604 
L 536.534637 259.723205 
L 538.155193 261.3263 
L 539.775748 252.797407 
L 539.775748 252.797407 
" clip-path="url(#p09a376cfb5)" style="fill: none; stroke: #1f77b4; stroke-width: 1.5; stroke-linecap: square"/>
   </g>
   <g id="patch_13">
    <path d="M 44.615 284.74 
L 44.615 236.76 
" style="fill: none; stroke: #000000; stroke-width: 0.8; stroke-linejoin: miter; stroke-linecap: square"/>
   </g>
   <g id="patch_14">
    <path d="M 563.354831 284.74 
L 563.354831 236.76 
" style="fill: none; stroke: #000000; stroke-width: 0.8; stroke-linejoin: miter; stroke-linecap: square"/>
   </g>
   <g id="patch_15">
    <path d="M 44.615 284.74 
L 563.354831 284.74 
" style="fill: none; stroke: #000000; stroke-width: 0.8; stroke-linejoin: miter; stroke-linecap: square"/>
   </g>
   <g id="patch_16">
    <path d="M 44.615 236.76 
L 563.354831 236.76 
" style="fill: none; stroke: #000000; stroke-width: 0.8; stroke-linejoin: miter; stroke-linecap: square"/>
   </g>
   <g id="text_36">
    <!-- Wait Time -->
    <g transform="translate(270.050228 230.76) scale(0.12 -0.12)">
     <defs>
      <path id="DejaVuSans-Bold-57" d="M 191 4666 
L 1344 4666 
L 2150 1275 
L 2950 4666 
L 4109 4666 
L 4909 1275 
L 5716 4666 
L 6859 4666 
L 5759 0 
L 4372 0 
L 3525 3547 
L 2688 0 
L 1300 0 
L 191 4666 
z
" transform="scale(0.015625)"/>
     </defs>
     <use xlink:href="#DejaVuSans-Bold-57"/>
     <use xlink:href="#DejaVuSans-Bold-61" transform="translate(106.677734 0)"/>
     <use xlink:href="#DejaVuSans-Bold-69" transform="translate(174.158203 0)"/>
     <use xlink:href="#DejaVuSans-Bold-74" transform="translate(208.435547 0)"/>
     <use xlink:href="#DejaVuSans-Bold-20" transform="translate(256.238281 0)"/>
     <use xlink:href="#DejaVuSans-Bold-54" transform="translate(291.052734 0)"/>
     <use xlink:href="#DejaVuSans-Bold-69" transform="translate(359.265625 0)"/>
     <use xlink:href="#DejaVuSans-Bold-6d" transform="translate(393.542969 0)"/>
     <use xlink:href="#DejaVuSans-Bold-65" transform="translate(497.742188 0)"/>
    </g>
   </g>
  </g>
  <g id="axes_4">
   <g id="patch_17">
    <path d="M 44.615 390.04 
L 563.354831 390.04 
L 563.354831 342.06 
L 44.615 342.06 
z
" style="fill: #ffffff"/>
   </g>
   <g id="matplotlib.axis_7">
    <g id="xtick_22">
     <g id="line2d_58">
      <path d="M 68.194083 390.04 
L 68.194083 342.06 
" clip-path="url(#pecb857ca1b)" style="fill: none; stroke-dasharray: 2.96,1.28; stroke-dashoffset: 0; stroke: #b0b0b0; stroke-opacity: 0.7; stroke-width: 0.8"/>
     </g>
     <g id="line2d_59">
      <g>
       <use xlink:href="#mb7e28f2668" x="68.194083" y="390.04" style="stroke: #000000; stroke-width: 0.8"/>
      </g>
     </g>
     <g id="text_37">
      <!-- 0 -->
      <g transform="translate(65.012833 404.638438) scale(0.1 -0.1)">
       <use xlink:href="#DejaVuSans-30"/>
      </g>
     </g>
    </g>
    <g id="xtick_23">
     <g id="line2d_60">
      <path d="M 149.221861 390.04 
L 149.221861 342.06 
" clip-path="url(#pecb857ca1b)" style="fill: none; stroke-dasharray: 2.96,1.28; stroke-dashoffset: 0; stroke: #b0b0b0; stroke-opacity: 0.7; stroke-width: 0.8"/>
     </g>
     <g id="line2d_61">
      <g>
       <use xlink:href="#mb7e28f2668" x="149.221861" y="390.04" style="stroke: #000000; stroke-width: 0.8"/>
      </g>
     </g>
     <g id="text_38">
      <!-- 50 -->
      <g transform="translate(142.859361 404.638438) scale(0.1 -0.1)">
       <use xlink:href="#DejaVuSans-35"/>
       <use xlink:href="#DejaVuSans-30" transform="translate(63.623047 0)"/>
      </g>
     </g>
    </g>
    <g id="xtick_24">
     <g id="line2d_62">
      <path d="M 230.249638 390.04 
L 230.249638 342.06 
" clip-path="url(#pecb857ca1b)" style="fill: none; stroke-dasharray: 2.96,1.28; stroke-dashoffset: 0; stroke: #b0b0b0; stroke-opacity: 0.7; stroke-width: 0.8"/>
     </g>
     <g id="line2d_63">
      <g>
       <use xlink:href="#mb7e28f2668" x="230.249638" y="390.04" style="stroke: #000000; stroke-width: 0.8"/>
      </g>
     </g>
     <g id="text_39">
      <!-- 100 -->
      <g transform="translate(220.705888 404.638438) scale(0.1 -0.1)">
       <use xlink:href="#DejaVuSans-31"/>
       <use xlink:href="#DejaVuSans-30" transform="translate(63.623047 0)"/>
       <use xlink:href="#DejaVuSans-30" transform="translate(127.246094 0)"/>
      </g>
     </g>
    </g>
    <g id="xtick_25">
     <g id="line2d_64">
      <path d="M 311.277416 390.04 
L 311.277416 342.06 
" clip-path="url(#pecb857ca1b)" style="fill: none; stroke-dasharray: 2.96,1.28; stroke-dashoffset: 0; stroke: #b0b0b0; stroke-opacity: 0.7; stroke-width: 0.8"/>
     </g>
     <g id="line2d_65">
      <g>
       <use xlink:href="#mb7e28f2668" x="311.277416" y="390.04" style="stroke: #000000; stroke-width: 0.8"/>
      </g>
     </g>
     <g id="text_40">
      <!-- 150 -->
      <g transform="translate(301.733666 404.638438) scale(0.1 -0.1)">
       <use xlink:href="#DejaVuSans-31"/>
       <use xlink:href="#DejaVuSans-35" transform="translate(63.623047 0)"/>
       <use xlink:href="#DejaVuSans-30" transform="translate(127.246094 0)"/>
      </g>
     </g>
    </g>
    <g id="xtick_26">
     <g id="line2d_66">
      <path d="M 392.305193 390.04 
L 392.305193 342.06 
" clip-path="url(#pecb857ca1b)" style="fill: none; stroke-dasharray: 2.96,1.28; stroke-dashoffset: 0; stroke: #b0b0b0; stroke-opacity: 0.7; stroke-width: 0.8"/>
     </g>
     <g id="line2d_67">
      <g>
       <use xlink:href="#mb7e28f2668" x="392.305193" y="390.04" style="stroke: #000000; stroke-width: 0.8"/>
      </g>
     </g>
     <g id="text_41">
      <!-- 200 -->
      <g transform="translate(382.761443 404.638438) scale(0.1 -0.1)">
       <use xlink:href="#DejaVuSans-32"/>
       <use xlink:href="#DejaVuSans-30" transform="translate(63.623047 0)"/>
       <use xlink:href="#DejaVuSans-30" transform="translate(127.246094 0)"/>
      </g>
     </g>
    </g>
    <g id="xtick_27">
     <g id="line2d_68">
      <path d="M 473.332971 390.04 
L 473.332971 342.06 
" clip-path="url(#pecb857ca1b)" style="fill: none; stroke-dasharray: 2.96,1.28; stroke-dashoffset: 0; stroke: #b0b0b0; stroke-opacity: 0.7; stroke-width: 0.8"/>
     </g>
     <g id="line2d_69">
      <g>
       <use xlink:href="#mb7e28f2668" x="473.332971" y="390.04" style="stroke: #000000; stroke-width: 0.8"/>
      </g>
     </g>
     <g id="text_42">
      <!-- 250 -->
      <g transform="translate(463.789221 404.638438) scale(0.1 -0.1)">
       <use xlink:href="#DejaVuSans-32"/>
       <use xlink:href="#DejaVuSans-35" transform="translate(63.623047 0)"/>
       <use xlink:href="#DejaVuSans-30" transform="translate(127.246094 0)"/>
      </g>
     </g>
    </g>
    <g id="xtick_28">
     <g id="line2d_70">
      <path d="M 554.360748 390.04 
L 554.360748 342.06 
" clip-path="url(#pecb857ca1b)" style="fill: none; stroke-dasharray: 2.96,1.28; stroke-dashoffset: 0; stroke: #b0b0b0; stroke-opacity: 0.7; stroke-width: 0.8"/>
     </g>
     <g id="line2d_71">
      <g>
       <use xlink:href="#mb7e28f2668" x="554.360748" y="390.04" style="stroke: #000000; stroke-width: 0.8"/>
      </g>
     </g>
     <g id="text_43">
      <!-- 300 -->
      <g transform="translate(544.816998 404.638438) scale(0.1 -0.1)">
       <use xlink:href="#DejaVuSans-33"/>
       <use xlink:href="#DejaVuSans-30" transform="translate(63.623047 0)"/>
       <use xlink:href="#DejaVuSans-30" transform="translate(127.246094 0)"/>
      </g>
     </g>
    </g>
    <g id="text_44">
     <!-- Request Number -->
     <g transform="translate(261.999759 418.316562) scale(0.1 -0.1)">
      <use xlink:href="#DejaVuSans-52"/>
      <use xlink:href="#DejaVuSans-65" transform="translate(64.982422 0)"/>
      <use xlink:href="#DejaVuSans-71" transform="translate(126.505859 0)"/>
      <use xlink:href="#DejaVuSans-75" transform="translate(189.982422 0)"/>
      <use xlink:href="#DejaVuSans-65" transform="translate(253.361328 0)"/>
      <use xlink:href="#DejaVuSans-73" transform="translate(314.884766 0)"/>
      <use xlink:href="#DejaVuSans-74" transform="translate(366.984375 0)"/>
      <use xlink:href="#DejaVuSans-20" transform="translate(406.193359 0)"/>
      <use xlink:href="#DejaVuSans-4e" transform="translate(437.980469 0)"/>
      <use xlink:href="#DejaVuSans-75" transform="translate(512.785156 0)"/>
      <use xlink:href="#DejaVuSans-6d" transform="translate(576.164062 0)"/>
      <use xlink:href="#DejaVuSans-62" transform="translate(673.576172 0)"/>
      <use xlink:href="#DejaVuSans-65" transform="translate(737.052734 0)"/>
      <use xlink:href="#DejaVuSans-72" transform="translate(798.576172 0)"/>
     </g>
    </g>
   </g>
   <g id="matplotlib.axis_8">
    <g id="ytick_7">
     <g id="line2d_72">
      <path d="M 44.615 387.859091 
L 563.354831 387.859091 
" clip-path="url(#pecb857ca1b)" style="fill: none; stroke-dasharray: 2.96,1.28; stroke-dashoffset: 0; stroke: #b0b0b0; stroke-opacity: 0.7; stroke-width: 0.8"/>
     </g>
     <g id="line2d_73">
      <g>
       <use xlink:href="#m2e87aea207" x="44.615" y="387.859091" style="stroke: #000000; stroke-width: 0.8"/>
      </g>
     </g>
     <g id="text_45">
      <!-- 0 -->
      <g transform="translate(31.2525 391.65831) scale(0.1 -0.1)">
       <use xlink:href="#DejaVuSans-30"/>
      </g>
     </g>
    </g>
    <g id="ytick_8">
     <g id="line2d_74">
      <path d="M 44.615 348.206198 
L 563.354831 348.206198 
" clip-path="url(#pecb857ca1b)" style="fill: none; stroke-dasharray: 2.96,1.28; stroke-dashoffset: 0; stroke: #b0b0b0; stroke-opacity: 0.7; stroke-width: 0.8"/>
     </g>
     <g id="line2d_75">
      <g>
       <use xlink:href="#m2e87aea207" x="44.615" y="348.206198" style="stroke: #000000; stroke-width: 0.8"/>
      </g>
     </g>
     <g id="text_46">
      <!-- 10 -->
      <g transform="translate(24.89 352.005417) scale(0.1 -0.1)">
       <use xlink:href="#DejaVuSans-31"/>
       <use xlink:href="#DejaVuSans-30" transform="translate(63.623047 0)"/>
      </g>
     </g>
    </g>
    <g id="text_47">
     <!-- Queue Length -->
     <g transform="translate(18.810312 401.3125) rotate(-90) scale(0.1 -0.1)">
      <defs>
       <path id="DejaVuSans-51" d="M 2522 4238 
Q 1834 4238 1429 3725 
Q 1025 3213 1025 2328 
Q 1025 1447 1429 934 
Q 1834 422 2522 422 
Q 3209 422 3611 934 
Q 4013 1447 4013 2328 
Q 4013 3213 3611 3725 
Q 3209 4238 2522 4238 
z
M 3406 84 
L 4238 -825 
L 3475 -825 
L 2784 -78 
Q 2681 -84 2626 -87 
Q 2572 -91 2522 -91 
Q 1538 -91 948 567 
Q 359 1225 359 2328 
Q 359 3434 948 4092 
Q 1538 4750 2522 4750 
Q 3503 4750 4090 4092 
Q 4678 3434 4678 2328 
Q 4678 1516 4351 937 
Q 4025 359 3406 84 
z
" transform="scale(0.015625)"/>
       <path id="DejaVuSans-68" d="M 3513 2113 
L 3513 0 
L 2938 0 
L 2938 2094 
Q 2938 2591 2744 2837 
Q 2550 3084 2163 3084 
Q 1697 3084 1428 2787 
Q 1159 2491 1159 1978 
L 1159 0 
L 581 0 
L 581 4863 
L 1159 4863 
L 1159 2956 
Q 1366 3272 1645 3428 
Q 1925 3584 2291 3584 
Q 2894 3584 3203 3211 
Q 3513 2838 3513 2113 
z
" transform="scale(0.015625)"/>
      </defs>
      <use xlink:href="#DejaVuSans-51"/>
      <use xlink:href="#DejaVuSans-75" transform="translate(78.710938 0)"/>
      <use xlink:href="#DejaVuSans-65" transform="translate(142.089844 0)"/>
      <use xlink:href="#DejaVuSans-75" transform="translate(203.613281 0)"/>
      <use xlink:href="#DejaVuSans-65" transform="translate(266.992188 0)"/>
      <use xlink:href="#DejaVuSans-20" transform="translate(328.515625 0)"/>
      <use xlink:href="#DejaVuSans-4c" transform="translate(360.302734 0)"/>
      <use xlink:href="#DejaVuSans-65" transform="translate(414.265625 0)"/>
      <use xlink:href="#DejaVuSans-6e" transform="translate(475.789062 0)"/>
      <use xlink:href="#DejaVuSans-67" transform="translate(539.167969 0)"/>
      <use xlink:href="#DejaVuSans-74" transform="translate(602.644531 0)"/>
      <use xlink:href="#DejaVuSans-68" transform="translate(641.853516 0)"/>
     </g>
    </g>
   </g>
   <g id="line2d_76">
    <path d="M 68.194083 387.859091 
L 71.435194 387.859091 
L 73.05575 383.893802 
L 74.676305 387.859091 
L 84.399639 387.859091 
L 86.020194 383.893802 
L 90.881861 383.893802 
L 92.502416 387.859091 
L 97.364083 387.859091 
L 98.984639 383.893802 
L 100.605194 383.893802 
L 102.22575 379.928512 
L 111.949083 379.928512 
L 115.190194 387.859091 
L 116.81075 387.859091 
L 118.431305 383.893802 
L 121.672416 383.893802 
L 123.292972 379.928512 
L 124.913527 379.928512 
L 126.534083 375.963223 
L 129.775194 375.963223 
L 131.39575 383.893802 
L 133.016305 383.893802 
L 134.636861 387.859091 
L 137.877972 387.859091 
L 139.498527 383.893802 
L 142.739639 383.893802 
L 144.360194 379.928512 
L 145.98075 387.859091 
L 157.324638 387.859091 
L 158.945194 383.893802 
L 162.186305 383.893802 
L 163.806861 387.859091 
L 178.391861 387.859091 
L 181.632972 379.928512 
L 183.253527 383.893802 
L 184.874083 379.928512 
L 186.494638 379.928512 
L 189.735749 387.859091 
L 196.217972 387.859091 
L 197.838527 383.893802 
L 199.459083 387.859091 
L 207.56186 387.859091 
L 210.802972 379.928512 
L 212.423527 383.893802 
L 215.664638 375.963223 
L 217.285194 375.963223 
L 218.905749 379.928512 
L 220.526305 375.963223 
L 222.14686 379.928512 
L 223.767416 379.928512 
L 225.387972 375.963223 
L 227.008527 379.928512 
L 228.629083 375.963223 
L 235.111305 375.963223 
L 236.73186 371.997934 
L 238.352416 375.963223 
L 239.972971 375.963223 
L 241.593527 383.893802 
L 243.214083 383.893802 
L 244.834638 387.859091 
L 248.075749 379.928512 
L 249.696305 379.928512 
L 252.937416 371.997934 
L 257.799082 371.997934 
L 259.419638 368.032645 
L 261.040194 368.032645 
L 262.660749 364.067355 
L 264.281305 364.067355 
L 265.90186 371.997934 
L 267.522416 375.963223 
L 269.142971 383.893802 
L 270.763527 387.859091 
L 272.384082 383.893802 
L 274.004638 383.893802 
L 275.625194 387.859091 
L 277.245749 387.859091 
L 278.866305 383.893802 
L 280.48686 383.893802 
L 282.107416 379.928512 
L 283.727971 383.893802 
L 286.969082 383.893802 
L 288.589638 379.928512 
L 290.210193 379.928512 
L 293.451305 371.997934 
L 295.07186 375.963223 
L 298.312971 375.963223 
L 299.933527 383.893802 
L 301.554082 383.893802 
L 303.174638 379.928512 
L 306.415749 379.928512 
L 311.277416 368.032645 
L 312.897971 368.032645 
L 314.518527 371.997934 
L 317.759638 364.067355 
L 319.380193 364.067355 
L 321.000749 368.032645 
L 322.621304 364.067355 
L 324.24186 368.032645 
L 327.482971 360.102066 
L 332.344638 360.102066 
L 333.965193 356.136777 
L 335.585749 356.136777 
L 337.206304 360.102066 
L 338.82686 360.102066 
L 342.067971 352.171488 
L 343.688527 360.102066 
L 345.309082 360.102066 
L 351.791304 344.240909 
L 355.032415 352.171488 
L 358.273527 344.240909 
L 359.894082 352.171488 
L 361.514638 356.136777 
L 363.135193 352.171488 
L 364.755749 352.171488 
L 367.99686 344.240909 
L 371.237971 360.102066 
L 372.858526 356.136777 
L 374.479082 360.102066 
L 379.340749 360.102066 
L 380.961304 356.136777 
L 382.58186 356.136777 
L 384.202415 352.171488 
L 385.822971 352.171488 
L 387.443526 348.206198 
L 389.064082 352.171488 
L 392.305193 352.171488 
L 393.925749 356.136777 
L 395.546304 356.136777 
L 398.787415 364.067355 
L 400.407971 364.067355 
L 402.028526 371.997934 
L 403.649082 375.963223 
L 405.269637 387.859091 
L 429.577971 387.859091 
L 434.439637 375.963223 
L 436.060193 375.963223 
L 437.680748 383.893802 
L 439.301304 387.859091 
L 444.162971 387.859091 
L 445.783526 383.893802 
L 449.024637 383.893802 
L 450.645193 387.859091 
L 471.712415 387.859091 
L 474.953526 379.928512 
L 476.574082 387.859091 
L 484.676859 387.859091 
L 486.297415 383.893802 
L 487.91797 383.893802 
L 491.159082 375.963223 
L 492.779637 375.963223 
L 499.261859 360.102066 
L 500.882415 364.067355 
L 502.50297 360.102066 
L 504.123526 368.032645 
L 505.744082 368.032645 
L 507.364637 364.067355 
L 510.605748 364.067355 
L 512.226304 368.032645 
L 513.846859 364.067355 
L 517.08797 371.997934 
L 518.708526 368.032645 
L 520.329081 368.032645 
L 523.570193 360.102066 
L 525.190748 360.102066 
L 526.811304 368.032645 
L 528.431859 368.032645 
L 530.052415 375.963223 
L 531.67297 371.997934 
L 533.293526 375.963223 
L 539.775748 360.102066 
L 539.775748 360.102066 
" clip-path="url(#pecb857ca1b)" style="fill: none; stroke: #1f77b4; stroke-width: 1.5; stroke-linecap: square"/>
   </g>
   <g id="patch_18">
    <path d="M 44.615 390.04 
L 44.615 342.06 
" style="fill: none; stroke: #000000; stroke-width: 0.8; stroke-linejoin: miter; stroke-linecap: square"/>
   </g>
   <g id="patch_19">
    <path d="M 563.354831 390.04 
L 563.354831 342.06 
" style="fill: none; stroke: #000000; stroke-width: 0.8; stroke-linejoin: miter; stroke-linecap: square"/>
   </g>
   <g id="patch_20">
    <path d="M 44.615 390.04 
L 563.354831 390.04 
" style="fill: none; stroke: #000000; stroke-width: 0.8; stroke-linejoin: miter; stroke-linecap: square"/>
   </g>
   <g id="patch_21">
    <path d="M 44.615 342.06 
L 563.354831 342.06 
" style="fill: none; stroke: #000000; stroke-width: 0.8; stroke-linejoin: miter; stroke-linecap: square"/>
   </g>
   <g id="text_48">
    <!-- Queue Length -->
    <g transform="translate(256.515541 336.06) scale(0.12 -0.12)">
     <defs>
      <path id="DejaVuSans-Bold-51" d="M 2847 -84 
L 2753 -84 
Q 1600 -84 959 553 
Q 319 1191 319 2328 
Q 319 3463 958 4106 
Q 1597 4750 2719 4750 
Q 3853 4750 4486 4112 
Q 5119 3475 5119 2328 
Q 5119 1541 4783 972 
Q 4447 403 3816 116 
L 4756 -934 
L 3609 -934 
L 2847 -84 
z
M 2719 3878 
Q 2169 3878 1866 3472 
Q 1563 3066 1563 2328 
Q 1563 1578 1859 1179 
Q 2156 781 2719 781 
Q 3272 781 3575 1187 
Q 3878 1594 3878 2328 
Q 3878 3066 3575 3472 
Q 3272 3878 2719 3878 
z
" transform="scale(0.015625)"/>
      <path id="DejaVuSans-Bold-75" d="M 500 1363 
L 500 3500 
L 1625 3500 
L 1625 3150 
Q 1625 2866 1622 2436 
Q 1619 2006 1619 1863 
Q 1619 1441 1641 1255 
Q 1663 1069 1716 984 
Q 1784 875 1895 815 
Q 2006 756 2150 756 
Q 2500 756 2700 1025 
Q 2900 1294 2900 1772 
L 2900 3500 
L 4019 3500 
L 4019 0 
L 2900 0 
L 2900 506 
Q 2647 200 2364 54 
Q 2081 -91 1741 -91 
Q 1134 -91 817 281 
Q 500 653 500 1363 
z
" transform="scale(0.015625)"/>
      <path id="DejaVuSans-Bold-68" d="M 4056 2131 
L 4056 0 
L 2931 0 
L 2931 347 
L 2931 1625 
Q 2931 2084 2911 2256 
Q 2891 2428 2841 2509 
Q 2775 2619 2662 2680 
Q 2550 2741 2406 2741 
Q 2056 2741 1856 2470 
Q 1656 2200 1656 1722 
L 1656 0 
L 538 0 
L 538 4863 
L 1656 4863 
L 1656 2988 
Q 1909 3294 2193 3439 
Q 2478 3584 2822 3584 
Q 3428 3584 3742 3212 
Q 4056 2841 4056 2131 
z
" transform="scale(0.015625)"/>
     </defs>
     <use xlink:href="#DejaVuSans-Bold-51"/>
     <use xlink:href="#DejaVuSans-Bold-75" transform="translate(85.009766 0)"/>
     <use xlink:href="#DejaVuSans-Bold-65" transform="translate(156.201172 0)"/>
     <use xlink:href="#DejaVuSans-Bold-75" transform="translate(224.023438 0)"/>
     <use xlink:href="#DejaVuSans-Bold-65" transform="translate(295.214844 0)"/>
     <use xlink:href="#DejaVuSans-Bold-20" transform="translate(363.037109 0)"/>
     <use xlink:href="#DejaVuSans-Bold-4c" transform="translate(397.851562 0)"/>
     <use xlink:href="#DejaVuSans-Bold-65" transform="translate(461.572266 0)"/>
     <use xlink:href="#DejaVuSans-Bold-6e" transform="translate(529.394531 0)"/>
     <use xlink:href="#DejaVuSans-Bold-67" transform="translate(600.585938 0)"/>
     <use xlink:href="#DejaVuSans-Bold-74" transform="translate(672.167969 0)"/>
     <use xlink:href="#DejaVuSans-Bold-68" transform="translate(719.970703 0)"/>
    </g>
   </g>
  </g>
 </g>
 <defs>
  <clipPath id="pceea220c3d">
   <rect x="44.615" y="26.16" width="518.739831" height="47.98"/>
  </clipPath>
  <clipPath id="pe27777a153">
   <rect x="44.615" y="131.46" width="518.739831" height="47.98"/>
  </clipPath>
  <clipPath id="p09a376cfb5">
   <rect x="44.615" y="236.76" width="518.739831" height="47.98"/>
  </clipPath>
  <clipPath id="pecb857ca1b">
   <rect x="44.615" y="342.06" width="518.739831" height="47.98"/>
  </clipPath>
 </defs>
</svg>
