<?xml version="1.0" encoding="utf-8" standalone="no"?>
<!DOCTYPE svg PUBLIC "-//W3C//DTD SVG 1.1//EN"
  "http://www.w3.org/Graphics/SVG/1.1/DTD/svg11.dtd">
<svg xmlns:xlink="http://www.w3.org/1999/xlink" width="576pt" height="432pt" viewBox="0 0 576 432" xmlns="http://www.w3.org/2000/svg" version="1.1">
 <metadata>
  <rdf:RDF xmlns:dc="http://purl.org/dc/elements/1.1/" xmlns:cc="http://creativecommons.org/ns#" xmlns:rdf="http://www.w3.org/1999/02/22-rdf-syntax-ns#">
   <cc:Work>
    <dc:type rdf:resource="http://purl.org/dc/dcmitype/StillImage"/>
    <dc:date>2025-01-03T14:42:53.665831</dc:date>
    <dc:format>image/svg+xml</dc:format>
    <dc:creator>
     <cc:Agent>
      <dc:title>Matplotlib v3.10.0, https://matplotlib.org/</dc:title>
     </cc:Agent>
    </dc:creator>
   </cc:Work>
  </rdf:RDF>
 </metadata>
 <defs>
  <style type="text/css">*{stroke-linejoin: round; stroke-linecap: butt}</style>
 </defs>
 <g id="figure_1">
  <g id="patch_1">
   <path d="M 0 432 
L 576 432 
L 576 0 
L 0 0 
z
" style="fill: #ffffff"/>
  </g>
  <g id="axes_1">
   <g id="patch_2">
    <path d="M 47.855 74.14 
L 565.2 74.14 
L 565.2 26.16 
L 47.855 26.16 
z
" style="fill: #ffffff"/>
   </g>
   <g id="matplotlib.axis_1">
    <g id="xtick_1">
     <g id="line2d_1">
      <path d="M 71.370682 74.14 
L 71.370682 26.16 
" clip-path="url(#p0eb46da274)" style="fill: none; stroke-dasharray: 2.96,1.28; stroke-dashoffset: 0; stroke: #b0b0b0; stroke-opacity: 0.7; stroke-width: 0.8"/>
     </g>
     <g id="line2d_2">
      <defs>
       <path id="m0b70bb423e" d="M 0 0 
L 0 3.5 
" style="stroke: #000000; stroke-width: 0.8"/>
      </defs>
      <g>
       <use xlink:href="#m0b70bb423e" x="71.370682" y="74.14" style="stroke: #000000; stroke-width: 0.8"/>
      </g>
     </g>
     <g id="text_1">
      <!-- 0 -->
      <g transform="translate(68.189432 88.738437) scale(0.1 -0.1)">
       <defs>
        <path id="DejaVuSans-30" d="M 2034 4250 
Q 1547 4250 1301 3770 
Q 1056 3291 1056 2328 
Q 1056 1369 1301 889 
Q 1547 409 2034 409 
Q 2525 409 2770 889 
Q 3016 1369 3016 2328 
Q 3016 3291 2770 3770 
Q 2525 4250 2034 4250 
z
M 2034 4750 
Q 2819 4750 3233 4129 
Q 3647 3509 3647 2328 
Q 3647 1150 3233 529 
Q 2819 -91 2034 -91 
Q 1250 -91 836 529 
Q 422 1150 422 2328 
Q 422 3509 836 4129 
Q 1250 4750 2034 4750 
z
" transform="scale(0.015625)"/>
       </defs>
       <use xlink:href="#DejaVuSans-30"/>
      </g>
     </g>
    </g>
    <g id="xtick_2">
     <g id="line2d_3">
      <path d="M 150.548062 74.14 
L 150.548062 26.16 
" clip-path="url(#p0eb46da274)" style="fill: none; stroke-dasharray: 2.96,1.28; stroke-dashoffset: 0; stroke: #b0b0b0; stroke-opacity: 0.7; stroke-width: 0.8"/>
     </g>
     <g id="line2d_4">
      <g>
       <use xlink:href="#m0b70bb423e" x="150.548062" y="74.14" style="stroke: #000000; stroke-width: 0.8"/>
      </g>
     </g>
     <g id="text_2">
      <!-- 50 -->
      <g transform="translate(144.185562 88.738437) scale(0.1 -0.1)">
       <defs>
        <path id="DejaVuSans-35" d="M 691 4666 
L 3169 4666 
L 3169 4134 
L 1269 4134 
L 1269 2991 
Q 1406 3038 1543 3061 
Q 1681 3084 1819 3084 
Q 2600 3084 3056 2656 
Q 3513 2228 3513 1497 
Q 3513 744 3044 326 
Q 2575 -91 1722 -91 
Q 1428 -91 1123 -41 
Q 819 9 494 109 
L 494 744 
Q 775 591 1075 516 
Q 1375 441 1709 441 
Q 2250 441 2565 725 
Q 2881 1009 2881 1497 
Q 2881 1984 2565 2268 
Q 2250 2553 1709 2553 
Q 1456 2553 1204 2497 
Q 953 2441 691 2322 
L 691 4666 
z
" transform="scale(0.015625)"/>
       </defs>
       <use xlink:href="#DejaVuSans-35"/>
       <use xlink:href="#DejaVuSans-30" transform="translate(63.623047 0)"/>
      </g>
     </g>
    </g>
    <g id="xtick_3">
     <g id="line2d_5">
      <path d="M 229.725442 74.14 
L 229.725442 26.16 
" clip-path="url(#p0eb46da274)" style="fill: none; stroke-dasharray: 2.96,1.28; stroke-dashoffset: 0; stroke: #b0b0b0; stroke-opacity: 0.7; stroke-width: 0.8"/>
     </g>
     <g id="line2d_6">
      <g>
       <use xlink:href="#m0b70bb423e" x="229.725442" y="74.14" style="stroke: #000000; stroke-width: 0.8"/>
      </g>
     </g>
     <g id="text_3">
      <!-- 100 -->
      <g transform="translate(220.181692 88.738437) scale(0.1 -0.1)">
       <defs>
        <path id="DejaVuSans-31" d="M 794 531 
L 1825 531 
L 1825 4091 
L 703 3866 
L 703 4441 
L 1819 4666 
L 2450 4666 
L 2450 531 
L 3481 531 
L 3481 0 
L 794 0 
L 794 531 
z
" transform="scale(0.015625)"/>
       </defs>
       <use xlink:href="#DejaVuSans-31"/>
       <use xlink:href="#DejaVuSans-30" transform="translate(63.623047 0)"/>
       <use xlink:href="#DejaVuSans-30" transform="translate(127.246094 0)"/>
      </g>
     </g>
    </g>
    <g id="xtick_4">
     <g id="line2d_7">
      <path d="M 308.902821 74.14 
L 308.902821 26.16 
" clip-path="url(#p0eb46da274)" style="fill: none; stroke-dasharray: 2.96,1.28; stroke-dashoffset: 0; stroke: #b0b0b0; stroke-opacity: 0.7; stroke-width: 0.8"/>
     </g>
     <g id="line2d_8">
      <g>
       <use xlink:href="#m0b70bb423e" x="308.902821" y="74.14" style="stroke: #000000; stroke-width: 0.8"/>
      </g>
     </g>
     <g id="text_4">
      <!-- 150 -->
      <g transform="translate(299.359071 88.738437) scale(0.1 -0.1)">
       <use xlink:href="#DejaVuSans-31"/>
       <use xlink:href="#DejaVuSans-35" transform="translate(63.623047 0)"/>
       <use xlink:href="#DejaVuSans-30" transform="translate(127.246094 0)"/>
      </g>
     </g>
    </g>
    <g id="xtick_5">
     <g id="line2d_9">
      <path d="M 388.080201 74.14 
L 388.080201 26.16 
" clip-path="url(#p0eb46da274)" style="fill: none; stroke-dasharray: 2.96,1.28; stroke-dashoffset: 0; stroke: #b0b0b0; stroke-opacity: 0.7; stroke-width: 0.8"/>
     </g>
     <g id="line2d_10">
      <g>
       <use xlink:href="#m0b70bb423e" x="388.080201" y="74.14" style="stroke: #000000; stroke-width: 0.8"/>
      </g>
     </g>
     <g id="text_5">
      <!-- 200 -->
      <g transform="translate(378.536451 88.738437) scale(0.1 -0.1)">
       <defs>
        <path id="DejaVuSans-32" d="M 1228 531 
L 3431 531 
L 3431 0 
L 469 0 
L 469 531 
Q 828 903 1448 1529 
Q 2069 2156 2228 2338 
Q 2531 2678 2651 2914 
Q 2772 3150 2772 3378 
Q 2772 3750 2511 3984 
Q 2250 4219 1831 4219 
Q 1534 4219 1204 4116 
Q 875 4013 500 3803 
L 500 4441 
Q 881 4594 1212 4672 
Q 1544 4750 1819 4750 
Q 2544 4750 2975 4387 
Q 3406 4025 3406 3419 
Q 3406 3131 3298 2873 
Q 3191 2616 2906 2266 
Q 2828 2175 2409 1742 
Q 1991 1309 1228 531 
z
" transform="scale(0.015625)"/>
       </defs>
       <use xlink:href="#DejaVuSans-32"/>
       <use xlink:href="#DejaVuSans-30" transform="translate(63.623047 0)"/>
       <use xlink:href="#DejaVuSans-30" transform="translate(127.246094 0)"/>
      </g>
     </g>
    </g>
    <g id="xtick_6">
     <g id="line2d_11">
      <path d="M 467.257581 74.14 
L 467.257581 26.16 
" clip-path="url(#p0eb46da274)" style="fill: none; stroke-dasharray: 2.96,1.28; stroke-dashoffset: 0; stroke: #b0b0b0; stroke-opacity: 0.7; stroke-width: 0.8"/>
     </g>
     <g id="line2d_12">
      <g>
       <use xlink:href="#m0b70bb423e" x="467.257581" y="74.14" style="stroke: #000000; stroke-width: 0.8"/>
      </g>
     </g>
     <g id="text_6">
      <!-- 250 -->
      <g transform="translate(457.713831 88.738437) scale(0.1 -0.1)">
       <use xlink:href="#DejaVuSans-32"/>
       <use xlink:href="#DejaVuSans-35" transform="translate(63.623047 0)"/>
       <use xlink:href="#DejaVuSans-30" transform="translate(127.246094 0)"/>
      </g>
     </g>
    </g>
    <g id="xtick_7">
     <g id="line2d_13">
      <path d="M 546.434961 74.14 
L 546.434961 26.16 
" clip-path="url(#p0eb46da274)" style="fill: none; stroke-dasharray: 2.96,1.28; stroke-dashoffset: 0; stroke: #b0b0b0; stroke-opacity: 0.7; stroke-width: 0.8"/>
     </g>
     <g id="line2d_14">
      <g>
       <use xlink:href="#m0b70bb423e" x="546.434961" y="74.14" style="stroke: #000000; stroke-width: 0.8"/>
      </g>
     </g>
     <g id="text_7">
      <!-- 300 -->
      <g transform="translate(536.891211 88.738437) scale(0.1 -0.1)">
       <defs>
        <path id="DejaVuSans-33" d="M 2597 2516 
Q 3050 2419 3304 2112 
Q 3559 1806 3559 1356 
Q 3559 666 3084 287 
Q 2609 -91 1734 -91 
Q 1441 -91 1130 -33 
Q 819 25 488 141 
L 488 750 
Q 750 597 1062 519 
Q 1375 441 1716 441 
Q 2309 441 2620 675 
Q 2931 909 2931 1356 
Q 2931 1769 2642 2001 
Q 2353 2234 1838 2234 
L 1294 2234 
L 1294 2753 
L 1863 2753 
Q 2328 2753 2575 2939 
Q 2822 3125 2822 3475 
Q 2822 3834 2567 4026 
Q 2313 4219 1838 4219 
Q 1578 4219 1281 4162 
Q 984 4106 628 3988 
L 628 4550 
Q 988 4650 1302 4700 
Q 1616 4750 1894 4750 
Q 2613 4750 3031 4423 
Q 3450 4097 3450 3541 
Q 3450 3153 3228 2886 
Q 3006 2619 2597 2516 
z
" transform="scale(0.015625)"/>
       </defs>
       <use xlink:href="#DejaVuSans-33"/>
       <use xlink:href="#DejaVuSans-30" transform="translate(63.623047 0)"/>
       <use xlink:href="#DejaVuSans-30" transform="translate(127.246094 0)"/>
      </g>
     </g>
    </g>
    <g id="text_8">
     <!-- Request Number -->
     <g transform="translate(264.542344 102.416562) scale(0.1 -0.1)">
      <defs>
       <path id="DejaVuSans-52" d="M 2841 2188 
Q 3044 2119 3236 1894 
Q 3428 1669 3622 1275 
L 4263 0 
L 3584 0 
L 2988 1197 
Q 2756 1666 2539 1819 
Q 2322 1972 1947 1972 
L 1259 1972 
L 1259 0 
L 628 0 
L 628 4666 
L 2053 4666 
Q 2853 4666 3247 4331 
Q 3641 3997 3641 3322 
Q 3641 2881 3436 2590 
Q 3231 2300 2841 2188 
z
M 1259 4147 
L 1259 2491 
L 2053 2491 
Q 2509 2491 2742 2702 
Q 2975 2913 2975 3322 
Q 2975 3731 2742 3939 
Q 2509 4147 2053 4147 
L 1259 4147 
z
" transform="scale(0.015625)"/>
       <path id="DejaVuSans-65" d="M 3597 1894 
L 3597 1613 
L 953 1613 
Q 991 1019 1311 708 
Q 1631 397 2203 397 
Q 2534 397 2845 478 
Q 3156 559 3463 722 
L 3463 178 
Q 3153 47 2828 -22 
Q 2503 -91 2169 -91 
Q 1331 -91 842 396 
Q 353 884 353 1716 
Q 353 2575 817 3079 
Q 1281 3584 2069 3584 
Q 2775 3584 3186 3129 
Q 3597 2675 3597 1894 
z
M 3022 2063 
Q 3016 2534 2758 2815 
Q 2500 3097 2075 3097 
Q 1594 3097 1305 2825 
Q 1016 2553 972 2059 
L 3022 2063 
z
" transform="scale(0.015625)"/>
       <path id="DejaVuSans-71" d="M 947 1747 
Q 947 1113 1208 752 
Q 1469 391 1925 391 
Q 2381 391 2643 752 
Q 2906 1113 2906 1747 
Q 2906 2381 2643 2742 
Q 2381 3103 1925 3103 
Q 1469 3103 1208 2742 
Q 947 2381 947 1747 
z
M 2906 525 
Q 2725 213 2448 61 
Q 2172 -91 1784 -91 
Q 1150 -91 751 415 
Q 353 922 353 1747 
Q 353 2572 751 3078 
Q 1150 3584 1784 3584 
Q 2172 3584 2448 3432 
Q 2725 3281 2906 2969 
L 2906 3500 
L 3481 3500 
L 3481 -1331 
L 2906 -1331 
L 2906 525 
z
" transform="scale(0.015625)"/>
       <path id="DejaVuSans-75" d="M 544 1381 
L 544 3500 
L 1119 3500 
L 1119 1403 
Q 1119 906 1312 657 
Q 1506 409 1894 409 
Q 2359 409 2629 706 
Q 2900 1003 2900 1516 
L 2900 3500 
L 3475 3500 
L 3475 0 
L 2900 0 
L 2900 538 
Q 2691 219 2414 64 
Q 2138 -91 1772 -91 
Q 1169 -91 856 284 
Q 544 659 544 1381 
z
M 1991 3584 
L 1991 3584 
z
" transform="scale(0.015625)"/>
       <path id="DejaVuSans-73" d="M 2834 3397 
L 2834 2853 
Q 2591 2978 2328 3040 
Q 2066 3103 1784 3103 
Q 1356 3103 1142 2972 
Q 928 2841 928 2578 
Q 928 2378 1081 2264 
Q 1234 2150 1697 2047 
L 1894 2003 
Q 2506 1872 2764 1633 
Q 3022 1394 3022 966 
Q 3022 478 2636 193 
Q 2250 -91 1575 -91 
Q 1294 -91 989 -36 
Q 684 19 347 128 
L 347 722 
Q 666 556 975 473 
Q 1284 391 1588 391 
Q 1994 391 2212 530 
Q 2431 669 2431 922 
Q 2431 1156 2273 1281 
Q 2116 1406 1581 1522 
L 1381 1569 
Q 847 1681 609 1914 
Q 372 2147 372 2553 
Q 372 3047 722 3315 
Q 1072 3584 1716 3584 
Q 2034 3584 2315 3537 
Q 2597 3491 2834 3397 
z
" transform="scale(0.015625)"/>
       <path id="DejaVuSans-74" d="M 1172 4494 
L 1172 3500 
L 2356 3500 
L 2356 3053 
L 1172 3053 
L 1172 1153 
Q 1172 725 1289 603 
Q 1406 481 1766 481 
L 2356 481 
L 2356 0 
L 1766 0 
Q 1100 0 847 248 
Q 594 497 594 1153 
L 594 3053 
L 172 3053 
L 172 3500 
L 594 3500 
L 594 4494 
L 1172 4494 
z
" transform="scale(0.015625)"/>
       <path id="DejaVuSans-20" transform="scale(0.015625)"/>
       <path id="DejaVuSans-4e" d="M 628 4666 
L 1478 4666 
L 3547 763 
L 3547 4666 
L 4159 4666 
L 4159 0 
L 3309 0 
L 1241 3903 
L 1241 0 
L 628 0 
L 628 4666 
z
" transform="scale(0.015625)"/>
       <path id="DejaVuSans-6d" d="M 3328 2828 
Q 3544 3216 3844 3400 
Q 4144 3584 4550 3584 
Q 5097 3584 5394 3201 
Q 5691 2819 5691 2113 
L 5691 0 
L 5113 0 
L 5113 2094 
Q 5113 2597 4934 2840 
Q 4756 3084 4391 3084 
Q 3944 3084 3684 2787 
Q 3425 2491 3425 1978 
L 3425 0 
L 2847 0 
L 2847 2094 
Q 2847 2600 2669 2842 
Q 2491 3084 2119 3084 
Q 1678 3084 1418 2786 
Q 1159 2488 1159 1978 
L 1159 0 
L 581 0 
L 581 3500 
L 1159 3500 
L 1159 2956 
Q 1356 3278 1631 3431 
Q 1906 3584 2284 3584 
Q 2666 3584 2933 3390 
Q 3200 3197 3328 2828 
z
" transform="scale(0.015625)"/>
       <path id="DejaVuSans-62" d="M 3116 1747 
Q 3116 2381 2855 2742 
Q 2594 3103 2138 3103 
Q 1681 3103 1420 2742 
Q 1159 2381 1159 1747 
Q 1159 1113 1420 752 
Q 1681 391 2138 391 
Q 2594 391 2855 752 
Q 3116 1113 3116 1747 
z
M 1159 2969 
Q 1341 3281 1617 3432 
Q 1894 3584 2278 3584 
Q 2916 3584 3314 3078 
Q 3713 2572 3713 1747 
Q 3713 922 3314 415 
Q 2916 -91 2278 -91 
Q 1894 -91 1617 61 
Q 1341 213 1159 525 
L 1159 0 
L 581 0 
L 581 4863 
L 1159 4863 
L 1159 2969 
z
" transform="scale(0.015625)"/>
       <path id="DejaVuSans-72" d="M 2631 2963 
Q 2534 3019 2420 3045 
Q 2306 3072 2169 3072 
Q 1681 3072 1420 2755 
Q 1159 2438 1159 1844 
L 1159 0 
L 581 0 
L 581 3500 
L 1159 3500 
L 1159 2956 
Q 1341 3275 1631 3429 
Q 1922 3584 2338 3584 
Q 2397 3584 2469 3576 
Q 2541 3569 2628 3553 
L 2631 2963 
z
" transform="scale(0.015625)"/>
      </defs>
      <use xlink:href="#DejaVuSans-52"/>
      <use xlink:href="#DejaVuSans-65" transform="translate(64.982422 0)"/>
      <use xlink:href="#DejaVuSans-71" transform="translate(126.505859 0)"/>
      <use xlink:href="#DejaVuSans-75" transform="translate(189.982422 0)"/>
      <use xlink:href="#DejaVuSans-65" transform="translate(253.361328 0)"/>
      <use xlink:href="#DejaVuSans-73" transform="translate(314.884766 0)"/>
      <use xlink:href="#DejaVuSans-74" transform="translate(366.984375 0)"/>
      <use xlink:href="#DejaVuSans-20" transform="translate(406.193359 0)"/>
      <use xlink:href="#DejaVuSans-4e" transform="translate(437.980469 0)"/>
      <use xlink:href="#DejaVuSans-75" transform="translate(512.785156 0)"/>
      <use xlink:href="#DejaVuSans-6d" transform="translate(576.164062 0)"/>
      <use xlink:href="#DejaVuSans-62" transform="translate(673.576172 0)"/>
      <use xlink:href="#DejaVuSans-65" transform="translate(737.052734 0)"/>
      <use xlink:href="#DejaVuSans-72" transform="translate(798.576172 0)"/>
     </g>
    </g>
   </g>
   <g id="matplotlib.axis_2">
    <g id="ytick_1">
     <g id="line2d_15">
      <path d="M 47.855 71.967485 
L 565.2 71.967485 
" clip-path="url(#p0eb46da274)" style="fill: none; stroke-dasharray: 2.96,1.28; stroke-dashoffset: 0; stroke: #b0b0b0; stroke-opacity: 0.7; stroke-width: 0.8"/>
     </g>
     <g id="line2d_16">
      <defs>
       <path id="me67645bf46" d="M 0 0 
L -3.5 0 
" style="stroke: #000000; stroke-width: 0.8"/>
      </defs>
      <g>
       <use xlink:href="#me67645bf46" x="47.855" y="71.967485" style="stroke: #000000; stroke-width: 0.8"/>
      </g>
     </g>
     <g id="text_9">
      <!-- 0 -->
      <g transform="translate(34.4925 75.766704) scale(0.1 -0.1)">
       <use xlink:href="#DejaVuSans-30"/>
      </g>
     </g>
    </g>
    <g id="ytick_2">
     <g id="line2d_17">
      <path d="M 47.855 38.235816 
L 565.2 38.235816 
" clip-path="url(#p0eb46da274)" style="fill: none; stroke-dasharray: 2.96,1.28; stroke-dashoffset: 0; stroke: #b0b0b0; stroke-opacity: 0.7; stroke-width: 0.8"/>
     </g>
     <g id="line2d_18">
      <g>
       <use xlink:href="#me67645bf46" x="47.855" y="38.235816" style="stroke: #000000; stroke-width: 0.8"/>
      </g>
     </g>
     <g id="text_10">
      <!-- 5 -->
      <g transform="translate(34.4925 42.035034) scale(0.1 -0.1)">
       <use xlink:href="#DejaVuSans-35"/>
      </g>
     </g>
    </g>
    <g id="text_11">
     <!-- Processing Time (s) -->
     <g transform="translate(28.412813 98.764844) rotate(-90) scale(0.1 -0.1)">
      <defs>
       <path id="DejaVuSans-50" d="M 1259 4147 
L 1259 2394 
L 2053 2394 
Q 2494 2394 2734 2622 
Q 2975 2850 2975 3272 
Q 2975 3691 2734 3919 
Q 2494 4147 2053 4147 
L 1259 4147 
z
M 628 4666 
L 2053 4666 
Q 2838 4666 3239 4311 
Q 3641 3956 3641 3272 
Q 3641 2581 3239 2228 
Q 2838 1875 2053 1875 
L 1259 1875 
L 1259 0 
L 628 0 
L 628 4666 
z
" transform="scale(0.015625)"/>
       <path id="DejaVuSans-6f" d="M 1959 3097 
Q 1497 3097 1228 2736 
Q 959 2375 959 1747 
Q 959 1119 1226 758 
Q 1494 397 1959 397 
Q 2419 397 2687 759 
Q 2956 1122 2956 1747 
Q 2956 2369 2687 2733 
Q 2419 3097 1959 3097 
z
M 1959 3584 
Q 2709 3584 3137 3096 
Q 3566 2609 3566 1747 
Q 3566 888 3137 398 
Q 2709 -91 1959 -91 
Q 1206 -91 779 398 
Q 353 888 353 1747 
Q 353 2609 779 3096 
Q 1206 3584 1959 3584 
z
" transform="scale(0.015625)"/>
       <path id="DejaVuSans-63" d="M 3122 3366 
L 3122 2828 
Q 2878 2963 2633 3030 
Q 2388 3097 2138 3097 
Q 1578 3097 1268 2742 
Q 959 2388 959 1747 
Q 959 1106 1268 751 
Q 1578 397 2138 397 
Q 2388 397 2633 464 
Q 2878 531 3122 666 
L 3122 134 
Q 2881 22 2623 -34 
Q 2366 -91 2075 -91 
Q 1284 -91 818 406 
Q 353 903 353 1747 
Q 353 2603 823 3093 
Q 1294 3584 2113 3584 
Q 2378 3584 2631 3529 
Q 2884 3475 3122 3366 
z
" transform="scale(0.015625)"/>
       <path id="DejaVuSans-69" d="M 603 3500 
L 1178 3500 
L 1178 0 
L 603 0 
L 603 3500 
z
M 603 4863 
L 1178 4863 
L 1178 4134 
L 603 4134 
L 603 4863 
z
" transform="scale(0.015625)"/>
       <path id="DejaVuSans-6e" d="M 3513 2113 
L 3513 0 
L 2938 0 
L 2938 2094 
Q 2938 2591 2744 2837 
Q 2550 3084 2163 3084 
Q 1697 3084 1428 2787 
Q 1159 2491 1159 1978 
L 1159 0 
L 581 0 
L 581 3500 
L 1159 3500 
L 1159 2956 
Q 1366 3272 1645 3428 
Q 1925 3584 2291 3584 
Q 2894 3584 3203 3211 
Q 3513 2838 3513 2113 
z
" transform="scale(0.015625)"/>
       <path id="DejaVuSans-67" d="M 2906 1791 
Q 2906 2416 2648 2759 
Q 2391 3103 1925 3103 
Q 1463 3103 1205 2759 
Q 947 2416 947 1791 
Q 947 1169 1205 825 
Q 1463 481 1925 481 
Q 2391 481 2648 825 
Q 2906 1169 2906 1791 
z
M 3481 434 
Q 3481 -459 3084 -895 
Q 2688 -1331 1869 -1331 
Q 1566 -1331 1297 -1286 
Q 1028 -1241 775 -1147 
L 775 -588 
Q 1028 -725 1275 -790 
Q 1522 -856 1778 -856 
Q 2344 -856 2625 -561 
Q 2906 -266 2906 331 
L 2906 616 
Q 2728 306 2450 153 
Q 2172 0 1784 0 
Q 1141 0 747 490 
Q 353 981 353 1791 
Q 353 2603 747 3093 
Q 1141 3584 1784 3584 
Q 2172 3584 2450 3431 
Q 2728 3278 2906 2969 
L 2906 3500 
L 3481 3500 
L 3481 434 
z
" transform="scale(0.015625)"/>
       <path id="DejaVuSans-54" d="M -19 4666 
L 3928 4666 
L 3928 4134 
L 2272 4134 
L 2272 0 
L 1638 0 
L 1638 4134 
L -19 4134 
L -19 4666 
z
" transform="scale(0.015625)"/>
       <path id="DejaVuSans-28" d="M 1984 4856 
Q 1566 4138 1362 3434 
Q 1159 2731 1159 2009 
Q 1159 1288 1364 580 
Q 1569 -128 1984 -844 
L 1484 -844 
Q 1016 -109 783 600 
Q 550 1309 550 2009 
Q 550 2706 781 3412 
Q 1013 4119 1484 4856 
L 1984 4856 
z
" transform="scale(0.015625)"/>
       <path id="DejaVuSans-29" d="M 513 4856 
L 1013 4856 
Q 1481 4119 1714 3412 
Q 1947 2706 1947 2009 
Q 1947 1309 1714 600 
Q 1481 -109 1013 -844 
L 513 -844 
Q 928 -128 1133 580 
Q 1338 1288 1338 2009 
Q 1338 2731 1133 3434 
Q 928 4138 513 4856 
z
" transform="scale(0.015625)"/>
      </defs>
      <use xlink:href="#DejaVuSans-50"/>
      <use xlink:href="#DejaVuSans-72" transform="translate(58.552734 0)"/>
      <use xlink:href="#DejaVuSans-6f" transform="translate(97.416016 0)"/>
      <use xlink:href="#DejaVuSans-63" transform="translate(158.597656 0)"/>
      <use xlink:href="#DejaVuSans-65" transform="translate(213.578125 0)"/>
      <use xlink:href="#DejaVuSans-73" transform="translate(275.101562 0)"/>
      <use xlink:href="#DejaVuSans-73" transform="translate(327.201172 0)"/>
      <use xlink:href="#DejaVuSans-69" transform="translate(379.300781 0)"/>
      <use xlink:href="#DejaVuSans-6e" transform="translate(407.083984 0)"/>
      <use xlink:href="#DejaVuSans-67" transform="translate(470.462891 0)"/>
      <use xlink:href="#DejaVuSans-20" transform="translate(533.939453 0)"/>
      <use xlink:href="#DejaVuSans-54" transform="translate(565.726562 0)"/>
      <use xlink:href="#DejaVuSans-69" transform="translate(623.685547 0)"/>
      <use xlink:href="#DejaVuSans-6d" transform="translate(651.46875 0)"/>
      <use xlink:href="#DejaVuSans-65" transform="translate(748.880859 0)"/>
      <use xlink:href="#DejaVuSans-20" transform="translate(810.404297 0)"/>
      <use xlink:href="#DejaVuSans-28" transform="translate(842.191406 0)"/>
      <use xlink:href="#DejaVuSans-73" transform="translate(881.205078 0)"/>
      <use xlink:href="#DejaVuSans-29" transform="translate(933.304688 0)"/>
     </g>
    </g>
   </g>
   <g id="line2d_19">
    <path d="M 71.370682 70.22584 
L 72.954229 70.634462 
L 74.537777 66.755984 
L 77.704872 69.463263 
L 79.28842 66.8378 
L 80.871967 49.664306 
L 82.455515 69.201625 
L 84.039063 69.952822 
L 85.62261 69.571175 
L 87.206158 70.518251 
L 88.789705 65.790155 
L 90.373253 67.322088 
L 91.956801 62.785042 
L 93.540348 54.554546 
L 95.123896 69.266712 
L 96.707443 70.03127 
L 98.290991 71.659324 
L 99.874539 67.883435 
L 101.458086 68.479 
L 103.041634 71.829467 
L 104.625181 38.20104 
L 106.208729 71.76171 
L 107.792277 70.254321 
L 109.375824 64.139136 
L 110.959372 67.088331 
L 112.542919 65.049986 
L 114.126467 62.712057 
L 115.710015 46.491423 
L 117.293562 61.979232 
L 118.87711 71.690357 
L 120.460657 57.864939 
L 122.044205 70.40793 
L 123.627753 67.963904 
L 125.2113 52.226402 
L 126.794848 64.303123 
L 128.378395 69.943803 
L 129.961943 52.50749 
L 131.545491 59.476312 
L 133.129038 61.971552 
L 134.712586 65.391359 
L 136.296133 67.709256 
L 137.879681 67.723505 
L 139.463228 66.976062 
L 141.046776 67.646059 
L 142.630324 69.698123 
L 144.213871 62.112893 
L 145.797419 66.760269 
L 147.380966 71.769693 
L 148.964514 56.998723 
L 150.548062 64.118192 
L 152.131609 67.583356 
L 153.715157 65.168115 
L 155.298704 69.459106 
L 156.882252 70.059219 
L 158.4658 71.048934 
L 160.049347 43.238387 
L 161.632895 66.850171 
L 163.216442 71.275057 
L 164.79999 63.76788 
L 166.383538 53.459704 
L 167.967085 69.208902 
L 169.550633 61.750883 
L 171.13418 68.811313 
L 172.717728 60.634943 
L 174.301276 48.434452 
L 175.884823 69.06676 
L 177.468371 69.733787 
L 179.051918 55.301132 
L 180.635466 63.852871 
L 182.219014 65.884556 
L 183.802561 60.363093 
L 185.386109 51.384092 
L 186.969656 28.340909 
L 188.553204 56.073296 
L 190.136752 59.242183 
L 191.720299 68.059262 
L 193.303847 68.690227 
L 194.887394 69.067494 
L 196.470942 65.93149 
L 198.05449 66.289253 
L 199.638037 68.808105 
L 201.221585 67.440657 
L 202.805132 58.812388 
L 204.38868 59.709557 
L 205.972228 50.90391 
L 207.555775 71.844978 
L 209.139323 68.751213 
L 210.72287 53.438926 
L 212.306418 63.448997 
L 213.889966 65.838286 
L 215.473513 68.529228 
L 217.057061 58.766059 
L 218.640608 64.208955 
L 220.224156 66.083411 
L 221.807704 49.229857 
L 223.391251 68.108335 
L 224.974799 69.696667 
L 226.558346 68.49299 
L 228.141894 71.678604 
L 229.725442 71.949875 
L 231.308989 69.701282 
L 232.892537 65.634507 
L 234.476084 68.612308 
L 236.059632 69.781037 
L 237.64318 53.837802 
L 239.226727 67.068779 
L 240.810275 66.733502 
L 242.393822 62.936222 
L 243.97737 65.854252 
L 245.560918 63.558682 
L 247.144465 69.265128 
L 248.728013 61.964682 
L 250.31156 67.663988 
L 251.895108 66.891963 
L 253.478655 67.585499 
L 255.062203 71.045298 
L 256.645751 62.632953 
L 258.229298 63.131214 
L 259.812846 67.96363 
L 261.396393 66.516944 
L 262.979941 69.839269 
L 264.563489 61.316437 
L 266.147036 67.007561 
L 267.730584 59.513239 
L 269.314131 67.974417 
L 270.897679 71.697611 
L 272.481227 55.034449 
L 274.064774 65.898384 
L 275.648322 69.887082 
L 277.231869 67.756061 
L 278.815417 70.423536 
L 280.398965 60.558837 
L 281.982512 55.095475 
L 283.56606 71.606823 
L 285.149607 58.409012 
L 286.733155 66.802355 
L 288.316703 71.003582 
L 289.90025 69.758432 
L 291.483798 61.626677 
L 293.067345 71.527125 
L 294.650893 70.539976 
L 296.234441 70.454347 
L 297.817988 58.219382 
L 299.401536 68.704276 
L 300.985083 61.738959 
L 302.568631 71.096892 
L 304.152179 66.000987 
L 305.735726 69.934222 
L 307.319274 70.871212 
L 308.902821 42.792462 
L 310.486369 66.863107 
L 312.069917 71.570453 
L 313.653464 66.531021 
L 315.237012 70.992582 
L 316.820559 63.346321 
L 318.404107 64.596971 
L 319.987655 55.402199 
L 321.571202 63.999356 
L 323.15475 71.214807 
L 324.738297 63.604317 
L 326.321845 45.209783 
L 327.905393 68.473703 
L 329.48894 60.428161 
L 331.072488 67.962628 
L 332.656035 70.828503 
L 334.239583 70.331569 
L 335.823131 67.626055 
L 337.406678 69.652736 
L 338.990226 65.980379 
L 340.573773 70.527646 
L 342.157321 60.82301 
L 343.740869 66.943252 
L 345.324416 69.641439 
L 346.907964 71.598989 
L 348.491511 67.838837 
L 350.075059 70.927839 
L 351.658607 62.742251 
L 353.242154 65.840403 
L 354.825702 62.395523 
L 356.409249 65.309623 
L 357.992797 71.564033 
L 359.576345 70.26157 
L 361.159892 66.172297 
L 362.74344 70.091285 
L 365.910535 70.29132 
L 367.494082 66.007641 
L 369.07763 62.341325 
L 370.661178 66.258489 
L 372.244725 66.712055 
L 373.828273 59.725102 
L 375.41182 63.610357 
L 376.995368 29.931126 
L 378.578916 69.166863 
L 380.162463 67.242649 
L 381.746011 70.655341 
L 383.329558 57.521922 
L 384.913106 69.793392 
L 386.496654 67.003644 
L 388.080201 65.592866 
L 389.663749 71.908237 
L 391.247296 54.608471 
L 392.830844 69.143476 
L 394.414392 64.880799 
L 395.997939 64.108208 
L 397.581487 58.144628 
L 399.165034 63.177694 
L 400.748582 69.90948 
L 402.33213 67.12351 
L 403.915677 63.825203 
L 405.499225 65.264427 
L 407.082772 69.116425 
L 408.66632 68.414246 
L 410.249868 70.18616 
L 411.833415 47.917786 
L 413.416963 71.067331 
L 415.00051 68.432712 
L 416.584058 66.768224 
L 418.167606 70.795547 
L 419.751153 61.97272 
L 421.334701 71.893786 
L 422.918248 55.149259 
L 424.501796 63.826615 
L 426.085344 66.171474 
L 427.668891 71.265558 
L 429.252439 60.748736 
L 430.835986 71.163417 
L 432.419534 66.694916 
L 434.003082 64.361203 
L 435.586629 69.269758 
L 437.170177 40.502938 
L 438.753724 71.361052 
L 440.337272 68.280428 
L 441.92082 48.965542 
L 443.504367 63.206607 
L 445.087915 66.568114 
L 446.671462 71.405884 
L 448.25501 71.699188 
L 449.838558 60.195351 
L 451.422105 63.201176 
L 453.005653 54.875984 
L 454.5892 66.705347 
L 456.172748 69.508012 
L 457.756296 71.550283 
L 459.339843 63.318059 
L 460.923391 69.542965 
L 462.506938 67.609091 
L 464.090486 67.502968 
L 465.674034 70.113147 
L 467.257581 69.577127 
L 468.841129 71.90674 
L 470.424676 64.253294 
L 472.008224 70.358167 
L 473.591772 59.98593 
L 475.175319 71.462769 
L 476.758867 67.958087 
L 478.342414 71.722856 
L 479.925962 71.324348 
L 481.509509 70.389022 
L 483.093057 61.408541 
L 484.676605 67.372143 
L 486.260152 68.0137 
L 487.8437 56.462545 
L 489.427247 67.223018 
L 491.010795 71.959091 
L 492.594343 59.469912 
L 494.17789 70.36908 
L 495.761438 66.183756 
L 497.344985 67.338708 
L 498.928533 68.352103 
L 500.512081 65.635686 
L 502.095628 57.319018 
L 503.679176 64.19082 
L 505.262723 69.413082 
L 506.846271 67.498791 
L 508.429819 47.201727 
L 510.013366 67.42371 
L 511.596914 69.316417 
L 513.180461 69.754505 
L 514.764009 66.757483 
L 516.347557 71.632407 
L 517.931104 70.257361 
L 519.514652 56.995389 
L 521.098199 48.740225 
L 522.681747 69.29553 
L 524.265295 71.794538 
L 525.848842 69.748304 
L 527.43239 58.890683 
L 529.015937 71.8842 
L 530.599485 71.230226 
L 532.183033 68.353399 
L 533.76658 67.112072 
L 535.350128 68.175067 
L 536.933675 70.377229 
L 538.517223 53.849426 
L 540.100771 65.333077 
L 541.684318 68.746983 
L 541.684318 68.746983 
" clip-path="url(#p0eb46da274)" style="fill: none; stroke: #1f77b4; stroke-width: 1.5; stroke-linecap: square"/>
   </g>
   <g id="patch_3">
    <path d="M 47.855 74.14 
L 47.855 26.16 
" style="fill: none; stroke: #000000; stroke-width: 0.8; stroke-linejoin: miter; stroke-linecap: square"/>
   </g>
   <g id="patch_4">
    <path d="M 565.2 74.14 
L 565.2 26.16 
" style="fill: none; stroke: #000000; stroke-width: 0.8; stroke-linejoin: miter; stroke-linecap: square"/>
   </g>
   <g id="patch_5">
    <path d="M 47.855 74.14 
L 565.2 74.14 
" style="fill: none; stroke: #000000; stroke-width: 0.8; stroke-linejoin: miter; stroke-linecap: square"/>
   </g>
   <g id="patch_6">
    <path d="M 47.855 26.16 
L 565.2 26.16 
" style="fill: none; stroke: #000000; stroke-width: 0.8; stroke-linejoin: miter; stroke-linecap: square"/>
   </g>
   <g id="text_12">
    <!-- Processing Time -->
    <g transform="translate(251.096875 20.16) scale(0.12 -0.12)">
     <defs>
      <path id="DejaVuSans-Bold-50" d="M 588 4666 
L 2584 4666 
Q 3475 4666 3951 4270 
Q 4428 3875 4428 3144 
Q 4428 2409 3951 2014 
Q 3475 1619 2584 1619 
L 1791 1619 
L 1791 0 
L 588 0 
L 588 4666 
z
M 1791 3794 
L 1791 2491 
L 2456 2491 
Q 2806 2491 2997 2661 
Q 3188 2831 3188 3144 
Q 3188 3456 2997 3625 
Q 2806 3794 2456 3794 
L 1791 3794 
z
" transform="scale(0.015625)"/>
      <path id="DejaVuSans-Bold-72" d="M 3138 2547 
Q 2991 2616 2845 2648 
Q 2700 2681 2553 2681 
Q 2122 2681 1889 2404 
Q 1656 2128 1656 1613 
L 1656 0 
L 538 0 
L 538 3500 
L 1656 3500 
L 1656 2925 
Q 1872 3269 2151 3426 
Q 2431 3584 2822 3584 
Q 2878 3584 2943 3579 
Q 3009 3575 3134 3559 
L 3138 2547 
z
" transform="scale(0.015625)"/>
      <path id="DejaVuSans-Bold-6f" d="M 2203 2784 
Q 1831 2784 1636 2517 
Q 1441 2250 1441 1747 
Q 1441 1244 1636 976 
Q 1831 709 2203 709 
Q 2569 709 2762 976 
Q 2956 1244 2956 1747 
Q 2956 2250 2762 2517 
Q 2569 2784 2203 2784 
z
M 2203 3584 
Q 3106 3584 3614 3096 
Q 4122 2609 4122 1747 
Q 4122 884 3614 396 
Q 3106 -91 2203 -91 
Q 1297 -91 786 396 
Q 275 884 275 1747 
Q 275 2609 786 3096 
Q 1297 3584 2203 3584 
z
" transform="scale(0.015625)"/>
      <path id="DejaVuSans-Bold-63" d="M 3366 3391 
L 3366 2478 
Q 3138 2634 2908 2709 
Q 2678 2784 2431 2784 
Q 1963 2784 1702 2511 
Q 1441 2238 1441 1747 
Q 1441 1256 1702 982 
Q 1963 709 2431 709 
Q 2694 709 2930 787 
Q 3166 866 3366 1019 
L 3366 103 
Q 3103 6 2833 -42 
Q 2563 -91 2291 -91 
Q 1344 -91 809 395 
Q 275 881 275 1747 
Q 275 2613 809 3098 
Q 1344 3584 2291 3584 
Q 2566 3584 2833 3536 
Q 3100 3488 3366 3391 
z
" transform="scale(0.015625)"/>
      <path id="DejaVuSans-Bold-65" d="M 4031 1759 
L 4031 1441 
L 1416 1441 
Q 1456 1047 1700 850 
Q 1944 653 2381 653 
Q 2734 653 3104 758 
Q 3475 863 3866 1075 
L 3866 213 
Q 3469 63 3072 -14 
Q 2675 -91 2278 -91 
Q 1328 -91 801 392 
Q 275 875 275 1747 
Q 275 2603 792 3093 
Q 1309 3584 2216 3584 
Q 3041 3584 3536 3087 
Q 4031 2591 4031 1759 
z
M 2881 2131 
Q 2881 2450 2695 2645 
Q 2509 2841 2209 2841 
Q 1884 2841 1681 2658 
Q 1478 2475 1428 2131 
L 2881 2131 
z
" transform="scale(0.015625)"/>
      <path id="DejaVuSans-Bold-73" d="M 3272 3391 
L 3272 2541 
Q 2913 2691 2578 2766 
Q 2244 2841 1947 2841 
Q 1628 2841 1473 2761 
Q 1319 2681 1319 2516 
Q 1319 2381 1436 2309 
Q 1553 2238 1856 2203 
L 2053 2175 
Q 2913 2066 3209 1816 
Q 3506 1566 3506 1031 
Q 3506 472 3093 190 
Q 2681 -91 1863 -91 
Q 1516 -91 1145 -36 
Q 775 19 384 128 
L 384 978 
Q 719 816 1070 734 
Q 1422 653 1784 653 
Q 2113 653 2278 743 
Q 2444 834 2444 1013 
Q 2444 1163 2330 1236 
Q 2216 1309 1875 1350 
L 1678 1375 
Q 931 1469 631 1722 
Q 331 1975 331 2491 
Q 331 3047 712 3315 
Q 1094 3584 1881 3584 
Q 2191 3584 2531 3537 
Q 2872 3491 3272 3391 
z
" transform="scale(0.015625)"/>
      <path id="DejaVuSans-Bold-69" d="M 538 3500 
L 1656 3500 
L 1656 0 
L 538 0 
L 538 3500 
z
M 538 4863 
L 1656 4863 
L 1656 3950 
L 538 3950 
L 538 4863 
z
" transform="scale(0.015625)"/>
      <path id="DejaVuSans-Bold-6e" d="M 4056 2131 
L 4056 0 
L 2931 0 
L 2931 347 
L 2931 1631 
Q 2931 2084 2911 2256 
Q 2891 2428 2841 2509 
Q 2775 2619 2662 2680 
Q 2550 2741 2406 2741 
Q 2056 2741 1856 2470 
Q 1656 2200 1656 1722 
L 1656 0 
L 538 0 
L 538 3500 
L 1656 3500 
L 1656 2988 
Q 1909 3294 2193 3439 
Q 2478 3584 2822 3584 
Q 3428 3584 3742 3212 
Q 4056 2841 4056 2131 
z
" transform="scale(0.015625)"/>
      <path id="DejaVuSans-Bold-67" d="M 2919 594 
Q 2688 288 2409 144 
Q 2131 0 1766 0 
Q 1125 0 706 504 
Q 288 1009 288 1791 
Q 288 2575 706 3076 
Q 1125 3578 1766 3578 
Q 2131 3578 2409 3434 
Q 2688 3291 2919 2981 
L 2919 3500 
L 4044 3500 
L 4044 353 
Q 4044 -491 3511 -936 
Q 2978 -1381 1966 -1381 
Q 1638 -1381 1331 -1331 
Q 1025 -1281 716 -1178 
L 716 -306 
Q 1009 -475 1290 -558 
Q 1572 -641 1856 -641 
Q 2406 -641 2662 -400 
Q 2919 -159 2919 353 
L 2919 594 
z
M 2181 2772 
Q 1834 2772 1640 2515 
Q 1447 2259 1447 1791 
Q 1447 1309 1634 1061 
Q 1822 813 2181 813 
Q 2531 813 2725 1069 
Q 2919 1325 2919 1791 
Q 2919 2259 2725 2515 
Q 2531 2772 2181 2772 
z
" transform="scale(0.015625)"/>
      <path id="DejaVuSans-Bold-20" transform="scale(0.015625)"/>
      <path id="DejaVuSans-Bold-54" d="M 31 4666 
L 4331 4666 
L 4331 3756 
L 2784 3756 
L 2784 0 
L 1581 0 
L 1581 3756 
L 31 3756 
L 31 4666 
z
" transform="scale(0.015625)"/>
      <path id="DejaVuSans-Bold-6d" d="M 3781 2919 
Q 3994 3244 4286 3414 
Q 4578 3584 4928 3584 
Q 5531 3584 5847 3212 
Q 6163 2841 6163 2131 
L 6163 0 
L 5038 0 
L 5038 1825 
Q 5041 1866 5042 1909 
Q 5044 1953 5044 2034 
Q 5044 2406 4934 2573 
Q 4825 2741 4581 2741 
Q 4263 2741 4089 2478 
Q 3916 2216 3909 1719 
L 3909 0 
L 2784 0 
L 2784 1825 
Q 2784 2406 2684 2573 
Q 2584 2741 2328 2741 
Q 2006 2741 1831 2477 
Q 1656 2213 1656 1722 
L 1656 0 
L 531 0 
L 531 3500 
L 1656 3500 
L 1656 2988 
Q 1863 3284 2130 3434 
Q 2397 3584 2719 3584 
Q 3081 3584 3359 3409 
Q 3638 3234 3781 2919 
z
" transform="scale(0.015625)"/>
     </defs>
     <use xlink:href="#DejaVuSans-Bold-50"/>
     <use xlink:href="#DejaVuSans-Bold-72" transform="translate(73.291016 0)"/>
     <use xlink:href="#DejaVuSans-Bold-6f" transform="translate(122.607422 0)"/>
     <use xlink:href="#DejaVuSans-Bold-63" transform="translate(191.308594 0)"/>
     <use xlink:href="#DejaVuSans-Bold-65" transform="translate(250.585938 0)"/>
     <use xlink:href="#DejaVuSans-Bold-73" transform="translate(318.408203 0)"/>
     <use xlink:href="#DejaVuSans-Bold-73" transform="translate(377.929688 0)"/>
     <use xlink:href="#DejaVuSans-Bold-69" transform="translate(437.451172 0)"/>
     <use xlink:href="#DejaVuSans-Bold-6e" transform="translate(471.728516 0)"/>
     <use xlink:href="#DejaVuSans-Bold-67" transform="translate(542.919922 0)"/>
     <use xlink:href="#DejaVuSans-Bold-20" transform="translate(614.501953 0)"/>
     <use xlink:href="#DejaVuSans-Bold-54" transform="translate(649.316406 0)"/>
     <use xlink:href="#DejaVuSans-Bold-69" transform="translate(717.529297 0)"/>
     <use xlink:href="#DejaVuSans-Bold-6d" transform="translate(751.806641 0)"/>
     <use xlink:href="#DejaVuSans-Bold-65" transform="translate(856.005859 0)"/>
    </g>
   </g>
  </g>
  <g id="axes_2">
   <g id="patch_7">
    <path d="M 47.855 179.44 
L 565.2 179.44 
L 565.2 131.46 
L 47.855 131.46 
z
" style="fill: #ffffff"/>
   </g>
   <g id="matplotlib.axis_3">
    <g id="xtick_8">
     <g id="line2d_20">
      <path d="M 71.370682 179.44 
L 71.370682 131.46 
" clip-path="url(#p215deb03e8)" style="fill: none; stroke-dasharray: 2.96,1.28; stroke-dashoffset: 0; stroke: #b0b0b0; stroke-opacity: 0.7; stroke-width: 0.8"/>
     </g>
     <g id="line2d_21">
      <g>
       <use xlink:href="#m0b70bb423e" x="71.370682" y="179.44" style="stroke: #000000; stroke-width: 0.8"/>
      </g>
     </g>
     <g id="text_13">
      <!-- 0 -->
      <g transform="translate(68.189432 194.038437) scale(0.1 -0.1)">
       <use xlink:href="#DejaVuSans-30"/>
      </g>
     </g>
    </g>
    <g id="xtick_9">
     <g id="line2d_22">
      <path d="M 150.548062 179.44 
L 150.548062 131.46 
" clip-path="url(#p215deb03e8)" style="fill: none; stroke-dasharray: 2.96,1.28; stroke-dashoffset: 0; stroke: #b0b0b0; stroke-opacity: 0.7; stroke-width: 0.8"/>
     </g>
     <g id="line2d_23">
      <g>
       <use xlink:href="#m0b70bb423e" x="150.548062" y="179.44" style="stroke: #000000; stroke-width: 0.8"/>
      </g>
     </g>
     <g id="text_14">
      <!-- 50 -->
      <g transform="translate(144.185562 194.038437) scale(0.1 -0.1)">
       <use xlink:href="#DejaVuSans-35"/>
       <use xlink:href="#DejaVuSans-30" transform="translate(63.623047 0)"/>
      </g>
     </g>
    </g>
    <g id="xtick_10">
     <g id="line2d_24">
      <path d="M 229.725442 179.44 
L 229.725442 131.46 
" clip-path="url(#p215deb03e8)" style="fill: none; stroke-dasharray: 2.96,1.28; stroke-dashoffset: 0; stroke: #b0b0b0; stroke-opacity: 0.7; stroke-width: 0.8"/>
     </g>
     <g id="line2d_25">
      <g>
       <use xlink:href="#m0b70bb423e" x="229.725442" y="179.44" style="stroke: #000000; stroke-width: 0.8"/>
      </g>
     </g>
     <g id="text_15">
      <!-- 100 -->
      <g transform="translate(220.181692 194.038437) scale(0.1 -0.1)">
       <use xlink:href="#DejaVuSans-31"/>
       <use xlink:href="#DejaVuSans-30" transform="translate(63.623047 0)"/>
       <use xlink:href="#DejaVuSans-30" transform="translate(127.246094 0)"/>
      </g>
     </g>
    </g>
    <g id="xtick_11">
     <g id="line2d_26">
      <path d="M 308.902821 179.44 
L 308.902821 131.46 
" clip-path="url(#p215deb03e8)" style="fill: none; stroke-dasharray: 2.96,1.28; stroke-dashoffset: 0; stroke: #b0b0b0; stroke-opacity: 0.7; stroke-width: 0.8"/>
     </g>
     <g id="line2d_27">
      <g>
       <use xlink:href="#m0b70bb423e" x="308.902821" y="179.44" style="stroke: #000000; stroke-width: 0.8"/>
      </g>
     </g>
     <g id="text_16">
      <!-- 150 -->
      <g transform="translate(299.359071 194.038437) scale(0.1 -0.1)">
       <use xlink:href="#DejaVuSans-31"/>
       <use xlink:href="#DejaVuSans-35" transform="translate(63.623047 0)"/>
       <use xlink:href="#DejaVuSans-30" transform="translate(127.246094 0)"/>
      </g>
     </g>
    </g>
    <g id="xtick_12">
     <g id="line2d_28">
      <path d="M 388.080201 179.44 
L 388.080201 131.46 
" clip-path="url(#p215deb03e8)" style="fill: none; stroke-dasharray: 2.96,1.28; stroke-dashoffset: 0; stroke: #b0b0b0; stroke-opacity: 0.7; stroke-width: 0.8"/>
     </g>
     <g id="line2d_29">
      <g>
       <use xlink:href="#m0b70bb423e" x="388.080201" y="179.44" style="stroke: #000000; stroke-width: 0.8"/>
      </g>
     </g>
     <g id="text_17">
      <!-- 200 -->
      <g transform="translate(378.536451 194.038437) scale(0.1 -0.1)">
       <use xlink:href="#DejaVuSans-32"/>
       <use xlink:href="#DejaVuSans-30" transform="translate(63.623047 0)"/>
       <use xlink:href="#DejaVuSans-30" transform="translate(127.246094 0)"/>
      </g>
     </g>
    </g>
    <g id="xtick_13">
     <g id="line2d_30">
      <path d="M 467.257581 179.44 
L 467.257581 131.46 
" clip-path="url(#p215deb03e8)" style="fill: none; stroke-dasharray: 2.96,1.28; stroke-dashoffset: 0; stroke: #b0b0b0; stroke-opacity: 0.7; stroke-width: 0.8"/>
     </g>
     <g id="line2d_31">
      <g>
       <use xlink:href="#m0b70bb423e" x="467.257581" y="179.44" style="stroke: #000000; stroke-width: 0.8"/>
      </g>
     </g>
     <g id="text_18">
      <!-- 250 -->
      <g transform="translate(457.713831 194.038437) scale(0.1 -0.1)">
       <use xlink:href="#DejaVuSans-32"/>
       <use xlink:href="#DejaVuSans-35" transform="translate(63.623047 0)"/>
       <use xlink:href="#DejaVuSans-30" transform="translate(127.246094 0)"/>
      </g>
     </g>
    </g>
    <g id="xtick_14">
     <g id="line2d_32">
      <path d="M 546.434961 179.44 
L 546.434961 131.46 
" clip-path="url(#p215deb03e8)" style="fill: none; stroke-dasharray: 2.96,1.28; stroke-dashoffset: 0; stroke: #b0b0b0; stroke-opacity: 0.7; stroke-width: 0.8"/>
     </g>
     <g id="line2d_33">
      <g>
       <use xlink:href="#m0b70bb423e" x="546.434961" y="179.44" style="stroke: #000000; stroke-width: 0.8"/>
      </g>
     </g>
     <g id="text_19">
      <!-- 300 -->
      <g transform="translate(536.891211 194.038437) scale(0.1 -0.1)">
       <use xlink:href="#DejaVuSans-33"/>
       <use xlink:href="#DejaVuSans-30" transform="translate(63.623047 0)"/>
       <use xlink:href="#DejaVuSans-30" transform="translate(127.246094 0)"/>
      </g>
     </g>
    </g>
    <g id="text_20">
     <!-- Request Number -->
     <g transform="translate(264.542344 207.716562) scale(0.1 -0.1)">
      <use xlink:href="#DejaVuSans-52"/>
      <use xlink:href="#DejaVuSans-65" transform="translate(64.982422 0)"/>
      <use xlink:href="#DejaVuSans-71" transform="translate(126.505859 0)"/>
      <use xlink:href="#DejaVuSans-75" transform="translate(189.982422 0)"/>
      <use xlink:href="#DejaVuSans-65" transform="translate(253.361328 0)"/>
      <use xlink:href="#DejaVuSans-73" transform="translate(314.884766 0)"/>
      <use xlink:href="#DejaVuSans-74" transform="translate(366.984375 0)"/>
      <use xlink:href="#DejaVuSans-20" transform="translate(406.193359 0)"/>
      <use xlink:href="#DejaVuSans-4e" transform="translate(437.980469 0)"/>
      <use xlink:href="#DejaVuSans-75" transform="translate(512.785156 0)"/>
      <use xlink:href="#DejaVuSans-6d" transform="translate(576.164062 0)"/>
      <use xlink:href="#DejaVuSans-62" transform="translate(673.576172 0)"/>
      <use xlink:href="#DejaVuSans-65" transform="translate(737.052734 0)"/>
      <use xlink:href="#DejaVuSans-72" transform="translate(798.576172 0)"/>
     </g>
    </g>
   </g>
   <g id="matplotlib.axis_4">
    <g id="ytick_3">
     <g id="line2d_34">
      <path d="M 47.855 177.267485 
L 565.2 177.267485 
" clip-path="url(#p215deb03e8)" style="fill: none; stroke-dasharray: 2.96,1.28; stroke-dashoffset: 0; stroke: #b0b0b0; stroke-opacity: 0.7; stroke-width: 0.8"/>
     </g>
     <g id="line2d_35">
      <g>
       <use xlink:href="#me67645bf46" x="47.855" y="177.267485" style="stroke: #000000; stroke-width: 0.8"/>
      </g>
     </g>
     <g id="text_21">
      <!-- 0 -->
      <g transform="translate(34.4925 181.066704) scale(0.1 -0.1)">
       <use xlink:href="#DejaVuSans-30"/>
      </g>
     </g>
    </g>
    <g id="ytick_4">
     <g id="line2d_36">
      <path d="M 47.855 143.535816 
L 565.2 143.535816 
" clip-path="url(#p215deb03e8)" style="fill: none; stroke-dasharray: 2.96,1.28; stroke-dashoffset: 0; stroke: #b0b0b0; stroke-opacity: 0.7; stroke-width: 0.8"/>
     </g>
     <g id="line2d_37">
      <g>
       <use xlink:href="#me67645bf46" x="47.855" y="143.535816" style="stroke: #000000; stroke-width: 0.8"/>
      </g>
     </g>
     <g id="text_22">
      <!-- 5 -->
      <g transform="translate(34.4925 147.335034) scale(0.1 -0.1)">
       <use xlink:href="#DejaVuSans-35"/>
      </g>
     </g>
    </g>
    <g id="text_23">
     <!-- Latency (s) -->
     <g transform="translate(28.412813 183.309375) rotate(-90) scale(0.1 -0.1)">
      <defs>
       <path id="DejaVuSans-4c" d="M 628 4666 
L 1259 4666 
L 1259 531 
L 3531 531 
L 3531 0 
L 628 0 
L 628 4666 
z
" transform="scale(0.015625)"/>
       <path id="DejaVuSans-61" d="M 2194 1759 
Q 1497 1759 1228 1600 
Q 959 1441 959 1056 
Q 959 750 1161 570 
Q 1363 391 1709 391 
Q 2188 391 2477 730 
Q 2766 1069 2766 1631 
L 2766 1759 
L 2194 1759 
z
M 3341 1997 
L 3341 0 
L 2766 0 
L 2766 531 
Q 2569 213 2275 61 
Q 1981 -91 1556 -91 
Q 1019 -91 701 211 
Q 384 513 384 1019 
Q 384 1609 779 1909 
Q 1175 2209 1959 2209 
L 2766 2209 
L 2766 2266 
Q 2766 2663 2505 2880 
Q 2244 3097 1772 3097 
Q 1472 3097 1187 3025 
Q 903 2953 641 2809 
L 641 3341 
Q 956 3463 1253 3523 
Q 1550 3584 1831 3584 
Q 2591 3584 2966 3190 
Q 3341 2797 3341 1997 
z
" transform="scale(0.015625)"/>
       <path id="DejaVuSans-79" d="M 2059 -325 
Q 1816 -950 1584 -1140 
Q 1353 -1331 966 -1331 
L 506 -1331 
L 506 -850 
L 844 -850 
Q 1081 -850 1212 -737 
Q 1344 -625 1503 -206 
L 1606 56 
L 191 3500 
L 800 3500 
L 1894 763 
L 2988 3500 
L 3597 3500 
L 2059 -325 
z
" transform="scale(0.015625)"/>
      </defs>
      <use xlink:href="#DejaVuSans-4c"/>
      <use xlink:href="#DejaVuSans-61" transform="translate(55.712891 0)"/>
      <use xlink:href="#DejaVuSans-74" transform="translate(116.992188 0)"/>
      <use xlink:href="#DejaVuSans-65" transform="translate(156.201172 0)"/>
      <use xlink:href="#DejaVuSans-6e" transform="translate(217.724609 0)"/>
      <use xlink:href="#DejaVuSans-63" transform="translate(281.103516 0)"/>
      <use xlink:href="#DejaVuSans-79" transform="translate(336.083984 0)"/>
      <use xlink:href="#DejaVuSans-20" transform="translate(395.263672 0)"/>
      <use xlink:href="#DejaVuSans-28" transform="translate(427.050781 0)"/>
      <use xlink:href="#DejaVuSans-73" transform="translate(466.064453 0)"/>
      <use xlink:href="#DejaVuSans-29" transform="translate(518.164062 0)"/>
     </g>
    </g>
   </g>
   <g id="line2d_38">
    <path d="M 71.370682 175.52584 
L 72.954229 175.934462 
L 74.537777 172.055984 
L 77.704872 174.763263 
L 79.28842 172.1378 
L 80.871967 154.964306 
L 82.455515 174.501625 
L 84.039063 175.252822 
L 85.62261 174.871175 
L 87.206158 175.818251 
L 88.789705 171.090155 
L 90.373253 172.622088 
L 91.956801 168.085042 
L 93.540348 159.854546 
L 95.123896 172.130603 
L 96.707443 175.33127 
L 98.290991 176.959324 
L 99.874539 173.183435 
L 101.458086 173.779 
L 103.041634 177.129467 
L 104.625181 143.50104 
L 106.208729 177.06171 
L 107.792277 175.554321 
L 109.375824 169.439136 
L 110.959372 172.388331 
L 112.542919 170.349986 
L 114.126467 167.840892 
L 115.710015 151.791423 
L 118.87711 176.990357 
L 120.460657 163.164939 
L 122.044205 175.70793 
L 123.627753 173.263904 
L 125.2113 157.526402 
L 126.794848 169.603123 
L 128.378395 175.243803 
L 129.961943 157.80749 
L 131.545491 164.776312 
L 133.129038 167.271552 
L 134.712586 170.691359 
L 136.296133 173.009256 
L 137.879681 173.023505 
L 139.463228 172.276062 
L 141.046776 172.946059 
L 142.630324 174.998123 
L 144.213871 167.412893 
L 145.797419 172.060269 
L 147.380966 177.069693 
L 148.964514 162.298723 
L 150.548062 169.418192 
L 152.131609 172.883356 
L 153.715157 170.468115 
L 155.298704 174.759106 
L 156.882252 175.359219 
L 158.4658 176.348934 
L 160.049347 148.538387 
L 161.632895 172.150171 
L 163.216442 176.575057 
L 164.79999 169.06788 
L 166.383538 158.759704 
L 167.967085 174.508902 
L 169.550633 165.597612 
L 171.13418 174.111313 
L 172.717728 165.934943 
L 174.301276 153.734452 
L 175.884823 171.072728 
L 177.468371 175.033787 
L 179.051918 156.014923 
L 180.635466 169.152871 
L 182.219014 171.184556 
L 183.802561 165.663093 
L 185.386109 151.826034 
L 186.969656 133.640909 
L 188.553204 142.678179 
L 190.136752 147.900943 
L 191.720299 152.262623 
L 193.303847 158.116353 
L 194.887394 162.8553 
L 196.470942 165.573026 
L 198.05449 170.669736 
L 199.638037 174.108105 
L 201.221585 172.740657 
L 202.805132 164.112388 
L 204.38868 165.009557 
L 205.972228 156.20391 
L 207.555775 176.320405 
L 209.139323 174.051213 
L 210.72287 153.227333 
L 212.306418 168.748997 
L 213.889966 171.138286 
L 215.473513 173.829228 
L 217.057061 164.066059 
L 218.640608 169.508955 
L 220.224156 170.371215 
L 221.807704 154.529857 
L 223.391251 173.258399 
L 224.974799 174.996667 
L 226.558346 173.79299 
L 228.141894 176.978604 
L 229.725442 177.249875 
L 231.308989 175.001282 
L 232.892537 170.934507 
L 234.476084 173.912308 
L 236.059632 175.081037 
L 237.64318 159.137802 
L 239.226727 172.368779 
L 240.810275 172.033502 
L 242.393822 168.236222 
L 243.97737 171.154252 
L 245.560918 168.858682 
L 247.144465 174.565128 
L 248.728013 167.264682 
L 250.31156 172.963988 
L 251.895108 172.191963 
L 253.478655 172.885499 
L 255.062203 176.345298 
L 256.645751 167.932953 
L 258.229298 168.431214 
L 259.812846 173.26363 
L 261.396393 171.816944 
L 262.979941 175.139269 
L 264.563489 166.616437 
L 266.147036 172.307561 
L 267.730584 164.813239 
L 269.314131 173.274417 
L 270.897679 176.997611 
L 272.481227 160.334449 
L 274.064774 171.198384 
L 275.648322 175.187082 
L 277.231869 173.056061 
L 278.815417 175.723536 
L 280.398965 165.858837 
L 281.982512 160.395475 
L 283.56606 173.527481 
L 285.149607 163.709012 
L 286.733155 172.102355 
L 288.316703 176.303582 
L 289.90025 175.058432 
L 291.483798 166.926677 
L 293.067345 176.827125 
L 294.650893 175.839976 
L 296.234441 175.754347 
L 297.817988 163.519382 
L 299.401536 174.004276 
L 300.985083 167.038959 
L 302.568631 176.396892 
L 304.152179 171.300987 
L 305.735726 175.234222 
L 307.319274 176.171212 
L 308.902821 148.092462 
L 310.486369 172.163107 
L 312.069917 176.870453 
L 313.653464 171.831021 
L 315.237012 176.292582 
L 316.820559 168.646321 
L 318.404107 169.896971 
L 319.987655 160.702199 
L 323.15475 176.514807 
L 324.738297 168.904317 
L 326.321845 150.509783 
L 327.905393 173.773703 
L 329.48894 164.111327 
L 331.072488 173.262628 
L 332.656035 176.128503 
L 334.239583 175.631569 
L 335.823131 172.926055 
L 337.406678 174.952736 
L 338.990226 171.280379 
L 340.573773 175.827646 
L 342.157321 166.12301 
L 343.740869 172.243252 
L 345.324416 174.941439 
L 346.907964 176.898989 
L 348.491511 173.138837 
L 350.075059 176.227839 
L 351.658607 168.042251 
L 353.242154 171.140403 
L 354.825702 167.695523 
L 356.409249 170.609623 
L 357.992797 176.864033 
L 359.576345 175.56157 
L 361.159892 171.472297 
L 362.74344 175.391285 
L 365.910535 175.59132 
L 367.494082 171.307641 
L 369.07763 167.641325 
L 370.661178 171.558489 
L 372.244725 172.012055 
L 373.828273 165.025102 
L 375.41182 163.414308 
L 376.995368 135.231126 
L 378.578916 172.908508 
L 380.162463 165.435806 
L 381.746011 175.955341 
L 383.329558 162.821922 
L 384.913106 175.093392 
L 386.496654 172.303644 
L 388.080201 170.892866 
L 389.663749 177.208237 
L 391.247296 159.908471 
L 392.830844 174.443476 
L 394.414392 170.180799 
L 395.997939 169.408208 
L 397.581487 163.444628 
L 399.165034 168.477694 
L 400.748582 174.87929 
L 402.33213 172.42351 
L 403.915677 169.125203 
L 405.499225 170.564427 
L 407.082772 174.416425 
L 408.66632 173.714246 
L 410.249868 175.48616 
L 411.833415 153.217786 
L 413.416963 176.367331 
L 415.00051 173.732712 
L 416.584058 172.068224 
L 418.167606 176.095547 
L 419.751153 167.27272 
L 421.334701 177.193786 
L 422.918248 160.449259 
L 424.501796 169.126615 
L 426.085344 171.471474 
L 427.668891 176.565558 
L 429.252439 166.048736 
L 430.835986 176.463417 
L 432.419534 171.994916 
L 434.003082 169.661203 
L 435.586629 173.70981 
L 437.170177 145.802938 
L 438.753724 172.18184 
L 440.337272 173.580428 
L 441.92082 154.265542 
L 443.504367 168.506607 
L 445.087915 171.868114 
L 446.671462 176.705884 
L 448.25501 176.999188 
L 449.838558 165.495351 
L 451.422105 168.501176 
L 453.005653 160.175984 
L 454.5892 169.985372 
L 456.172748 174.808012 
L 457.756296 176.850283 
L 459.339843 168.618059 
L 460.923391 174.842965 
L 462.506938 172.909091 
L 464.090486 172.802968 
L 465.674034 175.413147 
L 467.257581 174.877127 
L 468.841129 177.20674 
L 470.424676 169.553294 
L 472.008224 175.658167 
L 473.591772 165.28593 
L 475.175319 176.762769 
L 476.758867 173.258087 
L 478.342414 177.022856 
L 479.925962 176.624348 
L 481.509509 175.689022 
L 483.093057 166.708541 
L 484.676605 172.672143 
L 486.260152 173.3137 
L 487.8437 161.762545 
L 489.427247 172.523018 
L 491.010795 177.259091 
L 492.594343 164.769912 
L 494.17789 175.66908 
L 495.761438 171.483756 
L 497.344985 172.638708 
L 498.928533 173.652103 
L 500.512081 170.935686 
L 502.095628 162.619018 
L 503.679176 169.49082 
L 505.262723 174.713082 
L 506.846271 172.798791 
L 508.429819 152.501727 
L 510.013366 172.72371 
L 511.596914 174.616417 
L 513.180461 175.054505 
L 514.764009 172.057483 
L 516.347557 176.932407 
L 517.931104 175.557361 
L 519.514652 162.295389 
L 521.098199 154.040225 
L 522.681747 166.369768 
L 524.265295 177.094538 
L 525.848842 175.048304 
L 527.43239 161.202425 
L 529.015937 177.1842 
L 530.599485 176.530226 
L 532.183033 173.653399 
L 533.76658 172.412072 
L 535.350128 173.475067 
L 536.933675 175.677229 
L 538.517223 159.149426 
L 540.100771 170.633077 
L 541.684318 174.046983 
L 541.684318 174.046983 
" clip-path="url(#p215deb03e8)" style="fill: none; stroke: #1f77b4; stroke-width: 1.5; stroke-linecap: square"/>
   </g>
   <g id="patch_8">
    <path d="M 47.855 179.44 
L 47.855 131.46 
" style="fill: none; stroke: #000000; stroke-width: 0.8; stroke-linejoin: miter; stroke-linecap: square"/>
   </g>
   <g id="patch_9">
    <path d="M 565.2 179.44 
L 565.2 131.46 
" style="fill: none; stroke: #000000; stroke-width: 0.8; stroke-linejoin: miter; stroke-linecap: square"/>
   </g>
   <g id="patch_10">
    <path d="M 47.855 179.44 
L 565.2 179.44 
" style="fill: none; stroke: #000000; stroke-width: 0.8; stroke-linejoin: miter; stroke-linecap: square"/>
   </g>
   <g id="patch_11">
    <path d="M 47.855 131.46 
L 565.2 131.46 
" style="fill: none; stroke: #000000; stroke-width: 0.8; stroke-linejoin: miter; stroke-linecap: square"/>
   </g>
   <g id="text_24">
    <!-- Latency -->
    <g transform="translate(279.978437 125.46) scale(0.12 -0.12)">
     <defs>
      <path id="DejaVuSans-Bold-4c" d="M 588 4666 
L 1791 4666 
L 1791 909 
L 3903 909 
L 3903 0 
L 588 0 
L 588 4666 
z
" transform="scale(0.015625)"/>
      <path id="DejaVuSans-Bold-61" d="M 2106 1575 
Q 1756 1575 1579 1456 
Q 1403 1338 1403 1106 
Q 1403 894 1545 773 
Q 1688 653 1941 653 
Q 2256 653 2472 879 
Q 2688 1106 2688 1447 
L 2688 1575 
L 2106 1575 
z
M 3816 1997 
L 3816 0 
L 2688 0 
L 2688 519 
Q 2463 200 2181 54 
Q 1900 -91 1497 -91 
Q 953 -91 614 226 
Q 275 544 275 1050 
Q 275 1666 698 1953 
Q 1122 2241 2028 2241 
L 2688 2241 
L 2688 2328 
Q 2688 2594 2478 2717 
Q 2269 2841 1825 2841 
Q 1466 2841 1156 2769 
Q 847 2697 581 2553 
L 581 3406 
Q 941 3494 1303 3539 
Q 1666 3584 2028 3584 
Q 2975 3584 3395 3211 
Q 3816 2838 3816 1997 
z
" transform="scale(0.015625)"/>
      <path id="DejaVuSans-Bold-74" d="M 1759 4494 
L 1759 3500 
L 2913 3500 
L 2913 2700 
L 1759 2700 
L 1759 1216 
Q 1759 972 1856 886 
Q 1953 800 2241 800 
L 2816 800 
L 2816 0 
L 1856 0 
Q 1194 0 917 276 
Q 641 553 641 1216 
L 641 2700 
L 84 2700 
L 84 3500 
L 641 3500 
L 641 4494 
L 1759 4494 
z
" transform="scale(0.015625)"/>
      <path id="DejaVuSans-Bold-79" d="M 78 3500 
L 1197 3500 
L 2138 1125 
L 2938 3500 
L 4056 3500 
L 2584 -331 
Q 2363 -916 2067 -1148 
Q 1772 -1381 1288 -1381 
L 641 -1381 
L 641 -647 
L 991 -647 
Q 1275 -647 1404 -556 
Q 1534 -466 1606 -231 
L 1638 -134 
L 78 3500 
z
" transform="scale(0.015625)"/>
     </defs>
     <use xlink:href="#DejaVuSans-Bold-4c"/>
     <use xlink:href="#DejaVuSans-Bold-61" transform="translate(63.720703 0)"/>
     <use xlink:href="#DejaVuSans-Bold-74" transform="translate(131.201172 0)"/>
     <use xlink:href="#DejaVuSans-Bold-65" transform="translate(179.003906 0)"/>
     <use xlink:href="#DejaVuSans-Bold-6e" transform="translate(246.826172 0)"/>
     <use xlink:href="#DejaVuSans-Bold-63" transform="translate(318.017578 0)"/>
     <use xlink:href="#DejaVuSans-Bold-79" transform="translate(377.294922 0)"/>
    </g>
   </g>
  </g>
  <g id="axes_3">
   <g id="patch_12">
    <path d="M 47.855 284.74 
L 565.2 284.74 
L 565.2 236.76 
L 47.855 236.76 
z
" style="fill: #ffffff"/>
   </g>
   <g id="matplotlib.axis_5">
    <g id="xtick_15">
     <g id="line2d_39">
      <path d="M 71.370682 284.74 
L 71.370682 236.76 
" clip-path="url(#p142298adb3)" style="fill: none; stroke-dasharray: 2.96,1.28; stroke-dashoffset: 0; stroke: #b0b0b0; stroke-opacity: 0.7; stroke-width: 0.8"/>
     </g>
     <g id="line2d_40">
      <g>
       <use xlink:href="#m0b70bb423e" x="71.370682" y="284.74" style="stroke: #000000; stroke-width: 0.8"/>
      </g>
     </g>
     <g id="text_25">
      <!-- 0 -->
      <g transform="translate(68.189432 299.338437) scale(0.1 -0.1)">
       <use xlink:href="#DejaVuSans-30"/>
      </g>
     </g>
    </g>
    <g id="xtick_16">
     <g id="line2d_41">
      <path d="M 150.548062 284.74 
L 150.548062 236.76 
" clip-path="url(#p142298adb3)" style="fill: none; stroke-dasharray: 2.96,1.28; stroke-dashoffset: 0; stroke: #b0b0b0; stroke-opacity: 0.7; stroke-width: 0.8"/>
     </g>
     <g id="line2d_42">
      <g>
       <use xlink:href="#m0b70bb423e" x="150.548062" y="284.74" style="stroke: #000000; stroke-width: 0.8"/>
      </g>
     </g>
     <g id="text_26">
      <!-- 50 -->
      <g transform="translate(144.185562 299.338437) scale(0.1 -0.1)">
       <use xlink:href="#DejaVuSans-35"/>
       <use xlink:href="#DejaVuSans-30" transform="translate(63.623047 0)"/>
      </g>
     </g>
    </g>
    <g id="xtick_17">
     <g id="line2d_43">
      <path d="M 229.725442 284.74 
L 229.725442 236.76 
" clip-path="url(#p142298adb3)" style="fill: none; stroke-dasharray: 2.96,1.28; stroke-dashoffset: 0; stroke: #b0b0b0; stroke-opacity: 0.7; stroke-width: 0.8"/>
     </g>
     <g id="line2d_44">
      <g>
       <use xlink:href="#m0b70bb423e" x="229.725442" y="284.74" style="stroke: #000000; stroke-width: 0.8"/>
      </g>
     </g>
     <g id="text_27">
      <!-- 100 -->
      <g transform="translate(220.181692 299.338437) scale(0.1 -0.1)">
       <use xlink:href="#DejaVuSans-31"/>
       <use xlink:href="#DejaVuSans-30" transform="translate(63.623047 0)"/>
       <use xlink:href="#DejaVuSans-30" transform="translate(127.246094 0)"/>
      </g>
     </g>
    </g>
    <g id="xtick_18">
     <g id="line2d_45">
      <path d="M 308.902821 284.74 
L 308.902821 236.76 
" clip-path="url(#p142298adb3)" style="fill: none; stroke-dasharray: 2.96,1.28; stroke-dashoffset: 0; stroke: #b0b0b0; stroke-opacity: 0.7; stroke-width: 0.8"/>
     </g>
     <g id="line2d_46">
      <g>
       <use xlink:href="#m0b70bb423e" x="308.902821" y="284.74" style="stroke: #000000; stroke-width: 0.8"/>
      </g>
     </g>
     <g id="text_28">
      <!-- 150 -->
      <g transform="translate(299.359071 299.338437) scale(0.1 -0.1)">
       <use xlink:href="#DejaVuSans-31"/>
       <use xlink:href="#DejaVuSans-35" transform="translate(63.623047 0)"/>
       <use xlink:href="#DejaVuSans-30" transform="translate(127.246094 0)"/>
      </g>
     </g>
    </g>
    <g id="xtick_19">
     <g id="line2d_47">
      <path d="M 388.080201 284.74 
L 388.080201 236.76 
" clip-path="url(#p142298adb3)" style="fill: none; stroke-dasharray: 2.96,1.28; stroke-dashoffset: 0; stroke: #b0b0b0; stroke-opacity: 0.7; stroke-width: 0.8"/>
     </g>
     <g id="line2d_48">
      <g>
       <use xlink:href="#m0b70bb423e" x="388.080201" y="284.74" style="stroke: #000000; stroke-width: 0.8"/>
      </g>
     </g>
     <g id="text_29">
      <!-- 200 -->
      <g transform="translate(378.536451 299.338437) scale(0.1 -0.1)">
       <use xlink:href="#DejaVuSans-32"/>
       <use xlink:href="#DejaVuSans-30" transform="translate(63.623047 0)"/>
       <use xlink:href="#DejaVuSans-30" transform="translate(127.246094 0)"/>
      </g>
     </g>
    </g>
    <g id="xtick_20">
     <g id="line2d_49">
      <path d="M 467.257581 284.74 
L 467.257581 236.76 
" clip-path="url(#p142298adb3)" style="fill: none; stroke-dasharray: 2.96,1.28; stroke-dashoffset: 0; stroke: #b0b0b0; stroke-opacity: 0.7; stroke-width: 0.8"/>
     </g>
     <g id="line2d_50">
      <g>
       <use xlink:href="#m0b70bb423e" x="467.257581" y="284.74" style="stroke: #000000; stroke-width: 0.8"/>
      </g>
     </g>
     <g id="text_30">
      <!-- 250 -->
      <g transform="translate(457.713831 299.338437) scale(0.1 -0.1)">
       <use xlink:href="#DejaVuSans-32"/>
       <use xlink:href="#DejaVuSans-35" transform="translate(63.623047 0)"/>
       <use xlink:href="#DejaVuSans-30" transform="translate(127.246094 0)"/>
      </g>
     </g>
    </g>
    <g id="xtick_21">
     <g id="line2d_51">
      <path d="M 546.434961 284.74 
L 546.434961 236.76 
" clip-path="url(#p142298adb3)" style="fill: none; stroke-dasharray: 2.96,1.28; stroke-dashoffset: 0; stroke: #b0b0b0; stroke-opacity: 0.7; stroke-width: 0.8"/>
     </g>
     <g id="line2d_52">
      <g>
       <use xlink:href="#m0b70bb423e" x="546.434961" y="284.74" style="stroke: #000000; stroke-width: 0.8"/>
      </g>
     </g>
     <g id="text_31">
      <!-- 300 -->
      <g transform="translate(536.891211 299.338437) scale(0.1 -0.1)">
       <use xlink:href="#DejaVuSans-33"/>
       <use xlink:href="#DejaVuSans-30" transform="translate(63.623047 0)"/>
       <use xlink:href="#DejaVuSans-30" transform="translate(127.246094 0)"/>
      </g>
     </g>
    </g>
    <g id="text_32">
     <!-- Request Number -->
     <g transform="translate(264.542344 313.016562) scale(0.1 -0.1)">
      <use xlink:href="#DejaVuSans-52"/>
      <use xlink:href="#DejaVuSans-65" transform="translate(64.982422 0)"/>
      <use xlink:href="#DejaVuSans-71" transform="translate(126.505859 0)"/>
      <use xlink:href="#DejaVuSans-75" transform="translate(189.982422 0)"/>
      <use xlink:href="#DejaVuSans-65" transform="translate(253.361328 0)"/>
      <use xlink:href="#DejaVuSans-73" transform="translate(314.884766 0)"/>
      <use xlink:href="#DejaVuSans-74" transform="translate(366.984375 0)"/>
      <use xlink:href="#DejaVuSans-20" transform="translate(406.193359 0)"/>
      <use xlink:href="#DejaVuSans-4e" transform="translate(437.980469 0)"/>
      <use xlink:href="#DejaVuSans-75" transform="translate(512.785156 0)"/>
      <use xlink:href="#DejaVuSans-6d" transform="translate(576.164062 0)"/>
      <use xlink:href="#DejaVuSans-62" transform="translate(673.576172 0)"/>
      <use xlink:href="#DejaVuSans-65" transform="translate(737.052734 0)"/>
      <use xlink:href="#DejaVuSans-72" transform="translate(798.576172 0)"/>
     </g>
    </g>
   </g>
   <g id="matplotlib.axis_6">
    <g id="ytick_5">
     <g id="line2d_53">
      <path d="M 47.855 282.559091 
L 565.2 282.559091 
" clip-path="url(#p142298adb3)" style="fill: none; stroke-dasharray: 2.96,1.28; stroke-dashoffset: 0; stroke: #b0b0b0; stroke-opacity: 0.7; stroke-width: 0.8"/>
     </g>
     <g id="line2d_54">
      <g>
       <use xlink:href="#me67645bf46" x="47.855" y="282.559091" style="stroke: #000000; stroke-width: 0.8"/>
      </g>
     </g>
     <g id="text_33">
      <!-- 0 -->
      <g transform="translate(34.4925 286.35831) scale(0.1 -0.1)">
       <use xlink:href="#DejaVuSans-30"/>
      </g>
     </g>
    </g>
    <g id="ytick_6">
     <g id="line2d_55">
      <path d="M 47.855 254.662436 
L 565.2 254.662436 
" clip-path="url(#p142298adb3)" style="fill: none; stroke-dasharray: 2.96,1.28; stroke-dashoffset: 0; stroke: #b0b0b0; stroke-opacity: 0.7; stroke-width: 0.8"/>
     </g>
     <g id="line2d_56">
      <g>
       <use xlink:href="#me67645bf46" x="47.855" y="254.662436" style="stroke: #000000; stroke-width: 0.8"/>
      </g>
     </g>
     <g id="text_34">
      <!-- 2 -->
      <g transform="translate(34.4925 258.461655) scale(0.1 -0.1)">
       <use xlink:href="#DejaVuSans-32"/>
      </g>
     </g>
    </g>
    <g id="text_35">
     <!-- Wait Time (s) -->
     <g transform="translate(28.412813 293.70625) rotate(-90) scale(0.1 -0.1)">
      <defs>
       <path id="DejaVuSans-57" d="M 213 4666 
L 850 4666 
L 1831 722 
L 2809 4666 
L 3519 4666 
L 4500 722 
L 5478 4666 
L 6119 4666 
L 4947 0 
L 4153 0 
L 3169 4050 
L 2175 0 
L 1381 0 
L 213 4666 
z
" transform="scale(0.015625)"/>
      </defs>
      <use xlink:href="#DejaVuSans-57"/>
      <use xlink:href="#DejaVuSans-61" transform="translate(92.501953 0)"/>
      <use xlink:href="#DejaVuSans-69" transform="translate(153.78125 0)"/>
      <use xlink:href="#DejaVuSans-74" transform="translate(181.564453 0)"/>
      <use xlink:href="#DejaVuSans-20" transform="translate(220.773438 0)"/>
      <use xlink:href="#DejaVuSans-54" transform="translate(252.560547 0)"/>
      <use xlink:href="#DejaVuSans-69" transform="translate(310.519531 0)"/>
      <use xlink:href="#DejaVuSans-6d" transform="translate(338.302734 0)"/>
      <use xlink:href="#DejaVuSans-65" transform="translate(435.714844 0)"/>
      <use xlink:href="#DejaVuSans-20" transform="translate(497.238281 0)"/>
      <use xlink:href="#DejaVuSans-28" transform="translate(529.025391 0)"/>
      <use xlink:href="#DejaVuSans-73" transform="translate(568.039062 0)"/>
      <use xlink:href="#DejaVuSans-29" transform="translate(620.138672 0)"/>
     </g>
    </g>
   </g>
   <g id="line2d_57">
    <path d="M 71.370682 282.559091 
L 93.540348 282.559091 
L 95.123896 277.522334 
L 96.707443 282.559091 
L 114.126467 282.559091 
L 115.710015 282.205199 
L 117.293562 277.017542 
L 118.87711 282.559091 
L 166.383538 282.559091 
L 167.967085 279.554393 
L 169.550633 282.559091 
L 174.301276 282.559091 
L 175.884823 273.076913 
L 177.468371 275.748543 
L 179.051918 282.559091 
L 185.386109 282.559091 
L 186.969656 272.514853 
L 188.553204 243.906154 
L 190.136752 248.152631 
L 191.720299 238.940909 
L 193.303847 249.739192 
L 194.887394 258.757149 
L 196.470942 270.859979 
L 198.05449 280.657951 
L 199.638037 282.559091 
L 205.972228 282.559091 
L 207.555775 271.16364 
L 209.139323 280.854251 
L 210.72287 282.559091 
L 220.224156 282.559091 
L 221.807704 280.466334 
L 223.391251 282.249091 
L 224.974799 282.559091 
L 283.56606 282.559091 
L 285.149607 275.57216 
L 286.733155 282.559091 
L 319.987655 282.559091 
L 321.571202 281.268573 
L 323.15475 282.559091 
L 326.321845 282.559091 
L 327.905393 279.216218 
L 329.48894 282.559091 
L 375.41182 282.559091 
L 376.995368 271.19578 
L 378.578916 267.865395 
L 380.162463 279.337126 
L 381.746011 282.559091 
L 399.165034 282.559091 
L 400.748582 281.87641 
L 402.33213 282.559091 
L 435.586629 282.559091 
L 437.170177 280.781112 
L 438.753724 282.559091 
L 440.337272 273.298133 
L 441.92082 282.559091 
L 453.005653 282.559091 
L 454.5892 278.382707 
L 456.172748 282.559091 
L 521.098199 282.559091 
L 522.681747 265.551984 
L 524.265295 276.380741 
L 525.848842 282.559091 
L 541.684318 282.559091 
L 541.684318 282.559091 
" clip-path="url(#p142298adb3)" style="fill: none; stroke: #1f77b4; stroke-width: 1.5; stroke-linecap: square"/>
   </g>
   <g id="patch_13">
    <path d="M 47.855 284.74 
L 47.855 236.76 
" style="fill: none; stroke: #000000; stroke-width: 0.8; stroke-linejoin: miter; stroke-linecap: square"/>
   </g>
   <g id="patch_14">
    <path d="M 565.2 284.74 
L 565.2 236.76 
" style="fill: none; stroke: #000000; stroke-width: 0.8; stroke-linejoin: miter; stroke-linecap: square"/>
   </g>
   <g id="patch_15">
    <path d="M 47.855 284.74 
L 565.2 284.74 
" style="fill: none; stroke: #000000; stroke-width: 0.8; stroke-linejoin: miter; stroke-linecap: square"/>
   </g>
   <g id="patch_16">
    <path d="M 47.855 236.76 
L 565.2 236.76 
" style="fill: none; stroke: #000000; stroke-width: 0.8; stroke-linejoin: miter; stroke-linecap: square"/>
   </g>
   <g id="text_36">
    <!-- Wait Time -->
    <g transform="translate(272.592812 230.76) scale(0.12 -0.12)">
     <defs>
      <path id="DejaVuSans-Bold-57" d="M 191 4666 
L 1344 4666 
L 2150 1275 
L 2950 4666 
L 4109 4666 
L 4909 1275 
L 5716 4666 
L 6859 4666 
L 5759 0 
L 4372 0 
L 3525 3547 
L 2688 0 
L 1300 0 
L 191 4666 
z
" transform="scale(0.015625)"/>
     </defs>
     <use xlink:href="#DejaVuSans-Bold-57"/>
     <use xlink:href="#DejaVuSans-Bold-61" transform="translate(106.677734 0)"/>
     <use xlink:href="#DejaVuSans-Bold-69" transform="translate(174.158203 0)"/>
     <use xlink:href="#DejaVuSans-Bold-74" transform="translate(208.435547 0)"/>
     <use xlink:href="#DejaVuSans-Bold-20" transform="translate(256.238281 0)"/>
     <use xlink:href="#DejaVuSans-Bold-54" transform="translate(291.052734 0)"/>
     <use xlink:href="#DejaVuSans-Bold-69" transform="translate(359.265625 0)"/>
     <use xlink:href="#DejaVuSans-Bold-6d" transform="translate(393.542969 0)"/>
     <use xlink:href="#DejaVuSans-Bold-65" transform="translate(497.742188 0)"/>
    </g>
   </g>
  </g>
  <g id="axes_4">
   <g id="patch_17">
    <path d="M 47.855 390.04 
L 565.2 390.04 
L 565.2 342.06 
L 47.855 342.06 
z
" style="fill: #ffffff"/>
   </g>
   <g id="matplotlib.axis_7">
    <g id="xtick_22">
     <g id="line2d_58">
      <path d="M 71.370682 390.04 
L 71.370682 342.06 
" clip-path="url(#pa4cb4d95f5)" style="fill: none; stroke-dasharray: 2.96,1.28; stroke-dashoffset: 0; stroke: #b0b0b0; stroke-opacity: 0.7; stroke-width: 0.8"/>
     </g>
     <g id="line2d_59">
      <g>
       <use xlink:href="#m0b70bb423e" x="71.370682" y="390.04" style="stroke: #000000; stroke-width: 0.8"/>
      </g>
     </g>
     <g id="text_37">
      <!-- 0 -->
      <g transform="translate(68.189432 404.638438) scale(0.1 -0.1)">
       <use xlink:href="#DejaVuSans-30"/>
      </g>
     </g>
    </g>
    <g id="xtick_23">
     <g id="line2d_60">
      <path d="M 150.548062 390.04 
L 150.548062 342.06 
" clip-path="url(#pa4cb4d95f5)" style="fill: none; stroke-dasharray: 2.96,1.28; stroke-dashoffset: 0; stroke: #b0b0b0; stroke-opacity: 0.7; stroke-width: 0.8"/>
     </g>
     <g id="line2d_61">
      <g>
       <use xlink:href="#m0b70bb423e" x="150.548062" y="390.04" style="stroke: #000000; stroke-width: 0.8"/>
      </g>
     </g>
     <g id="text_38">
      <!-- 50 -->
      <g transform="translate(144.185562 404.638438) scale(0.1 -0.1)">
       <use xlink:href="#DejaVuSans-35"/>
       <use xlink:href="#DejaVuSans-30" transform="translate(63.623047 0)"/>
      </g>
     </g>
    </g>
    <g id="xtick_24">
     <g id="line2d_62">
      <path d="M 229.725442 390.04 
L 229.725442 342.06 
" clip-path="url(#pa4cb4d95f5)" style="fill: none; stroke-dasharray: 2.96,1.28; stroke-dashoffset: 0; stroke: #b0b0b0; stroke-opacity: 0.7; stroke-width: 0.8"/>
     </g>
     <g id="line2d_63">
      <g>
       <use xlink:href="#m0b70bb423e" x="229.725442" y="390.04" style="stroke: #000000; stroke-width: 0.8"/>
      </g>
     </g>
     <g id="text_39">
      <!-- 100 -->
      <g transform="translate(220.181692 404.638438) scale(0.1 -0.1)">
       <use xlink:href="#DejaVuSans-31"/>
       <use xlink:href="#DejaVuSans-30" transform="translate(63.623047 0)"/>
       <use xlink:href="#DejaVuSans-30" transform="translate(127.246094 0)"/>
      </g>
     </g>
    </g>
    <g id="xtick_25">
     <g id="line2d_64">
      <path d="M 308.902821 390.04 
L 308.902821 342.06 
" clip-path="url(#pa4cb4d95f5)" style="fill: none; stroke-dasharray: 2.96,1.28; stroke-dashoffset: 0; stroke: #b0b0b0; stroke-opacity: 0.7; stroke-width: 0.8"/>
     </g>
     <g id="line2d_65">
      <g>
       <use xlink:href="#m0b70bb423e" x="308.902821" y="390.04" style="stroke: #000000; stroke-width: 0.8"/>
      </g>
     </g>
     <g id="text_40">
      <!-- 150 -->
      <g transform="translate(299.359071 404.638438) scale(0.1 -0.1)">
       <use xlink:href="#DejaVuSans-31"/>
       <use xlink:href="#DejaVuSans-35" transform="translate(63.623047 0)"/>
       <use xlink:href="#DejaVuSans-30" transform="translate(127.246094 0)"/>
      </g>
     </g>
    </g>
    <g id="xtick_26">
     <g id="line2d_66">
      <path d="M 388.080201 390.04 
L 388.080201 342.06 
" clip-path="url(#pa4cb4d95f5)" style="fill: none; stroke-dasharray: 2.96,1.28; stroke-dashoffset: 0; stroke: #b0b0b0; stroke-opacity: 0.7; stroke-width: 0.8"/>
     </g>
     <g id="line2d_67">
      <g>
       <use xlink:href="#m0b70bb423e" x="388.080201" y="390.04" style="stroke: #000000; stroke-width: 0.8"/>
      </g>
     </g>
     <g id="text_41">
      <!-- 200 -->
      <g transform="translate(378.536451 404.638438) scale(0.1 -0.1)">
       <use xlink:href="#DejaVuSans-32"/>
       <use xlink:href="#DejaVuSans-30" transform="translate(63.623047 0)"/>
       <use xlink:href="#DejaVuSans-30" transform="translate(127.246094 0)"/>
      </g>
     </g>
    </g>
    <g id="xtick_27">
     <g id="line2d_68">
      <path d="M 467.257581 390.04 
L 467.257581 342.06 
" clip-path="url(#pa4cb4d95f5)" style="fill: none; stroke-dasharray: 2.96,1.28; stroke-dashoffset: 0; stroke: #b0b0b0; stroke-opacity: 0.7; stroke-width: 0.8"/>
     </g>
     <g id="line2d_69">
      <g>
       <use xlink:href="#m0b70bb423e" x="467.257581" y="390.04" style="stroke: #000000; stroke-width: 0.8"/>
      </g>
     </g>
     <g id="text_42">
      <!-- 250 -->
      <g transform="translate(457.713831 404.638438) scale(0.1 -0.1)">
       <use xlink:href="#DejaVuSans-32"/>
       <use xlink:href="#DejaVuSans-35" transform="translate(63.623047 0)"/>
       <use xlink:href="#DejaVuSans-30" transform="translate(127.246094 0)"/>
      </g>
     </g>
    </g>
    <g id="xtick_28">
     <g id="line2d_70">
      <path d="M 546.434961 390.04 
L 546.434961 342.06 
" clip-path="url(#pa4cb4d95f5)" style="fill: none; stroke-dasharray: 2.96,1.28; stroke-dashoffset: 0; stroke: #b0b0b0; stroke-opacity: 0.7; stroke-width: 0.8"/>
     </g>
     <g id="line2d_71">
      <g>
       <use xlink:href="#m0b70bb423e" x="546.434961" y="390.04" style="stroke: #000000; stroke-width: 0.8"/>
      </g>
     </g>
     <g id="text_43">
      <!-- 300 -->
      <g transform="translate(536.891211 404.638438) scale(0.1 -0.1)">
       <use xlink:href="#DejaVuSans-33"/>
       <use xlink:href="#DejaVuSans-30" transform="translate(63.623047 0)"/>
       <use xlink:href="#DejaVuSans-30" transform="translate(127.246094 0)"/>
      </g>
     </g>
    </g>
    <g id="text_44">
     <!-- Request Number -->
     <g transform="translate(264.542344 418.316562) scale(0.1 -0.1)">
      <use xlink:href="#DejaVuSans-52"/>
      <use xlink:href="#DejaVuSans-65" transform="translate(64.982422 0)"/>
      <use xlink:href="#DejaVuSans-71" transform="translate(126.505859 0)"/>
      <use xlink:href="#DejaVuSans-75" transform="translate(189.982422 0)"/>
      <use xlink:href="#DejaVuSans-65" transform="translate(253.361328 0)"/>
      <use xlink:href="#DejaVuSans-73" transform="translate(314.884766 0)"/>
      <use xlink:href="#DejaVuSans-74" transform="translate(366.984375 0)"/>
      <use xlink:href="#DejaVuSans-20" transform="translate(406.193359 0)"/>
      <use xlink:href="#DejaVuSans-4e" transform="translate(437.980469 0)"/>
      <use xlink:href="#DejaVuSans-75" transform="translate(512.785156 0)"/>
      <use xlink:href="#DejaVuSans-6d" transform="translate(576.164062 0)"/>
      <use xlink:href="#DejaVuSans-62" transform="translate(673.576172 0)"/>
      <use xlink:href="#DejaVuSans-65" transform="translate(737.052734 0)"/>
      <use xlink:href="#DejaVuSans-72" transform="translate(798.576172 0)"/>
     </g>
    </g>
   </g>
   <g id="matplotlib.axis_8">
    <g id="ytick_7">
     <g id="line2d_72">
      <path d="M 47.855 387.859091 
L 565.2 387.859091 
" clip-path="url(#pa4cb4d95f5)" style="fill: none; stroke-dasharray: 2.96,1.28; stroke-dashoffset: 0; stroke: #b0b0b0; stroke-opacity: 0.7; stroke-width: 0.8"/>
     </g>
     <g id="line2d_73">
      <g>
       <use xlink:href="#me67645bf46" x="47.855" y="387.859091" style="stroke: #000000; stroke-width: 0.8"/>
      </g>
     </g>
     <g id="text_45">
      <!-- 0 -->
      <g transform="translate(34.4925 391.65831) scale(0.1 -0.1)">
       <use xlink:href="#DejaVuSans-30"/>
      </g>
     </g>
    </g>
    <g id="ytick_8">
     <g id="line2d_74">
      <path d="M 47.855 358.780303 
L 565.2 358.780303 
" clip-path="url(#pa4cb4d95f5)" style="fill: none; stroke-dasharray: 2.96,1.28; stroke-dashoffset: 0; stroke: #b0b0b0; stroke-opacity: 0.7; stroke-width: 0.8"/>
     </g>
     <g id="line2d_75">
      <g>
       <use xlink:href="#me67645bf46" x="47.855" y="358.780303" style="stroke: #000000; stroke-width: 0.8"/>
      </g>
     </g>
     <g id="text_46">
      <!-- 2 -->
      <g transform="translate(34.4925 362.579522) scale(0.1 -0.1)">
       <use xlink:href="#DejaVuSans-32"/>
      </g>
     </g>
    </g>
    <g id="text_47">
     <!-- Queue Length -->
     <g transform="translate(28.412813 401.3125) rotate(-90) scale(0.1 -0.1)">
      <defs>
       <path id="DejaVuSans-51" d="M 2522 4238 
Q 1834 4238 1429 3725 
Q 1025 3213 1025 2328 
Q 1025 1447 1429 934 
Q 1834 422 2522 422 
Q 3209 422 3611 934 
Q 4013 1447 4013 2328 
Q 4013 3213 3611 3725 
Q 3209 4238 2522 4238 
z
M 3406 84 
L 4238 -825 
L 3475 -825 
L 2784 -78 
Q 2681 -84 2626 -87 
Q 2572 -91 2522 -91 
Q 1538 -91 948 567 
Q 359 1225 359 2328 
Q 359 3434 948 4092 
Q 1538 4750 2522 4750 
Q 3503 4750 4090 4092 
Q 4678 3434 4678 2328 
Q 4678 1516 4351 937 
Q 4025 359 3406 84 
z
" transform="scale(0.015625)"/>
       <path id="DejaVuSans-68" d="M 3513 2113 
L 3513 0 
L 2938 0 
L 2938 2094 
Q 2938 2591 2744 2837 
Q 2550 3084 2163 3084 
Q 1697 3084 1428 2787 
Q 1159 2491 1159 1978 
L 1159 0 
L 581 0 
L 581 4863 
L 1159 4863 
L 1159 2956 
Q 1366 3272 1645 3428 
Q 1925 3584 2291 3584 
Q 2894 3584 3203 3211 
Q 3513 2838 3513 2113 
z
" transform="scale(0.015625)"/>
      </defs>
      <use xlink:href="#DejaVuSans-51"/>
      <use xlink:href="#DejaVuSans-75" transform="translate(78.710938 0)"/>
      <use xlink:href="#DejaVuSans-65" transform="translate(142.089844 0)"/>
      <use xlink:href="#DejaVuSans-75" transform="translate(203.613281 0)"/>
      <use xlink:href="#DejaVuSans-65" transform="translate(266.992188 0)"/>
      <use xlink:href="#DejaVuSans-20" transform="translate(328.515625 0)"/>
      <use xlink:href="#DejaVuSans-4c" transform="translate(360.302734 0)"/>
      <use xlink:href="#DejaVuSans-65" transform="translate(414.265625 0)"/>
      <use xlink:href="#DejaVuSans-6e" transform="translate(475.789062 0)"/>
      <use xlink:href="#DejaVuSans-67" transform="translate(539.167969 0)"/>
      <use xlink:href="#DejaVuSans-74" transform="translate(602.644531 0)"/>
      <use xlink:href="#DejaVuSans-68" transform="translate(641.853516 0)"/>
     </g>
    </g>
   </g>
   <g id="line2d_76">
    <path d="M 71.370682 387.859091 
L 188.553204 387.859091 
L 191.720299 358.780303 
L 194.887394 358.780303 
L 196.470942 344.240909 
L 198.05449 387.859091 
L 378.578916 387.859091 
L 380.162463 373.319697 
L 381.746011 387.859091 
L 522.681747 387.859091 
L 524.265295 373.319697 
L 525.848842 387.859091 
L 541.684318 387.859091 
L 541.684318 387.859091 
" clip-path="url(#pa4cb4d95f5)" style="fill: none; stroke: #1f77b4; stroke-width: 1.5; stroke-linecap: square"/>
   </g>
   <g id="patch_18">
    <path d="M 47.855 390.04 
L 47.855 342.06 
" style="fill: none; stroke: #000000; stroke-width: 0.8; stroke-linejoin: miter; stroke-linecap: square"/>
   </g>
   <g id="patch_19">
    <path d="M 565.2 390.04 
L 565.2 342.06 
" style="fill: none; stroke: #000000; stroke-width: 0.8; stroke-linejoin: miter; stroke-linecap: square"/>
   </g>
   <g id="patch_20">
    <path d="M 47.855 390.04 
L 565.2 390.04 
" style="fill: none; stroke: #000000; stroke-width: 0.8; stroke-linejoin: miter; stroke-linecap: square"/>
   </g>
   <g id="patch_21">
    <path d="M 47.855 342.06 
L 565.2 342.06 
" style="fill: none; stroke: #000000; stroke-width: 0.8; stroke-linejoin: miter; stroke-linecap: square"/>
   </g>
   <g id="text_48">
    <!-- Queue Length -->
    <g transform="translate(259.058125 336.06) scale(0.12 -0.12)">
     <defs>
      <path id="DejaVuSans-Bold-51" d="M 2847 -84 
L 2753 -84 
Q 1600 -84 959 553 
Q 319 1191 319 2328 
Q 319 3463 958 4106 
Q 1597 4750 2719 4750 
Q 3853 4750 4486 4112 
Q 5119 3475 5119 2328 
Q 5119 1541 4783 972 
Q 4447 403 3816 116 
L 4756 -934 
L 3609 -934 
L 2847 -84 
z
M 2719 3878 
Q 2169 3878 1866 3472 
Q 1563 3066 1563 2328 
Q 1563 1578 1859 1179 
Q 2156 781 2719 781 
Q 3272 781 3575 1187 
Q 3878 1594 3878 2328 
Q 3878 3066 3575 3472 
Q 3272 3878 2719 3878 
z
" transform="scale(0.015625)"/>
      <path id="DejaVuSans-Bold-75" d="M 500 1363 
L 500 3500 
L 1625 3500 
L 1625 3150 
Q 1625 2866 1622 2436 
Q 1619 2006 1619 1863 
Q 1619 1441 1641 1255 
Q 1663 1069 1716 984 
Q 1784 875 1895 815 
Q 2006 756 2150 756 
Q 2500 756 2700 1025 
Q 2900 1294 2900 1772 
L 2900 3500 
L 4019 3500 
L 4019 0 
L 2900 0 
L 2900 506 
Q 2647 200 2364 54 
Q 2081 -91 1741 -91 
Q 1134 -91 817 281 
Q 500 653 500 1363 
z
" transform="scale(0.015625)"/>
      <path id="DejaVuSans-Bold-68" d="M 4056 2131 
L 4056 0 
L 2931 0 
L 2931 347 
L 2931 1625 
Q 2931 2084 2911 2256 
Q 2891 2428 2841 2509 
Q 2775 2619 2662 2680 
Q 2550 2741 2406 2741 
Q 2056 2741 1856 2470 
Q 1656 2200 1656 1722 
L 1656 0 
L 538 0 
L 538 4863 
L 1656 4863 
L 1656 2988 
Q 1909 3294 2193 3439 
Q 2478 3584 2822 3584 
Q 3428 3584 3742 3212 
Q 4056 2841 4056 2131 
z
" transform="scale(0.015625)"/>
     </defs>
     <use xlink:href="#DejaVuSans-Bold-51"/>
     <use xlink:href="#DejaVuSans-Bold-75" transform="translate(85.009766 0)"/>
     <use xlink:href="#DejaVuSans-Bold-65" transform="translate(156.201172 0)"/>
     <use xlink:href="#DejaVuSans-Bold-75" transform="translate(224.023438 0)"/>
     <use xlink:href="#DejaVuSans-Bold-65" transform="translate(295.214844 0)"/>
     <use xlink:href="#DejaVuSans-Bold-20" transform="translate(363.037109 0)"/>
     <use xlink:href="#DejaVuSans-Bold-4c" transform="translate(397.851562 0)"/>
     <use xlink:href="#DejaVuSans-Bold-65" transform="translate(461.572266 0)"/>
     <use xlink:href="#DejaVuSans-Bold-6e" transform="translate(529.394531 0)"/>
     <use xlink:href="#DejaVuSans-Bold-67" transform="translate(600.585938 0)"/>
     <use xlink:href="#DejaVuSans-Bold-74" transform="translate(672.167969 0)"/>
     <use xlink:href="#DejaVuSans-Bold-68" transform="translate(719.970703 0)"/>
    </g>
   </g>
  </g>
 </g>
 <defs>
  <clipPath id="p0eb46da274">
   <rect x="47.855" y="26.16" width="517.345" height="47.98"/>
  </clipPath>
  <clipPath id="p215deb03e8">
   <rect x="47.855" y="131.46" width="517.345" height="47.98"/>
  </clipPath>
  <clipPath id="p142298adb3">
   <rect x="47.855" y="236.76" width="517.345" height="47.98"/>
  </clipPath>
  <clipPath id="pa4cb4d95f5">
   <rect x="47.855" y="342.06" width="517.345" height="47.98"/>
  </clipPath>
 </defs>
</svg>
