<?xml version="1.0" encoding="UTF-8" standalone="no"?>
<!DOCTYPE svg PUBLIC "-//W3C//DTD SVG 1.1//EN"
 "http://www.w3.org/Graphics/SVG/1.1/DTD/svg11.dtd">
<!-- Generated by graphviz version 7.1.0 (20230121.1956)
 -->
<!-- Title: DiskGraph Pages: 1 -->
<svg width="1124pt" height="544pt"
 viewBox="0.00 0.00 1124.00 544.00" xmlns="http://www.w3.org/2000/svg" xmlns:xlink="http://www.w3.org/1999/xlink">
<g id="graph0" class="graph" transform="scale(1 1) rotate(0) translate(4 540)">
<title>DiskGraph</title>
<polygon fill="white" stroke="none" points="-4,4 -4,-540 1120,-540 1120,4 -4,4"/>
<g id="clust1" class="cluster">
<title>cluster_graph</title>
<polygon fill="none" stroke="white" points="8,-8 8,-528 1108,-528 1108,-8 8,-8"/>
</g>
<!-- &#45;4609010327728348891 -->
<g id="node1" class="node">
<title>&#45;4609010327728348891</title>
<ellipse fill="lightgrey" stroke="black" cx="558" cy="-484" rx="162.01" ry="36"/>
<text text-anchor="middle" x="558" y="-479" font-family="Times,serif" font-size="20.00">requests = [0 &#45;&gt; &quot;idle&quot;, 1 &#45;&gt; &quot;idle&quot;]</text>
</g>
<!-- 3831879498943119852 -->
<g id="node2" class="node">
<title>3831879498943119852</title>
<ellipse fill="none" stroke="black" cx="373" cy="-376" rx="181.51" ry="36"/>
<text text-anchor="middle" x="373" y="-371" font-family="Times,serif" font-size="20.00">requests = [0 &#45;&gt; &quot;fetching&quot;, 1 &#45;&gt; &quot;idle&quot;]</text>
</g>
<!-- &#45;4609010327728348891&#45;&gt;3831879498943119852 -->
<g id="edge1" class="edge">
<title>&#45;4609010327728348891&#45;&gt;3831879498943119852</title>
<path fill="none" stroke="red" d="M500.23,-449.9C481.54,-439.19 460.64,-427.21 441.26,-416.11"/>
<polygon fill="red" stroke="red" points="443.02,-413.09 432.6,-411.15 439.54,-419.16 443.02,-413.09"/>
</g>
<!-- &#45;867305156530748798 -->
<g id="node3" class="node">
<title>&#45;867305156530748798</title>
<ellipse fill="none" stroke="black" cx="743" cy="-376" rx="181.51" ry="36"/>
<text text-anchor="middle" x="743" y="-371" font-family="Times,serif" font-size="20.00">requests = [0 &#45;&gt; &quot;idle&quot;, 1 &#45;&gt; &quot;fetching&quot;]</text>
</g>
<!-- &#45;4609010327728348891&#45;&gt;&#45;867305156530748798 -->
<g id="edge2" class="edge">
<title>&#45;4609010327728348891&#45;&gt;&#45;867305156530748798</title>
<path fill="none" stroke="#1f78b4" d="M615.77,-449.9C634.46,-439.19 655.36,-427.21 674.74,-416.11"/>
<polygon fill="#1f78b4" stroke="#1f78b4" points="676.46,-419.16 683.4,-411.15 672.98,-413.09 676.46,-419.16"/>
</g>
<!-- 5325730813549405296 -->
<g id="node4" class="node">
<title>5325730813549405296</title>
<ellipse fill="none" stroke="black" cx="558" cy="-268" rx="200.51" ry="36"/>
<text text-anchor="middle" x="558" y="-263" font-family="Times,serif" font-size="20.00">requests = [0 &#45;&gt; &quot;fetching&quot;, 1 &#45;&gt; &quot;fetching&quot;]</text>
</g>
<!-- 3831879498943119852&#45;&gt;5325730813549405296 -->
<g id="edge3" class="edge">
<title>3831879498943119852&#45;&gt;5325730813549405296</title>
<path fill="none" stroke="#1f78b4" d="M431.54,-341.46C449.83,-330.98 470.19,-319.31 489.13,-308.46"/>
<polygon fill="#1f78b4" stroke="#1f78b4" points="490.64,-311.63 497.58,-303.62 487.16,-305.55 490.64,-311.63"/>
</g>
<!-- 6983353587561078579 -->
<g id="node5" class="node">
<title>6983353587561078579</title>
<ellipse fill="none" stroke="black" cx="183" cy="-268" rx="167.41" ry="36"/>
<text text-anchor="middle" x="183" y="-263" font-family="Times,serif" font-size="20.00">requests = [0 &#45;&gt; &quot;done&quot;, 1 &#45;&gt; &quot;idle&quot;]</text>
</g>
<!-- 3831879498943119852&#45;&gt;6983353587561078579 -->
<g id="edge5" class="edge">
<title>3831879498943119852&#45;&gt;6983353587561078579</title>
<path fill="none" stroke="red" d="M313.14,-341.61C293.79,-330.81 272.17,-318.75 252.19,-307.6"/>
<polygon fill="red" stroke="red" points="253.99,-304.6 243.55,-302.78 250.58,-310.71 253.99,-304.6"/>
</g>
<!-- &#45;867305156530748798&#45;&gt;5325730813549405296 -->
<g id="edge4" class="edge">
<title>&#45;867305156530748798&#45;&gt;5325730813549405296</title>
<path fill="none" stroke="#1f78b4" d="M684.46,-341.46C666.17,-330.98 645.81,-319.31 626.87,-308.46"/>
<polygon fill="#1f78b4" stroke="#1f78b4" points="628.84,-305.55 618.42,-303.62 625.36,-311.63 628.84,-305.55"/>
</g>
<!-- &#45;3282846200838510906 -->
<g id="node7" class="node">
<title>&#45;3282846200838510906</title>
<ellipse fill="none" stroke="black" cx="933" cy="-268" rx="167.41" ry="36"/>
<text text-anchor="middle" x="933" y="-263" font-family="Times,serif" font-size="20.00">requests = [0 &#45;&gt; &quot;idle&quot;, 1 &#45;&gt; &quot;done&quot;]</text>
</g>
<!-- &#45;867305156530748798&#45;&gt;&#45;3282846200838510906 -->
<g id="edge7" class="edge">
<title>&#45;867305156530748798&#45;&gt;&#45;3282846200838510906</title>
<path fill="none" stroke="#b2df8a" d="M802.86,-341.61C822.21,-330.81 843.83,-318.75 863.81,-307.6"/>
<polygon fill="#b2df8a" stroke="#b2df8a" points="865.42,-310.71 872.45,-302.78 862.01,-304.6 865.42,-310.71"/>
</g>
<!-- &#45;6449066011091776533 -->
<g id="node6" class="node">
<title>&#45;6449066011091776533</title>
<ellipse fill="none" stroke="black" cx="368" cy="-160" rx="186.41" ry="36"/>
<text text-anchor="middle" x="368" y="-155" font-family="Times,serif" font-size="20.00">requests = [0 &#45;&gt; &quot;done&quot;, 1 &#45;&gt; &quot;fetching&quot;]</text>
</g>
<!-- 5325730813549405296&#45;&gt;&#45;6449066011091776533 -->
<g id="edge6" class="edge">
<title>5325730813549405296&#45;&gt;&#45;6449066011091776533</title>
<path fill="none" stroke="#b2df8a" d="M497.62,-233.32C478.57,-222.68 457.36,-210.85 437.7,-199.89"/>
<polygon fill="#b2df8a" stroke="#b2df8a" points="439.66,-196.97 429.22,-195.15 436.25,-203.08 439.66,-196.97"/>
</g>
<!-- 2834153239240885775 -->
<g id="node8" class="node">
<title>2834153239240885775</title>
<ellipse fill="none" stroke="black" cx="748" cy="-160" rx="186.41" ry="36"/>
<text text-anchor="middle" x="748" y="-155" font-family="Times,serif" font-size="20.00">requests = [0 &#45;&gt; &quot;fetching&quot;, 1 &#45;&gt; &quot;done&quot;]</text>
</g>
<!-- 5325730813549405296&#45;&gt;2834153239240885775 -->
<g id="edge10" class="edge">
<title>5325730813549405296&#45;&gt;2834153239240885775</title>
<path fill="none" stroke="#b2df8a" d="M618.38,-233.32C637.43,-222.68 658.64,-210.85 678.3,-199.89"/>
<polygon fill="#b2df8a" stroke="#b2df8a" points="679.75,-203.08 686.78,-195.15 676.34,-196.97 679.75,-203.08"/>
</g>
<!-- 6983353587561078579&#45;&gt;&#45;6449066011091776533 -->
<g id="edge8" class="edge">
<title>6983353587561078579&#45;&gt;&#45;6449066011091776533</title>
<path fill="none" stroke="#1f78b4" d="M241.03,-233.75C259.62,-223.1 280.37,-211.21 299.63,-200.17"/>
<polygon fill="#1f78b4" stroke="#1f78b4" points="301.29,-203.26 308.23,-195.25 297.81,-197.18 301.29,-203.26"/>
</g>
<!-- 8255281006960285904 -->
<g id="node9" class="node">
<title>8255281006960285904</title>
<ellipse fill="none" stroke="black" cx="558" cy="-52" rx="172.31" ry="36"/>
<text text-anchor="middle" x="558" y="-47" font-family="Times,serif" font-size="20.00">requests = [0 &#45;&gt; &quot;done&quot;, 1 &#45;&gt; &quot;done&quot;]</text>
</g>
<!-- &#45;6449066011091776533&#45;&gt;8255281006960285904 -->
<g id="edge11" class="edge">
<title>&#45;6449066011091776533&#45;&gt;8255281006960285904</title>
<path fill="none" stroke="#b2df8a" d="M428.12,-125.46C447.37,-114.72 468.84,-102.74 488.69,-91.67"/>
<polygon fill="#b2df8a" stroke="#b2df8a" points="490.25,-94.81 497.28,-86.88 486.84,-88.69 490.25,-94.81"/>
</g>
<!-- &#45;3282846200838510906&#45;&gt;2834153239240885775 -->
<g id="edge9" class="edge">
<title>&#45;3282846200838510906&#45;&gt;2834153239240885775</title>
<path fill="none" stroke="#1f78b4" d="M874.97,-233.75C856.38,-223.1 835.63,-211.21 816.37,-200.17"/>
<polygon fill="#1f78b4" stroke="#1f78b4" points="818.19,-197.18 807.77,-195.25 814.71,-203.26 818.19,-197.18"/>
</g>
<!-- 2834153239240885775&#45;&gt;8255281006960285904 -->
<g id="edge12" class="edge">
<title>2834153239240885775&#45;&gt;8255281006960285904</title>
<path fill="none" stroke="#b2df8a" d="M687.88,-125.46C668.63,-114.72 647.16,-102.74 627.31,-91.67"/>
<polygon fill="#b2df8a" stroke="#b2df8a" points="629.16,-88.69 618.72,-86.88 625.75,-94.81 629.16,-88.69"/>
</g>
</g>
</svg>
