<?xml version="1.0" encoding="UTF-8" standalone="no"?>
<!DOCTYPE svg PUBLIC "-//W3C//DTD SVG 1.1//EN"
 "http://www.w3.org/Graphics/SVG/1.1/DTD/svg11.dtd">
<!-- Generated by graphviz version 7.1.0 (20230121.1956)
 -->
<!-- Title: DiskGraph Pages: 1 -->
<svg width="832pt" height="453pt"
 viewBox="0.00 0.00 832.00 452.70" xmlns="http://www.w3.org/2000/svg" xmlns:xlink="http://www.w3.org/1999/xlink">
<g id="graph0" class="graph" transform="scale(1 1) rotate(0) translate(4 448.7)">
<title>DiskGraph</title>
<polygon fill="white" stroke="none" points="-4,4 -4,-448.7 828,-448.7 828,4 -4,4"/>
<g id="clust1" class="cluster">
<title>cluster_graph</title>
<polygon fill="none" stroke="white" points="8,-8 8,-436.7 816,-436.7 816,-8 8,-8"/>
</g>
<!-- 657480190493101406 -->
<g id="node1" class="node">
<title>657480190493101406</title>
<ellipse fill="lightgrey" stroke="black" cx="409" cy="-401.83" rx="103.89" ry="26.74"/>
<text text-anchor="middle" x="409" y="-405.63" font-family="Times,serif" font-size="14.00">/\ todos = {}</text>
<text text-anchor="middle" x="409" y="-390.63" font-family="Times,serif" font-size="14.00">/\ completedTodos = {}</text>
</g>
<!-- &#45;3975863647656683248 -->
<g id="node2" class="node">
<title>&#45;3975863647656683248</title>
<ellipse fill="none" stroke="black" cx="526" cy="-312.09" rx="103.89" ry="26.74"/>
<text text-anchor="middle" x="526" y="-315.89" font-family="Times,serif" font-size="14.00">/\ todos = {&quot;t1&quot;}</text>
<text text-anchor="middle" x="526" y="-300.89" font-family="Times,serif" font-size="14.00">/\ completedTodos = {}</text>
</g>
<!-- 657480190493101406&#45;&gt;&#45;3975863647656683248 -->
<g id="edge1" class="edge">
<title>657480190493101406&#45;&gt;&#45;3975863647656683248</title>
<path fill="none" stroke="red" d="M434.59,-375.45C446.92,-365.57 462.01,-354.16 476.39,-343.82"/>
<polygon fill="red" stroke="red" points="478.35,-346.72 484.47,-338.08 474.29,-341.02 478.35,-346.72"/>
</g>
<!-- 8088574026551032440 -->
<g id="node4" class="node">
<title>8088574026551032440</title>
<ellipse fill="none" stroke="black" cx="293" cy="-312.09" rx="103.89" ry="26.74"/>
<text text-anchor="middle" x="293" y="-315.89" font-family="Times,serif" font-size="14.00">/\ todos = {&quot;t2&quot;}</text>
<text text-anchor="middle" x="293" y="-300.89" font-family="Times,serif" font-size="14.00">/\ completedTodos = {}</text>
</g>
<!-- 657480190493101406&#45;&gt;8088574026551032440 -->
<g id="edge3" class="edge">
<title>657480190493101406&#45;&gt;8088574026551032440</title>
<path fill="none" stroke="#1f78b4" d="M369.18,-376.86C355.4,-367.13 340.15,-355.74 326.88,-345.3"/>
<polygon fill="#1f78b4" stroke="#1f78b4" points="329.23,-342.71 319.23,-339.21 324.87,-348.18 329.23,-342.71"/>
</g>
<!-- &#45;3975863647656683248&#45;&gt;657480190493101406 -->
<g id="edge15" class="edge">
<title>&#45;3975863647656683248&#45;&gt;657480190493101406</title>
<path fill="none" stroke="#33a02c" d="M501.35,-338.26C488.9,-348.31 473.49,-359.97 458.79,-370.48"/>
<polygon fill="#33a02c" stroke="#33a02c" points="457.16,-367.36 451.01,-375.98 461.19,-373.07 457.16,-367.36"/>
</g>
<!-- &#45;8602446952907300639 -->
<g id="node3" class="node">
<title>&#45;8602446952907300639</title>
<ellipse fill="none" stroke="black" cx="412" cy="-222.35" rx="103.89" ry="26.74"/>
<text text-anchor="middle" x="412" y="-226.15" font-family="Times,serif" font-size="14.00">/\ todos = {&quot;t1&quot;, &quot;t2&quot;}</text>
<text text-anchor="middle" x="412" y="-211.15" font-family="Times,serif" font-size="14.00">/\ completedTodos = {}</text>
</g>
<!-- &#45;3975863647656683248&#45;&gt;&#45;8602446952907300639 -->
<g id="edge2" class="edge">
<title>&#45;3975863647656683248&#45;&gt;&#45;8602446952907300639</title>
<path fill="none" stroke="red" d="M486.73,-287.12C473.17,-277.39 458.18,-266 445.14,-255.56"/>
<polygon fill="red" stroke="red" points="447.62,-253.07 437.65,-249.48 443.21,-258.5 447.62,-253.07"/>
</g>
<!-- &#45;6026554709421104232 -->
<g id="node5" class="node">
<title>&#45;6026554709421104232</title>
<ellipse fill="none" stroke="black" cx="688" cy="-222.35" rx="120.42" ry="26.74"/>
<text text-anchor="middle" x="688" y="-226.15" font-family="Times,serif" font-size="14.00">/\ todos = {&quot;t1&quot;}</text>
<text text-anchor="middle" x="688" y="-211.15" font-family="Times,serif" font-size="14.00">/\ completedTodos = {&quot;t1&quot;}</text>
</g>
<!-- &#45;3975863647656683248&#45;&gt;&#45;6026554709421104232 -->
<g id="edge4" class="edge">
<title>&#45;3975863647656683248&#45;&gt;&#45;6026554709421104232</title>
<path fill="none" stroke="#b2df8a" d="M569.41,-287.58C589.07,-276.93 612.51,-264.24 633.35,-252.95"/>
<polygon fill="#b2df8a" stroke="#b2df8a" points="634.88,-256.1 642.01,-248.26 631.55,-249.95 634.88,-256.1"/>
</g>
<!-- &#45;8602446952907300639&#45;&gt;&#45;3975863647656683248 -->
<g id="edge18" class="edge">
<title>&#45;8602446952907300639&#45;&gt;&#45;3975863647656683248</title>
<path fill="none" stroke="#33a02c" d="M452.14,-247.47C465.67,-257.12 480.51,-268.38 493.4,-278.73"/>
<polygon fill="#33a02c" stroke="#33a02c" points="490.83,-281.15 500.79,-284.76 495.25,-275.72 490.83,-281.15"/>
</g>
<!-- &#45;8602446952907300639&#45;&gt;8088574026551032440 -->
<g id="edge9" class="edge">
<title>&#45;8602446952907300639&#45;&gt;8088574026551032440</title>
<path fill="none" stroke="#33a02c" d="M386.78,-248.52C374.1,-258.57 358.42,-270.23 343.49,-280.74"/>
<polygon fill="#33a02c" stroke="#33a02c" points="341.77,-277.67 335.56,-286.25 345.77,-283.42 341.77,-277.67"/>
</g>
<!-- 2735373790292535263 -->
<g id="node6" class="node">
<title>2735373790292535263</title>
<ellipse fill="none" stroke="black" cx="544" cy="-132.61" rx="120.42" ry="26.74"/>
<text text-anchor="middle" x="544" y="-136.41" font-family="Times,serif" font-size="14.00">/\ todos = {&quot;t1&quot;, &quot;t2&quot;}</text>
<text text-anchor="middle" x="544" y="-121.41" font-family="Times,serif" font-size="14.00">/\ completedTodos = {&quot;t1&quot;}</text>
</g>
<!-- &#45;8602446952907300639&#45;&gt;2735373790292535263 -->
<g id="edge5" class="edge">
<title>&#45;8602446952907300639&#45;&gt;2735373790292535263</title>
<path fill="none" stroke="red" d="M448.77,-196.91C463.95,-186.82 481.71,-175.02 497.75,-164.35"/>
<polygon fill="red" stroke="red" points="499.32,-167.51 505.71,-159.06 495.44,-161.68 499.32,-167.51"/>
</g>
<!-- &#45;2004771903845544713 -->
<g id="node7" class="node">
<title>&#45;2004771903845544713</title>
<ellipse fill="none" stroke="black" cx="279" cy="-132.61" rx="120.42" ry="26.74"/>
<text text-anchor="middle" x="279" y="-136.41" font-family="Times,serif" font-size="14.00">/\ todos = {&quot;t1&quot;, &quot;t2&quot;}</text>
<text text-anchor="middle" x="279" y="-121.41" font-family="Times,serif" font-size="14.00">/\ completedTodos = {&quot;t2&quot;}</text>
</g>
<!-- &#45;8602446952907300639&#45;&gt;&#45;2004771903845544713 -->
<g id="edge7" class="edge">
<title>&#45;8602446952907300639&#45;&gt;&#45;2004771903845544713</title>
<path fill="none" stroke="#1f78b4" d="M374.95,-196.91C359.66,-186.82 341.76,-175.02 325.6,-164.35"/>
<polygon fill="#1f78b4" stroke="#1f78b4" points="327.85,-161.64 317.57,-159.06 323.99,-167.49 327.85,-161.64"/>
</g>
<!-- 8088574026551032440&#45;&gt;657480190493101406 -->
<g id="edge12" class="edge">
<title>8088574026551032440&#45;&gt;657480190493101406</title>
<path fill="none" stroke="#33a02c" d="M333.27,-336.91C347.1,-346.61 362.35,-357.97 375.58,-368.41"/>
<polygon fill="#33a02c" stroke="#33a02c" points="373.21,-370.99 383.2,-374.51 377.58,-365.52 373.21,-370.99"/>
</g>
<!-- 8088574026551032440&#45;&gt;&#45;8602446952907300639 -->
<g id="edge8" class="edge">
<title>8088574026551032440&#45;&gt;&#45;8602446952907300639</title>
<path fill="none" stroke="#1f78b4" d="M318.87,-285.95C331.64,-275.88 347.36,-264.2 362.27,-253.67"/>
<polygon fill="#1f78b4" stroke="#1f78b4" points="363.98,-256.75 370.17,-248.16 359.97,-251.01 363.98,-256.75"/>
</g>
<!-- 1805538337643245841 -->
<g id="node8" class="node">
<title>1805538337643245841</title>
<ellipse fill="none" stroke="black" cx="136" cy="-222.35" rx="120.42" ry="26.74"/>
<text text-anchor="middle" x="136" y="-226.15" font-family="Times,serif" font-size="14.00">/\ todos = {&quot;t2&quot;}</text>
<text text-anchor="middle" x="136" y="-211.15" font-family="Times,serif" font-size="14.00">/\ completedTodos = {&quot;t2&quot;}</text>
</g>
<!-- 8088574026551032440&#45;&gt;1805538337643245841 -->
<g id="edge10" class="edge">
<title>8088574026551032440&#45;&gt;1805538337643245841</title>
<path fill="none" stroke="#b2df8a" d="M250.51,-287.35C231.71,-276.84 209.39,-264.37 189.48,-253.24"/>
<polygon fill="#b2df8a" stroke="#b2df8a" points="191.37,-250.29 180.94,-248.46 187.96,-256.4 191.37,-250.29"/>
</g>
<!-- &#45;6026554709421104232&#45;&gt;657480190493101406 -->
<g id="edge11" class="edge">
<title>&#45;6026554709421104232&#45;&gt;657480190493101406</title>
<path fill="none" stroke="#33a02c" d="M684.54,-249.27C679.64,-275.61 668.17,-315.73 642,-338.96 608.67,-368.54 562.75,-384.22 520.49,-392.44"/>
<polygon fill="#33a02c" stroke="#33a02c" points="519.96,-388.98 510.74,-394.2 521.21,-395.87 519.96,-388.98"/>
</g>
<!-- &#45;6026554709421104232&#45;&gt;2735373790292535263 -->
<g id="edge6" class="edge">
<title>&#45;6026554709421104232&#45;&gt;2735373790292535263</title>
<path fill="none" stroke="#1f78b4" d="M640.53,-197.37C623.15,-187.37 603.67,-175.6 586.73,-164.92"/>
<polygon fill="#1f78b4" stroke="#1f78b4" points="588.67,-162.01 578.36,-159.6 584.91,-167.92 588.67,-162.01"/>
</g>
<!-- 2735373790292535263&#45;&gt;8088574026551032440 -->
<g id="edge20" class="edge">
<title>2735373790292535263&#45;&gt;8088574026551032440</title>
<path fill="none" stroke="#33a02c" d="M459.81,-152.08C390.01,-167.78 301.35,-188.82 296,-195.48 278.65,-217.11 279.14,-249.06 283.28,-273.89"/>
<polygon fill="#33a02c" stroke="#33a02c" points="279.83,-274.45 285.18,-283.6 286.7,-273.11 279.83,-274.45"/>
</g>
<!-- 2735373790292535263&#45;&gt;&#45;6026554709421104232 -->
<g id="edge24" class="edge">
<title>2735373790292535263&#45;&gt;&#45;6026554709421104232</title>
<path fill="none" stroke="#33a02c" d="M592.08,-157.55C609.57,-167.57 629.11,-179.36 646.03,-190.06"/>
<polygon fill="#33a02c" stroke="#33a02c" points="644.06,-192.96 654.37,-195.39 647.83,-187.06 644.06,-192.96"/>
</g>
<!-- &#45;1521157398017332777 -->
<g id="node9" class="node">
<title>&#45;1521157398017332777</title>
<ellipse fill="none" stroke="black" cx="411" cy="-42.87" rx="141.34" ry="26.74"/>
<text text-anchor="middle" x="411" y="-46.67" font-family="Times,serif" font-size="14.00">/\ todos = {&quot;t1&quot;, &quot;t2&quot;}</text>
<text text-anchor="middle" x="411" y="-31.67" font-family="Times,serif" font-size="14.00">/\ completedTodos = {&quot;t1&quot;, &quot;t2&quot;}</text>
</g>
<!-- 2735373790292535263&#45;&gt;&#45;1521157398017332777 -->
<g id="edge14" class="edge">
<title>2735373790292535263&#45;&gt;&#45;1521157398017332777</title>
<path fill="none" stroke="red" d="M506.6,-106.94C491.71,-97.11 474.4,-85.69 458.63,-75.29"/>
<polygon fill="red" stroke="red" points="460.58,-72.39 450.31,-69.8 456.73,-78.23 460.58,-72.39"/>
</g>
<!-- &#45;2004771903845544713&#45;&gt;&#45;3975863647656683248 -->
<g id="edge23" class="edge">
<title>&#45;2004771903845544713&#45;&gt;&#45;3975863647656683248</title>
<path fill="none" stroke="#33a02c" d="M363.57,-152.03C433.68,-167.71 522.72,-188.73 528,-195.48 545.08,-217.32 543.15,-249.25 537.74,-274.02"/>
<polygon fill="#33a02c" stroke="#33a02c" points="534.35,-273.17 535.34,-283.72 541.15,-274.85 534.35,-273.17"/>
</g>
<!-- &#45;2004771903845544713&#45;&gt;1805538337643245841 -->
<g id="edge16" class="edge">
<title>&#45;2004771903845544713&#45;&gt;1805538337643245841</title>
<path fill="none" stroke="#33a02c" d="M246.89,-158.78C231.17,-169.02 211.88,-180.93 193.78,-191.6"/>
<polygon fill="#33a02c" stroke="#33a02c" points="192.06,-188.55 185.18,-196.61 195.58,-194.6 192.06,-188.55"/>
</g>
<!-- &#45;2004771903845544713&#45;&gt;&#45;1521157398017332777 -->
<g id="edge13" class="edge">
<title>&#45;2004771903845544713&#45;&gt;&#45;1521157398017332777</title>
<path fill="none" stroke="#b2df8a" d="M316.12,-106.94C330.9,-97.11 348.08,-85.69 363.73,-75.29"/>
<polygon fill="#b2df8a" stroke="#b2df8a" points="365.59,-78.26 371.98,-69.81 361.72,-72.43 365.59,-78.26"/>
</g>
<!-- 1805538337643245841&#45;&gt;657480190493101406 -->
<g id="edge22" class="edge">
<title>1805538337643245841&#45;&gt;657480190493101406</title>
<path fill="none" stroke="#33a02c" d="M138.27,-249.2C141.96,-275.48 151.65,-315.56 177,-338.96 209.55,-369 255.05,-384.76 297.14,-392.92"/>
<polygon fill="#33a02c" stroke="#33a02c" points="296.38,-396.34 306.84,-394.67 297.61,-389.45 296.38,-396.34"/>
</g>
<!-- 1805538337643245841&#45;&gt;&#45;2004771903845544713 -->
<g id="edge17" class="edge">
<title>1805538337643245841&#45;&gt;&#45;2004771903845544713</title>
<path fill="none" stroke="#1f78b4" d="M168.75,-196.21C184.56,-185.95 203.9,-174.02 221.98,-163.34"/>
<polygon fill="#1f78b4" stroke="#1f78b4" points="223.7,-166.39 230.56,-158.31 220.16,-160.35 223.7,-166.39"/>
</g>
<!-- &#45;1521157398017332777&#45;&gt;&#45;6026554709421104232 -->
<g id="edge21" class="edge">
<title>&#45;1521157398017332777&#45;&gt;&#45;6026554709421104232</title>
<path fill="none" stroke="#33a02c" d="M529.38,-57.73C590.78,-67.49 657.06,-82.94 677,-105.74 695.45,-126.83 697.11,-159.1 694.77,-184.19"/>
<polygon fill="#33a02c" stroke="#33a02c" points="691.31,-183.65 693.59,-194 698.26,-184.49 691.31,-183.65"/>
</g>
<!-- &#45;1521157398017332777&#45;&gt;1805538337643245841 -->
<g id="edge19" class="edge">
<title>&#45;1521157398017332777&#45;&gt;1805538337643245841</title>
<path fill="none" stroke="#33a02c" d="M292.63,-57.78C231.53,-67.54 165.72,-82.98 146,-105.74 127.67,-126.9 126.29,-159.17 128.87,-184.24"/>
<polygon fill="#33a02c" stroke="#33a02c" points="125.38,-184.57 130.14,-194.03 132.32,-183.66 125.38,-184.57"/>
</g>
</g>
</svg>
